<svg viewBox="0 -1.5 3 4" fill="none" stroke="black" stroke-linecap="round" stroke-linejoin="round" id="frame" stroke-width="0.4" width="297mm" height="210mm" xmlns="http://www.w3.org/2000/svg"><g transform=""><path d="M0 0 L1 0 L2 0 L2 1 L3 1 L3 2 L2 2 L1 2 L0.9999999999999998 1 L0.9999999999999996 0 L1.9999999999999996 -2.4492935982947064e-16 L1.9999999999999993 -1.0000000000000002 L2.999999999999999 -1.0000000000000004 L2.9999999999999996 -4.440892098500626e-16 L3 0.9999999999999996 L2 0.9999999999999999 L1 1.0000000000000002 L0.9999999999999996 2.220446049250313e-16 L-4.440892098500626e-16 5.894386446692372e-16 L-8.727155895516362e-16 -0.9999999999999994 L0.9999999999999991 -0.9999999999999999 L1.9999999999999991 -1.0000000000000004 L2.0000000000000013 -4.440892098500626e-16 L2.0000000000000036 0.9999999999999996 L1.0000000000000036 1.0000000000000002 L1.0000000000000058 2 L5.773159728050814e-15 2.0000000000000004 L6.87596082792002e-15 1.0000000000000004 L7.978761927789227e-15 4.440892098500626e-16" stroke-width="0.2"></path></g></svg>