<svg viewBox="0 0 297 210" fill="none" stroke="black" stroke-linecap="round" stroke-linejoin="round" id="frame" stroke-width="0.4" width="297mm" height="210mm" xmlns="http://www.w3.org/2000/svg"><g transform=" translate(150,110)  scale(2) "><path d="M0 0 L1 0 L2 0 L2 1 L3 1 L3 2 L2 2 L1 2 L0 2 L-1 2 L-1.0000000000000002 1 L-2 1.0000000000000002 L-2 2.220446049250313e-16 L-1 -2.2884754904439333e-17 L0 -2.6781411473390997e-16 L3.061616997868383e-16 0.9999999999999998 L6.123233995736766e-16 1.9999999999999998 L-0.9999999999999993 2 L-0.999999999999999 3 L-1.9999999999999991 3.0000000000000004 L-1.9999999999999996 2.0000000000000004 L-2 1.0000000000000004 L-3 1.0000000000000009 L-4 1.0000000000000013 L-4 1.3322676295501878e-15 L-5 1.6996616692943937e-15 L-5 -0.9999999999999983 L-4 -0.9999999999999988 L-3 -0.9999999999999992 L-2.999999999999998 7.771561172376096e-16 L-2.9999999999999956 1.0000000000000009 L-3.9999999999999956 1.0000000000000016 L-3.9999999999999933 2.0000000000000018 L-4.999999999999993 2.000000000000002 L-4.999999999999992 1.0000000000000022 L-4.999999999999991 2.220446049250313e-15 L-3.999999999999991 1.4856579697619012e-15 L-2.999999999999991 7.508698902734893e-16 L-2.999999999999992 1.0000000000000007 L-1.999999999999992 0.9999999999999999 L-1.999999999999993 2 L-2.999999999999993 2.000000000000001 L-3.999999999999993 2.0000000000000018 L-4.999999999999993 2.0000000000000027 L-5.999999999999993 2.0000000000000036 L-5.999999999999992 1.0000000000000036 L-6.999999999999992 1.0000000000000044 L-6.999999999999991 4.440892098500626e-15 L-5.999999999999991 3.4611746591827434e-15 L-4.999999999999991 2.4814572198648606e-15 L-4.9999999999999885 1.0000000000000024 L-4.999999999999986 2.0000000000000027 L-5.999999999999986 2.000000000000007 L-5.999999999999983 3.000000000000007 L-6.999999999999983 3.0000000000000115 L-6.999999999999982 2.0000000000000115 L-6.999999999999981 1.0000000000000115 L-6.9999999999999805 1.1546319456101628e-14 L-6.99999999999998 -0.9999999999999885 L-5.99999999999998 -0.9999999999999897 L-5.999999999999979 -1.9999999999999898 L-4.999999999999979 -1.9999999999999911 L-4.9999999999999725 -0.9999999999999911 L-4.999999999999966 8.881784197001252e-15 L-5.999999999999966 6.6761819972628396e-15 L-6.999999999999966 4.470579797524427e-15 L-6.99999999999997 -0.9999999999999956 L-7.99999999999997 -0.9999999999999978 L-7.999999999999973 -1.9999999999999978 L-6.999999999999973 -1.9999999999999993 L-5.999999999999973 -2.000000000000001 L-5.999999999999977 -3.000000000000001 L-5.9999999999999805 -4.000000000000001 L-4.9999999999999805 -4.000000000000003 L-4.999999999999984 -5.000000000000003 L-3.999999999999984 -5.000000000000004 L-3.9999999999999845 -4.000000000000004 L-3.999999999999985 -3.0000000000000044 L-4.999999999999985 -3.000000000000006 L-5.999999999999985 -3.000000000000008 L-5.9999999999999885 -4.000000000000008 L-6.9999999999999885 -4.00000000000001 L-6.999999999999992 -5.00000000000001 L-5.999999999999992 -5.0000000000000115 L-4.999999999999992 -5.000000000000013 L-4.999999999999992 -4.000000000000013 L-4.999999999999992 -3.0000000000000133 L-5.999999999999992 -3.000000000000015 L-5.999999999999992 -2.000000000000015 L-6.999999999999992 -2.000000000000017 L-6.999999999999996 -3.000000000000017 L-6.999999999999999 -4.000000000000017 L-7.000000000000003 -5.000000000000017 L-7.000000000000006 -6.000000000000017 L-6.000000000000006 -6.000000000000019 L-6.00000000000001 -7.000000000000019 L-5.00000000000001 -7.00000000000002 L-5.00000000000001 -6.00000000000002 L-5.00000000000001 -5.00000000000002 L-6.00000000000001 -5.000000000000015 L-7.00000000000001 -5.00000000000001 L-7.000000000000013 -6.00000000000001 L-8.000000000000014 -6.000000000000004 L-8.000000000000018 -7.000000000000004 L-7.000000000000018 -7.000000000000013 L-6.000000000000018 -7.000000000000022 L-5.000000000000018 -7.000000000000031 L-4.000000000000018 -7.00000000000004 L-4.000000000000017 -6.00000000000004 L-3.000000000000017 -6.000000000000049 L-3.0000000000000164 -5.000000000000049 L-4.000000000000016 -5.00000000000005 L-5.000000000000016 -5.000000000000051 L-5.00000000000002 -6.000000000000051 L-5.000000000000025 -7.000000000000051 L-4.000000000000025 -7.000000000000053 L-4.000000000000029 -8.000000000000053 L-3.0000000000000293 -8.000000000000055 L-3.0000000000000355 -7.000000000000055 L-3.0000000000000417 -6.000000000000055 L-2.0000000000000417 -6.000000000000058 L-1.0000000000000417 -6.00000000000006 L-1.0000000000000482 -5.00000000000006 L-4.8183679268731794e-14 -5.000000000000063 L-5.4554937527480976e-14 -4.000000000000063 L-1.0000000000000546 -4.00000000000005 L-2.0000000000000546 -4.000000000000036 L-2.000000000000059 -5.000000000000036 L-2.0000000000000635 -6.000000000000036 L-1.0000000000000635 -6.000000000000032 L-1.000000000000068 -7.000000000000032 L-6.794564910705958e-14 -7.0000000000000275 L-6.696655064837829e-14 -6.0000000000000275 L-6.5987452189697e-14 -5.0000000000000275 L-1.000000000000066 -5.000000000000021 L-2.0000000000000657 -5.000000000000015 L-2.000000000000063 -6.000000000000015 L-3.000000000000063 -6.000000000000009 L-3.0000000000000604 -7.000000000000009 L-2.0000000000000604 -7.0000000000000115 L-1.0000000000000604 -7.000000000000014 L-6.039613253960852e-14 -7.000000000000017 L0.9999999999999396 -7.0000000000000195 L0.9999999999999479 -6.0000000000000195 L1.999999999999948 -6.000000000000022 L1.9999999999999565 -5.000000000000022 L0.9999999999999565 -5.000000000000023 L-4.3520742565306136e-14 -5.000000000000024 L-4.841994874253214e-14 -6.000000000000024 L-5.331915491975814e-14 -7.000000000000024 L0.9999999999999467 -7.00000000000002 L0.9999999999999418 -8.000000000000021 L1.9999999999999418 -8.000000000000018 L1.9999999999999434 -7.000000000000018 L1.999999999999945 -6.000000000000018 L1.9999999999999465 -5.000000000000018 L1.999999999999948 -4.000000000000018 L0.999999999999948 -4.000000000000011 L0.9999999999999495 -3.0000000000000107 L-5.051514762044462e-14 -3.000000000000004 L-4.8553855799899094e-14 -4.0000000000000036 L-4.6592563979353566e-14 -5.0000000000000036 L0.9999999999999534 -5.000000000000007 L1.9999999999999534 -5.000000000000011 L1.9999999999999623 -4.000000000000011 L2.9999999999999623 -4.000000000000014 L2.999999999999971 -3.000000000000014 L1.9999999999999711 -3.000000000000014 L0.9999999999999711 -3.000000000000014 L0.9999999999999799 -2.000000000000014 L0.9999999999999887 -1.0000000000000142 L-1.1324274851176597e-14 -1.0000000000000142 L-2.504960955405889e-15 -1.4210854715202004e-14 L-1.0000000000000024 -1.421209267647518e-14 L-1.0000000000000078 -1.0000000000000142 L-1.000000000000013 -2.000000000000014 L-1.3100631690576847e-14 -2.0000000000000107 L0.9999999999999869 -2.000000000000007 L1.000000000000003 -1.000000000000007 L2.000000000000003 -1.0000000000000038 L2.000000000000019 -3.774758283725532e-15 L1.000000000000019 3.574360472431763e-15 L1.9095836023552692e-14 1.0923479228589058e-14 L2.056726912443928e-14 -0.9999999999999891 L2.2038702225325868e-14 -1.9999999999999891 L1.000000000000022 -1.9999999999999931 L1.0000000000000235 -2.999999999999993 L2.0000000000000235 -2.999999999999997 L2.0000000000000187 -1.999999999999997 L2.0000000000000138 -0.9999999999999969 L2.000000000000009 3.1086244689504383e-15 L2.000000000000004 1.000000000000003 L1.000000000000004 1.0000000000000036 L0.9999999999999991 2.0000000000000036 L-8.881784197001252e-16 2.000000000000004 L-6.767102036244009e-15 1.000000000000004 L-1.2646025652787892e-14 3.9968028886505635e-15" stroke-width="0.2"></path></g></svg>