<svg viewBox="0 0 297 210" fill="none" stroke="black" stroke-linecap="round" stroke-linejoin="round" id="frame" stroke-width="0.4" width="297mm" height="210mm" xmlns="http://www.w3.org/2000/svg"><g transform=" translate(160,110)  scale(2) "><path d="M0 0 L1 0 L2 0 L2 1 L3 1 L3 2 L2 2 L1 2 L0 2 L-1 2 L-1.0000000000000002 1 L-2 1.0000000000000002 L-2 2.220446049250313e-16 L-1 -2.2884754904439333e-17 L0 -2.6781411473390997e-16 L3.061616997868383e-16 0.9999999999999998 L6.123233995736766e-16 1.9999999999999998 L-0.9999999999999993 2 L-0.999999999999999 3 L-1.9999999999999991 3.0000000000000004 L-1.9999999999999996 2.0000000000000004 L-2 1.0000000000000004 L-3 1.0000000000000009 L-4 1.0000000000000013 L-4 1.3322676295501878e-15 L-5 1.6996616692943937e-15 L-5 -0.9999999999999983 L-4 -0.9999999999999988 L-3 -0.9999999999999992 L-2.999999999999998 7.771561172376096e-16 L-2.9999999999999956 1.0000000000000009 L-3.9999999999999956 1.0000000000000016 L-3.9999999999999933 2.0000000000000018 L-4.999999999999993 2.000000000000002 L-4.999999999999992 1.0000000000000022 L-4.999999999999991 2.220446049250313e-15 L-3.999999999999991 1.4856579697619012e-15 L-2.999999999999991 7.508698902734893e-16 L-2.999999999999992 1.0000000000000007 L-1.999999999999992 0.9999999999999999 L-1.999999999999993 2 L-2.999999999999993 2.000000000000001 L-3.999999999999993 2.0000000000000018 L-4.999999999999993 2.0000000000000027 L-5.999999999999993 2.0000000000000036 L-5.999999999999992 1.0000000000000036 L-6.999999999999992 1.0000000000000044 L-6.999999999999991 4.440892098500626e-15 L-5.999999999999991 3.4611746591827434e-15 L-4.999999999999991 2.4814572198648606e-15 L-3.999999999999991 1.501739780546978e-15 L-2.999999999999991 5.220223412290955e-16 L-2.9999999999999885 1.0000000000000004 L-1.9999999999999885 0.9999999999999994 L-1.9999999999999856 1.9999999999999996 L-2.999999999999986 2.000000000000004 L-3.999999999999986 2.0000000000000084 L-4.999999999999986 2.000000000000013 L-5.999999999999986 2.0000000000000173 L-5.999999999999985 1.0000000000000173 L-6.999999999999985 1.000000000000022 L-6.999999999999984 2.19824158875781e-14 L-5.999999999999984 2.0757769088430745e-14 L-4.999999999999984 1.953312228928339e-14 L-4.999999999999978 1.0000000000000195 L-4.999999999999972 2.0000000000000195 L-5.999999999999972 2.0000000000000173 L-5.999999999999965 3.0000000000000173 L-6.999999999999965 3.000000000000015 L-6.999999999999969 2.000000000000015 L-6.9999999999999725 1.000000000000015 L-7.9999999999999725 1.0000000000000129 L-8.999999999999972 1.0000000000000107 L-8.999999999999975 1.0658141036401503e-14 L-9.999999999999975 8.45253883666309e-15 L-9.999999999999979 -0.9999999999999916 L-8.999999999999979 -0.999999999999993 L-7.999999999999979 -0.9999999999999944 L-7.999999999999979 5.551115123125783e-15 L-7.999999999999979 1.0000000000000056 L-8.999999999999979 1.0000000000000036 L-8.999999999999979 2.0000000000000036 L-9.999999999999979 2.0000000000000018 L-9.999999999999982 1.0000000000000018 L-9.999999999999986 1.7763568394002505e-15 L-8.999999999999986 6.185132059395602e-17 L-7.999999999999986 -1.6526541982123384e-15 L-7.999999999999986 0.9999999999999983 L-6.999999999999986 0.9999999999999967 L-6.999999999999986 1.9999999999999967 L-7.999999999999986 1.999999999999995 L-8.999999999999986 1.9999999999999931 L-9.999999999999986 1.9999999999999913 L-10.999999999999986 1.9999999999999896 L-10.99999999999999 0.9999999999999896 L-11.99999999999999 0.9999999999999879 L-11.999999999999993 -1.2101430968414206e-14 L-10.999999999999993 -1.4060865847049972e-14 L-9.999999999999993 -1.6020300725685737e-14 L-9.999999999999993 0.999999999999984 L-9.999999999999993 1.999999999999984 L-10.999999999999993 1.9999999999999896 L-10.999999999999993 2.9999999999999893 L-11.999999999999993 2.999999999999995 L-11.999999999999996 1.9999999999999951 L-12 0.9999999999999951 L-12.000000000000004 -4.884981308350689e-15 L-12.000000000000007 -1.0000000000000049 L-11.000000000000007 -1.0000000000000142 L-11.00000000000001 -2.000000000000014 L-10.00000000000001 -2.0000000000000235 L-10.00000000000001 -1.0000000000000235 L-10.00000000000001 -2.353672812205332e-14 L-11.00000000000001 -2.476261288247385e-14 L-12.00000000000001 -2.598849764289438e-14 L-12.000000000000014 -1.000000000000026 L-13.000000000000014 -1.0000000000000273 L-13.000000000000018 -2.0000000000000275 L-12.000000000000018 -2.00000000000003 L-11.000000000000018 -2.000000000000033 L-11.000000000000021 -3.000000000000033 L-11.000000000000025 -4.000000000000033 L-10.000000000000025 -4.0000000000000355 L-10.000000000000028 -5.0000000000000355 L-9.000000000000028 -5.000000000000038 L-9.000000000000036 -4.000000000000038 L-9.000000000000043 -3.000000000000038 L-10.000000000000043 -3.000000000000025 L-11.000000000000043 -3.0000000000000115 L-11.000000000000046 -4.0000000000000115 L-12.000000000000046 -3.9999999999999982 L-12.00000000000005 -4.999999999999998 L-11.00000000000005 -4.999999999999994 L-10.00000000000005 -4.999999999999989 L-10.000000000000048 -3.9999999999999893 L-10.000000000000046 -2.9999999999999893 L-11.000000000000046 -2.999999999999983 L-11.000000000000044 -1.9999999999999831 L-12.000000000000044 -1.9999999999999767 L-12.000000000000043 -2.999999999999977 L-12.00000000000004 -3.999999999999977 L-12.000000000000039 -4.999999999999977 L-12.000000000000037 -5.999999999999977 L-11.000000000000037 -5.99999999999998 L-11.000000000000036 -6.99999999999998 L-10.000000000000036 -6.999999999999982 L-10.000000000000027 -5.999999999999982 L-10.000000000000018 -4.999999999999982 L-9.000000000000018 -4.999999999999985 L-8.000000000000018 -4.999999999999988 L-8.000000000000009 -3.9999999999999876 L-7.000000000000009 -3.9999999999999907 L-7.000000000000001 -2.9999999999999907 L-8 -2.999999999999991 L-9 -2.9999999999999916 L-10 -2.999999999999992 L-11 -2.9999999999999925 L-11.000000000000005 -3.9999999999999925 L-12.000000000000005 -3.999999999999993 L-12.00000000000001 -4.999999999999993 L-11.00000000000001 -4.999999999999989 L-10.00000000000001 -4.999999999999986 L-10.000000000000009 -3.999999999999986 L-10.000000000000007 -2.999999999999986 L-11.000000000000007 -2.999999999999979 L-11.000000000000005 -1.9999999999999791 L-12.000000000000005 -1.9999999999999722 L-12.000000000000004 -2.9999999999999725 L-12.000000000000002 -3.9999999999999725 L-13.000000000000002 -3.999999999999966 L-14.000000000000002 -3.999999999999959 L-14 -4.999999999999959 L-15 -4.999999999999952 L-14.999999999999998 -5.999999999999952 L-13.999999999999998 -5.999999999999956 L-12.999999999999998 -5.999999999999959 L-12.99999999999999 -4.999999999999959 L-12.99999999999998 -3.999999999999959 L-13.99999999999998 -3.999999999999959 L-13.999999999999972 -2.999999999999959 L-14.999999999999972 -2.999999999999959 L-14.999999999999977 -3.999999999999959 L-14.999999999999982 -4.999999999999959 L-13.999999999999982 -4.999999999999956 L-12.999999999999982 -4.999999999999952 L-12.999999999999966 -3.999999999999952 L-11.999999999999966 -3.9999999999999485 L-11.99999999999995 -2.9999999999999485 L-12.99999999999995 -2.999999999999941 L-13.99999999999995 -2.9999999999999334 L-14.99999999999995 -2.999999999999926 L-15.99999999999995 -2.9999999999999183 L-15.999999999999948 -3.9999999999999183 L-16.99999999999995 -3.9999999999999107 L-16.99999999999995 -4.999999999999911 L-15.99999999999995 -4.999999999999915 L-14.99999999999995 -4.999999999999918 L-14.999999999999956 -3.9999999999999183 L-14.999999999999961 -2.9999999999999183 L-15.999999999999961 -2.999999999999918 L-15.999999999999966 -1.9999999999999178 L-16.999999999999964 -1.9999999999999174 L-16.99999999999997 -2.9999999999999174 L-16.99999999999998 -3.9999999999999174 L-16.999999999999986 -4.999999999999917 L-16.999999999999993 -5.999999999999917 L-15.999999999999993 -5.999999999999929 L-15.999999999999998 -6.999999999999929 L-14.999999999999998 -6.9999999999999405 L-14.999999999999996 -5.9999999999999405 L-14.999999999999995 -4.9999999999999405 L-15.999999999999995 -4.9999999999999325 L-16.999999999999993 -4.9999999999999245 L-16.999999999999993 -5.9999999999999245 L-17.999999999999993 -5.9999999999999165 L-17.999999999999993 -6.9999999999999165 L-16.999999999999993 -6.999999999999935 L-15.999999999999993 -6.999999999999954 L-15.999999999999991 -7.999999999999954 L-15.99999999999999 -8.999999999999954 L-14.99999999999999 -8.999999999999972 L-14.999999999999988 -9.999999999999972 L-13.999999999999988 -9.99999999999999 L-13.999999999999977 -8.99999999999999 L-13.999999999999966 -7.999999999999989 L-14.999999999999966 -7.9999999999999885 L-15.999999999999966 -7.999999999999988 L-15.999999999999973 -8.999999999999988 L-16.99999999999997 -8.999999999999986 L-16.99999999999998 -9.999999999999986 L-15.999999999999979 -9.999999999999984 L-14.999999999999979 -9.999999999999982 L-14.999999999999975 -8.999999999999982 L-14.999999999999972 -7.999999999999982 L-15.999999999999972 -7.999999999999974 L-15.999999999999968 -6.999999999999974 L-16.999999999999968 -6.999999999999966 L-16.999999999999982 -7.999999999999966 L-16.999999999999996 -8.999999999999966 L-17.00000000000001 -9.999999999999966 L-17.000000000000025 -10.999999999999966 L-16.000000000000025 -10.999999999999972 L-16.00000000000004 -11.999999999999972 L-15.000000000000039 -11.999999999999977 L-15.000000000000028 -10.999999999999977 L-15.000000000000018 -9.999999999999977 L-16.000000000000018 -9.99999999999999 L-17.000000000000018 -10.000000000000002 L-17.00000000000001 -11.000000000000002 L-18.00000000000001 -11.000000000000014 L-18.000000000000004 -12.000000000000014 L-17.000000000000004 -12.00000000000004 L-16.000000000000004 -12.000000000000068 L-15.000000000000004 -12.000000000000094 L-14.000000000000004 -12.00000000000012 L-14 -11.00000000000012 L-13 -11.000000000000147 L-12.999999999999996 -10.000000000000147 L-13.999999999999996 -10.000000000000139 L-14.999999999999996 -10.00000000000013 L-15.00000000000001 -11.00000000000013 L-15.000000000000025 -12.00000000000013 L-14.000000000000025 -12.00000000000012 L-14.000000000000039 -13.00000000000012 L-13.000000000000039 -13.000000000000112 L-13.000000000000043 -12.000000000000112 L-13.000000000000046 -11.000000000000112 L-12.000000000000046 -11.000000000000103 L-11.000000000000046 -11.000000000000094 L-11.00000000000005 -10.000000000000094 L-10.00000000000005 -10.000000000000085 L-10.000000000000053 -9.000000000000085 L-11.000000000000053 -9.000000000000083 L-12.000000000000053 -9.000000000000082 L-12.00000000000006 -10.000000000000082 L-12.000000000000068 -11.000000000000082 L-11.000000000000068 -11.000000000000094 L-11.000000000000075 -12.000000000000094 L-10.000000000000075 -12.000000000000107 L-10.000000000000085 -11.000000000000107 L-10.000000000000096 -10.000000000000107 L-11.000000000000096 -10.000000000000112 L-12.000000000000096 -10.000000000000117 L-12.000000000000124 -11.000000000000117 L-13.000000000000124 -11.000000000000123 L-13.000000000000153 -12.000000000000123 L-12.000000000000153 -12.000000000000128 L-11.000000000000153 -12.000000000000133 L-10.000000000000153 -12.000000000000139 L-9.000000000000153 -12.000000000000144 L-9.000000000000142 -11.000000000000144 L-8.000000000000142 -11.00000000000015 L-8.000000000000131 -10.00000000000015 L-9.000000000000131 -10.000000000000133 L-10.000000000000131 -10.000000000000117 L-11.000000000000131 -10.000000000000101 L-12.000000000000131 -10.000000000000085 L-12.000000000000124 -11.000000000000085 L-13.000000000000124 -11.00000000000007 L-13.000000000000117 -12.00000000000007 L-12.000000000000117 -12.000000000000068 L-11.000000000000117 -12.000000000000066 L-10.000000000000117 -12.000000000000064 L-9.000000000000117 -12.000000000000062 L-9.000000000000114 -11.000000000000062 L-8.000000000000114 -11.00000000000006 L-8.00000000000011 -10.00000000000006 L-9.00000000000011 -10.00000000000005 L-10.00000000000011 -10.000000000000039 L-10.000000000000126 -11.000000000000039 L-10.000000000000142 -12.000000000000039 L-9.000000000000142 -12.000000000000032 L-9.000000000000158 -13.000000000000032 L-8.000000000000158 -13.000000000000025 L-8.00000000000016 -12.000000000000025 L-8.000000000000162 -11.000000000000025 L-7.000000000000162 -11.000000000000018 L-6.000000000000162 -11.00000000000001 L-6.000000000000164 -10.00000000000001 L-5.000000000000164 -10.000000000000004 L-5.000000000000167 -9.000000000000004 L-6.000000000000167 -9 L-7.000000000000167 -8.999999999999996 L-7.000000000000175 -9.999999999999996 L-7.000000000000183 -10.999999999999996 L-6.000000000000183 -11.00000000000001 L-6.000000000000191 -12.00000000000001 L-5.000000000000191 -12.000000000000025 L-5.000000000000171 -11.000000000000025 L-5.000000000000152 -10.000000000000025 L-6.000000000000152 -10.000000000000028 L-7.000000000000152 -10.000000000000032 L-7.000000000000154 -11.000000000000032 L-8.000000000000153 -11.000000000000036 L-8.000000000000155 -12.000000000000036 L-7.0000000000001545 -12.000000000000043 L-6.0000000000001545 -12.00000000000005 L-5.0000000000001545 -12.000000000000057 L-4.0000000000001545 -12.000000000000064 L-4.000000000000142 -11.000000000000064 L-3.000000000000142 -11.000000000000071 L-3.0000000000001297 -10.000000000000071 L-4.00000000000013 -10.000000000000053 L-5.00000000000013 -10.000000000000036 L-5.000000000000124 -11.000000000000036 L-5.000000000000119 -12.000000000000036 L-4.000000000000119 -12.000000000000036 L-4.000000000000114 -13.000000000000036 L-3.0000000000001137 -13.000000000000036 L-3.00000000000008 -12.000000000000036 L-3.000000000000046 -11.000000000000036 L-3.0000000000000124 -10.000000000000036 L-2.9999999999999787 -9.000000000000036 L-3.9999999999999787 -9.000000000000025 L-3.999999999999945 -8.000000000000025 L-4.999999999999945 -8.000000000000014 L-4.999999999999961 -9.000000000000014 L-4.999999999999977 -10.000000000000014 L-3.999999999999977 -10.000000000000007 L-2.999999999999977 -10 L-2.9999999999999782 -9 L-1.9999999999999782 -8.999999999999993 L-1.9999999999999798 -7.999999999999993 L-2.9999999999999796 -7.999999999999961 L-3.9999999999999796 -7.999999999999929 L-3.999999999999981 -6.999999999999929 L-3.9999999999999822 -5.999999999999929 L-4.999999999999982 -5.999999999999897 L-4.999999999999984 -4.999999999999897 L-5.999999999999984 -4.999999999999865 L-5.999999999999993 -5.999999999999865 L-6.000000000000002 -6.999999999999865 L-5.000000000000002 -6.99999999999988 L-4.000000000000002 -6.999999999999895 L-4.00000000000001 -5.999999999999895 L-3.0000000000000098 -5.99999999999991 L-3.000000000000018 -4.99999999999991 L-4.000000000000018 -4.999999999999913 L-5.000000000000018 -4.999999999999916 L-5.000000000000049 -5.999999999999916 L-5.00000000000008 -6.999999999999916 L-4.00000000000008 -6.999999999999924 L-4.000000000000111 -7.999999999999924 L-3.000000000000111 -7.999999999999932 L-3.0000000000000977 -6.999999999999932 L-3.0000000000000844 -5.999999999999932 L-3.000000000000071 -4.999999999999932 L-3.0000000000000577 -3.9999999999999316 L-4.000000000000058 -3.9999999999999414 L-4.000000000000044 -2.9999999999999414 L-5.000000000000044 -2.999999999999951 L-5.000000000000068 -3.999999999999951 L-5.000000000000092 -4.999999999999951 L-5.000000000000116 -5.999999999999951 L-5.00000000000014 -6.999999999999951 L-4.00000000000014 -6.999999999999952 L-4.000000000000164 -7.999999999999952 L-3.0000000000001643 -7.999999999999953 L-3.000000000000158 -6.999999999999953 L-3.000000000000152 -5.999999999999953 L-3.0000000000001457 -4.999999999999953 L-3.0000000000001394 -3.999999999999953 L-4.000000000000139 -3.9999999999999414 L-4.000000000000133 -2.9999999999999414 L-5.000000000000133 -2.99999999999993 L-5.000000000000122 -3.99999999999993 L-5.00000000000011 -4.99999999999993 L-4.00000000000011 -4.999999999999952 L-3.00000000000011 -4.999999999999974 L-3.0000000000001106 -3.9999999999999742 L-2.0000000000001106 -3.999999999999997 L-2.000000000000111 -2.999999999999997 L-3.000000000000111 -2.999999999999992 L-4.000000000000111 -2.999999999999987 L-4.000000000000112 -1.9999999999999871 L-4.000000000000113 -0.9999999999999871 L-5.000000000000113 -0.9999999999999822 L-5.000000000000114 1.7763568394002505e-14 L-6.000000000000114 2.266091762931874e-14 L-6.000000000000153 -0.9999999999999774 L-6.000000000000192 -1.9999999999999774 L-5.000000000000192 -1.9999999999999931 L-4.000000000000192 -2.000000000000009 L-4.0000000000001705 -1.0000000000000089 L-3.0000000000001705 -1.0000000000000246 L-3.0000000000001497 -2.4646951146678475e-14 L-4.000000000000149 -2.661009990913377e-14 L-5.000000000000149 -2.8573248671589064e-14 L-5.000000000000153 -1.0000000000000286 L-5.000000000000156 -2.0000000000000284 L-4.000000000000156 -2.0000000000000657 L-4.00000000000016 -3.0000000000000657 L-3.00000000000016 -3.000000000000103 L-3.0000000000001457 -2.000000000000103 L-3.0000000000001315 -1.000000000000103 L-3.0000000000001172 -1.0302869668521453e-13 L-3.000000000000103 0.999999999999897 L-4.000000000000103 0.9999999999999166 L-4.000000000000089 1.9999999999999165 L-5.000000000000089 1.999999999999936 L-5.000000000000085 0.999999999999936 L-5.000000000000082 -6.394884621840902e-14 L-4.000000000000082 -6.590580517449843e-14 L-3.0000000000000817 -6.786276413058784e-14 L-3.0000000000001026 0.9999999999999322 L-2.0000000000001026 0.9999999999999302 L-2.0000000000001235 1.9999999999999303 L-3.0000000000001235 1.999999999999943 L-4.0000000000001235 1.9999999999999556 L-5.0000000000001235 1.9999999999999682 L-6.0000000000001235 1.999999999999981 L-6.000000000000141 0.9999999999999809 L-7.000000000000141 0.9999999999999937 L-7.000000000000159 -6.328271240363392e-15 L-6.000000000000159 -1.4247321986812724e-15 L-5.000000000000159 3.4788068430008474e-15 L-5.00000000000013 1.0000000000000036 L-5.0000000000001 2.0000000000000036 L-6.0000000000001 2.0000000000000093 L-6.000000000000071 3.0000000000000093 L-7.000000000000071 3.000000000000015 L-7.000000000000083 2.000000000000015 L-7.000000000000094 1.000000000000015 L-8.000000000000094 1.0000000000000209 L-9.000000000000094 1.0000000000000266 L-9.000000000000105 2.6645352591003757e-14 L-10.000000000000105 3.2522419265637875e-14 L-10.000000000000115 -0.9999999999999675 L-9.000000000000115 -0.9999999999999841 L-8.000000000000115 -1.0000000000000009 L-8.000000000000123 -8.881784197001252e-16 L-8.00000000000013 0.9999999999999991 L-9.00000000000013 1.0000000000000266 L-9.000000000000137 2.0000000000000266 L-10.000000000000137 2.000000000000054 L-10.00000000000014 1.0000000000000542 L-10.000000000000144 5.417888360170764e-14 L-9.000000000000144 4.4381709208528815e-14 L-8.000000000000144 3.458453481534999e-14 L-8.000000000000156 1.0000000000000346 L-7.000000000000156 1.0000000000000249 L-7.00000000000017 2.000000000000025 L-8.00000000000017 2.0000000000000453 L-9.00000000000017 2.0000000000000657 L-10.00000000000017 2.000000000000086 L-11.00000000000017 2.0000000000001066 L-11.000000000000197 1.0000000000001066 L-12.000000000000197 1.0000000000001272 L-12.000000000000224 1.2723155862204294e-13 L-11.000000000000224 1.5271659165703967e-13 L-10.000000000000224 1.782016246920364e-13 L-10.00000000000025 -0.9999999999998218 L-10.000000000000277 -1.999999999999822 L-9.000000000000277 -1.9999999999997964 L-9.000000000000304 -2.9999999999997966 L-8.000000000000304 -2.9999999999997713 L-8.000000000000266 -1.9999999999997713 L-8.00000000000023 -0.9999999999997713 L-8.000000000000192 2.2870594307278225e-13 L-8.000000000000155 1.0000000000002287 L-9.000000000000155 1.000000000000214 L-9.000000000000117 2.000000000000214 L-10.000000000000117 2.0000000000001994 L-10.000000000000108 1.0000000000001994 L-10.0000000000001 1.9939605522267811e-13 L-9.0000000000001 1.4647645796423435e-13 L-8.0000000000001 9.355686070579057e-14 L-8.000000000000098 1.0000000000000935 L-7.000000000000098 1.0000000000000406 L-7.000000000000096 2.000000000000041 L-8.000000000000096 2.0000000000000475 L-9.000000000000096 2.000000000000054 L-9.000000000000094 3.000000000000054 L-9.000000000000092 4.000000000000054 L-10.000000000000092 4.000000000000061 L-10.00000000000009 5.000000000000061 L-11.00000000000009 5.000000000000068 L-11.000000000000103 4.000000000000068 L-11.000000000000115 3.0000000000000684 L-10.000000000000115 3.0000000000000506 L-9.000000000000115 3.000000000000033 L-9.000000000000092 4.000000000000033 L-8.000000000000092 4.000000000000015 L-8.00000000000007 5.000000000000015 L-9.00000000000007 5.0000000000000435 L-10.00000000000007 5.000000000000072 L-10.000000000000103 4.000000000000072 L-10.000000000000137 3.000000000000072 L-9.000000000000137 3.0000000000000897 L-9.00000000000017 2.0000000000000897 L-8.00000000000017 2.0000000000001075 L-8.000000000000183 3.0000000000001075 L-8.000000000000195 4.0000000000001075 L-8.000000000000208 5.0000000000001075 L-8.00000000000022 6.0000000000001075 L-9.00000000000022 6.0000000000001 L-9.000000000000233 7.0000000000001 L-10.000000000000233 7.000000000000093 L-10.000000000000231 6.000000000000093 L-10.00000000000023 5.000000000000093 L-9.00000000000023 5.00000000000009 L-8.00000000000023 5.000000000000086 L-8.00000000000022 6.000000000000086 L-7.00000000000022 6.000000000000083 L-7.000000000000211 7.000000000000083 L-8.000000000000211 7.000000000000098 L-9.000000000000211 7.000000000000113 L-10.000000000000211 7.000000000000128 L-11.000000000000211 7.000000000000143 L-11.000000000000231 6.000000000000143 L-12.000000000000231 6.000000000000158 L-12.00000000000025 5.000000000000158 L-11.00000000000025 5.000000000000132 L-10.00000000000025 5.000000000000107 L-10.00000000000022 6.000000000000107 L-10.00000000000019 7.000000000000107 L-11.00000000000019 7.000000000000086 L-11.00000000000016 8.000000000000085 L-12.00000000000016 8.000000000000064 L-12.0000000000002 7.000000000000064 L-12.000000000000242 6.000000000000064 L-13.000000000000242 6.0000000000000435 L-14.000000000000242 6.000000000000023 L-14.000000000000282 5.000000000000023 L-15.000000000000282 5.000000000000003 L-15.000000000000323 4.000000000000003 L-14.000000000000323 4.000000000000012 L-13.000000000000323 4.000000000000022 L-13.000000000000327 5.000000000000022 L-13.00000000000033 6.000000000000022 L-14.00000000000033 6.00000000000008 L-14.000000000000334 7.00000000000008 L-15.000000000000334 7.000000000000138 L-15.000000000000341 6.000000000000138 L-15.000000000000348 5.000000000000138 L-14.000000000000348 5.000000000000126 L-13.000000000000348 5.000000000000115 L-13.00000000000033 6.000000000000115 L-12.00000000000033 6.000000000000103 L-12.000000000000313 7.000000000000103 L-13.000000000000313 7.000000000000125 L-14.000000000000313 7.000000000000147 L-15.000000000000313 7.00000000000017 L-16.000000000000313 7.000000000000192 L-16.000000000000284 6.000000000000192 L-17.000000000000284 6.000000000000214 L-17.000000000000256 5.000000000000214 L-16.000000000000256 5.00000000000018 L-15.000000000000256 5.0000000000001465 L-15.000000000000217 6.0000000000001465 L-15.000000000000178 7.0000000000001465 L-16.000000000000178 7.000000000000134 L-16.00000000000014 8.000000000000135 L-17.00000000000014 8.000000000000123 L-17.00000000000013 7.000000000000123 L-17.000000000000124 6.000000000000123 L-17.000000000000117 5.000000000000123 L-17.00000000000011 4.000000000000123 L-16.00000000000011 4.000000000000124 L-16.000000000000103 3.0000000000001243 L-15.000000000000103 3.000000000000126 L-15.0000000000001 4.000000000000126 L-15.000000000000096 5.000000000000126 L-16.000000000000096 5.000000000000135 L-17.000000000000096 5.000000000000144 L-17.00000000000011 4.000000000000144 L-18.00000000000011 4.000000000000153 L-18.000000000000124 3.0000000000001528 L-17.000000000000124 3.0000000000001332 L-16.000000000000124 3.0000000000001137 L-16.00000000000014 2.0000000000001137 L-16.000000000000153 1.0000000000001137 L-15.000000000000153 1.0000000000000941 L-15.000000000000167 9.414691248821327e-14 L-14.000000000000167 7.455008777930928e-14 L-14.000000000000142 1.0000000000000746 L-14.000000000000117 2.0000000000000746 L-15.000000000000117 2.000000000000105 L-16.000000000000117 2.000000000000135 L-16.000000000000096 1.000000000000135 L-17.000000000000096 1.0000000000001654 L-17.000000000000075 1.6542323066914832e-13 L-16.000000000000075 1.8110861338841985e-13 L-15.000000000000075 1.9679399610769138e-13 L-15.000000000000028 1.0000000000001967 L-14.999999999999982 2.0000000000001967 L-15.999999999999982 2.000000000000192 L-15.999999999999936 3.000000000000192 L-16.999999999999936 3.000000000000187 L-16.999999999999936 2.000000000000187 L-16.999999999999936 1.000000000000187 L-16.999999999999936 1.8696155734687636e-13 L-16.999999999999936 -0.999999999999813 L-15.999999999999936 -0.9999999999998189 L-15.999999999999936 -1.9999999999998188 L-14.999999999999936 -1.9999999999998246 L-14.999999999999925 -0.9999999999998246 L-14.999999999999915 1.7541523789077473e-13 L-14.999999999999904 1.0000000000001754 L-14.999999999999893 2.0000000000001754 L-15.999999999999893 2.0000000000001923 L-15.999999999999883 3.0000000000001923 L-16.999999999999883 3.000000000000209 L-16.999999999999904 2.000000000000209 L-16.999999999999925 1.0000000000002092 L-16.999999999999947 2.091660178393795e-13 L-16.999999999999968 -0.9999999999997908 L-15.999999999999968 -0.9999999999998183 L-15.99999999999999 -1.9999999999998184 L-14.99999999999999 -1.999999999999846 L-15.000000000000014 -0.9999999999998459 L-15.000000000000039 1.5409895581797173e-13 L-16.00000000000004 1.923166016802814e-13 L-17.00000000000004 2.3053424754259105e-13 L-17.00000000000008 -0.9999999999997695 L-18.00000000000008 -0.9999999999997313 L-18.000000000000124 -1.9999999999997313 L-17.000000000000124 -1.9999999999997236 L-16.000000000000124 -1.9999999999997158 L-16.000000000000167 -2.999999999999716 L-16.00000000000021 -3.999999999999716 L-15.00000000000021 -3.999999999999708 L-15.000000000000254 -4.999999999999708 L-14.000000000000254 -4.9999999999997 L-14.000000000000256 -3.9999999999997 L-14.000000000000258 -2.9999999999997 L-15.000000000000258 -2.9999999999996967 L-16.000000000000256 -2.9999999999996936 L-16.000000000000263 -3.9999999999996936 L-17.000000000000263 -3.9999999999996905 L-17.00000000000027 -4.999999999999691 L-16.00000000000027 -4.999999999999704 L-15.00000000000027 -4.999999999999718 L-15.00000000000025 -3.9999999999997176 L-15.000000000000231 -2.9999999999997176 L-16.00000000000023 -2.999999999999693 L-16.000000000000213 -1.9999999999996931 L-17.000000000000213 -1.9999999999996687 L-17.00000000000024 -2.9999999999996687 L-17.00000000000027 -3.9999999999996687 L-17.0000000000003 -4.999999999999669 L-17.000000000000327 -5.999999999999669 L-16.000000000000327 -5.999999999999704 L-16.000000000000355 -6.999999999999704 L-15.000000000000355 -6.99999999999974 L-15.000000000000371 -5.99999999999974 L-15.000000000000387 -4.99999999999974 L-16.000000000000387 -4.99999999999975 L-17.000000000000387 -4.999999999999761 L-17.000000000000437 -5.999999999999761 L-18.000000000000437 -5.999999999999772 L-18.000000000000487 -6.999999999999772 L-17.000000000000487 -6.999999999999772 L-16.000000000000487 -6.999999999999772 L-15.000000000000487 -6.999999999999772 L-14.000000000000487 -6.999999999999772 L-14.000000000000481 -5.999999999999772 L-13.000000000000481 -5.999999999999772 L-13.000000000000476 -4.999999999999772 L-14.000000000000476 -4.999999999999704 L-15.000000000000476 -4.999999999999637 L-15.000000000000492 -5.999999999999637 L-15.000000000000508 -6.999999999999637 L-14.000000000000508 -6.999999999999658 L-14.000000000000524 -7.999999999999658 L-13.000000000000524 -7.999999999999679 L-13.000000000000497 -6.999999999999679 L-13.00000000000047 -5.999999999999679 L-12.00000000000047 -5.999999999999701 L-11.00000000000047 -5.999999999999722 L-11.000000000000444 -4.999999999999722 L-10.000000000000444 -4.999999999999743 L-10.000000000000417 -3.9999999999997433 L-11.000000000000417 -3.999999999999711 L-12.000000000000417 -3.9999999999996785 L-12.000000000000398 -4.9999999999996785 L-12.000000000000378 -5.9999999999996785 L-11.000000000000378 -5.999999999999665 L-11.000000000000359 -6.999999999999665 L-10.000000000000359 -6.999999999999652 L-10.00000000000031 -5.999999999999652 L-10.000000000000263 -4.999999999999652 L-11.000000000000263 -4.9999999999996545 L-12.000000000000263 -4.999999999999657 L-12.000000000000265 -5.999999999999657 L-13.000000000000265 -5.99999999999966 L-13.000000000000266 -6.99999999999966 L-12.000000000000266 -6.999999999999725 L-11.000000000000266 -6.9999999999997895 L-10.000000000000266 -6.999999999999854 L-9.000000000000266 -6.999999999999919 L-9.000000000000254 -5.999999999999919 L-8.000000000000254 -5.999999999999984 L-8.000000000000242 -4.999999999999984 L-9.000000000000242 -4.999999999999965 L-10.000000000000242 -4.999999999999947 L-11.000000000000242 -4.999999999999928 L-12.000000000000242 -4.999999999999909 L-12.00000000000021 -5.999999999999909 L-13.00000000000021 -5.999999999999891 L-13.000000000000178 -6.999999999999891 L-12.000000000000178 -6.99999999999992 L-11.000000000000178 -6.999999999999949 L-10.000000000000178 -6.999999999999979 L-9.000000000000178 -7.000000000000008 L-9.000000000000142 -6.000000000000008 L-8.000000000000142 -6.000000000000037 L-8.000000000000107 -5.000000000000037 L-9.000000000000107 -5.000000000000054 L-10.000000000000107 -5.000000000000071 L-10.000000000000153 -6.000000000000071 L-10.000000000000199 -7.000000000000071 L-9.000000000000199 -7.000000000000065 L-9.000000000000245 -8.000000000000064 L-8.000000000000245 -8.000000000000059 L-8.000000000000245 -7.000000000000059 L-8.000000000000245 -6.000000000000059 L-7.000000000000245 -6.000000000000052 L-6.000000000000245 -6.000000000000046 L-6.000000000000246 -5.000000000000046 L-5.000000000000246 -5.00000000000004 L-5.000000000000247 -4.00000000000004 L-6.000000000000247 -3.9999999999999782 L-7.000000000000247 -3.9999999999999165 L-7.000000000000258 -4.9999999999999165 L-7.000000000000268 -5.9999999999999165 L-6.000000000000268 -5.9999999999999325 L-6.000000000000279 -6.9999999999999325 L-5.000000000000279 -6.9999999999999485 L-5.000000000000314 -5.9999999999999485 L-5.00000000000035 -4.9999999999999485 L-6.00000000000035 -4.999999999999922 L-7.00000000000035 -4.999999999999895 L-7.000000000000382 -5.999999999999895 L-8.000000000000382 -5.9999999999998685 L-8.000000000000414 -6.9999999999998685 L-7.000000000000414 -6.999999999999849 L-6.000000000000414 -6.9999999999998295 L-5.000000000000414 -6.99999999999981 L-4.000000000000414 -6.99999999999979 L-4.000000000000371 -5.99999999999979 L-3.0000000000003713 -5.999999999999771 L-3.0000000000003286 -4.999999999999771 L-4.000000000000329 -4.999999999999723 L-5.000000000000329 -4.999999999999675 L-5.000000000000325 -5.999999999999675 L-5.0000000000003215 -6.999999999999675 L-4.0000000000003215 -6.999999999999677 L-4.000000000000318 -7.999999999999677 L-3.000000000000318 -7.9999999999996785 L-3.0000000000003104 -6.9999999999996785 L-3.000000000000303 -5.9999999999996785 L-3.0000000000002953 -4.9999999999996785 L-3.0000000000002878 -3.9999999999996785 L-4.000000000000288 -3.9999999999996656 L-4.000000000000281 -2.9999999999996656 L-5.000000000000281 -2.9999999999996527 L-5.000000000000242 -3.9999999999996527 L-5.0000000000002025 -4.999999999999653 L-4.0000000000002025 -4.999999999999676 L-3.0000000000002025 -4.999999999999699 L-3.0000000000001736 -3.999999999999699 L-2.0000000000001736 -3.9999999999997224 L-2.0000000000001448 -2.9999999999997224 L-3.0000000000001448 -2.999999999999745 L-4.000000000000145 -2.9999999999997677 L-4.0000000000001155 -1.9999999999997677 L-4.000000000000086 -0.9999999999997677 L-5.000000000000086 -0.9999999999997903 L-5.000000000000057 2.0972112935169207e-13 L-6.000000000000057 1.8717401067337583e-13 L-6.000000000000097 -0.9999999999998128 L-6.000000000000137 -1.9999999999998128 L-5.000000000000137 -1.999999999999858 L-4.000000000000137 -1.999999999999903 L-4.000000000000143 -0.999999999999903 L-3.000000000000143 -0.999999999999948 L-3.000000000000149 5.1958437552457326e-14 L-4.000000000000149 5.097253030677356e-14 L-5.000000000000149 4.99866230610898e-14 L-5.0000000000002105 -0.99999999999995 L-5.000000000000272 -1.99999999999995 L-4.000000000000272 -1.9999999999999598 L-4.000000000000333 -2.99999999999996 L-3.000000000000333 -2.99999999999997 L-3.000000000000318 -1.9999999999999698 L-3.000000000000303 -0.9999999999999698 L-3.0000000000002878 3.019806626980426e-14 L-3.0000000000002727 1.0000000000000302 L-4.000000000000273 1.0000000000001077 L-4.000000000000258 2.0000000000001075 L-5.000000000000258 2.0000000000001847 L-5.000000000000283 1.0000000000001847 L-5.000000000000309 1.8474111129762605e-13 L-6.000000000000309 2.621598343453828e-13 L-7.000000000000309 3.395785573931395e-13 L-7.000000000000335 -0.9999999999996604 L-8.000000000000334 -0.999999999999583 L-8.00000000000036 -1.999999999999583 L-7.000000000000361 -1.9999999999996143 L-6.000000000000361 -1.9999999999996456 L-5.000000000000361 -1.999999999999677 L-4.000000000000361 -1.9999999999997082 L-4.000000000000381 -0.9999999999997082 L-3.000000000000381 -0.9999999999997395 L-3.000000000000401 2.604583215770617e-13 L-4.0000000000004015 3.025948371966429e-13 L-5.0000000000004015 3.447313528162241e-13 L-5.000000000000393 -0.9999999999996553 L-5.000000000000384 -1.9999999999996554 L-4.000000000000384 -1.9999999999996514 L-4.000000000000375 -2.9999999999996514 L-3.000000000000375 -2.9999999999996474 L-3.0000000000003166 -1.9999999999996474 L-3.0000000000002585 -0.9999999999996474 L-2.0000000000002585 -0.9999999999996435 L-1.0000000000002585 -0.9999999999996396 L-1.0000000000002 3.603783937933258e-13 L-2.000621890374532e-13 3.6430469131823643e-13 L-1.4175476484339768e-13 1.0000000000003644 L-1.0000000000001417 1.0000000000003713 L-2.0000000000001417 1.0000000000003781 L-2.000000000000154 3.781419621873283e-13 L-2.0000000000001665 -0.9999999999996219 L-1.0000000000001665 -0.9999999999996964 L-1.0000000000001787 -1.9999999999996962 L-1.787459069646502e-13 -1.9999999999997706 L-1.557206901987702e-13 -0.9999999999997706 L-1.3269547343289022e-13 2.2937207688755734e-13 L-1.0000000000001328 2.5778759651159547e-13 L-2.000000000000133 2.862031161356336e-13 L-2.0000000000001097 -0.9999999999997138 L-3.0000000000001097 -0.9999999999996854 L-3.0000000000000866 -1.9999999999996854 L-2.0000000000000866 -1.9999999999997247 L-1.0000000000000866 -1.999999999999764 L-8.659739592076221e-14 -1.9999999999998033 L0.9999999999999134 -1.9999999999998426 L0.999999999999958 -0.9999999999998426 L1.999999999999958 -0.9999999999998818 L2.0000000000000027 1.1823875212257917e-13 L1.0000000000000027 1.1137206431844176e-13 L2.6645352591003757e-15 1.0450537651430434e-13 L-5.2702498655728344e-14 -0.9999999999998955 L-1.0806953257055706e-13 -1.9999999999998956 L0.999999999999892 -1.9999999999998996 L0.9999999999998366 -2.9999999999998996 L1.9999999999998366 -2.9999999999999036 L1.999999999999846 -1.9999999999999036 L1.9999999999998552 -0.9999999999999036 L1.9999999999998646 9.636735853746359e-14 L1.9999999999998739 1.0000000000000964 L0.9999999999998739 1.0000000000000542 L0.9999999999998832 2.000000000000054 L-1.1679546219056647e-13 2.000000000000012 L-1.3688028867721966e-13 1.000000000000012 L-1.5696511516387285e-13 1.199040866595169e-14 L0.999999999999843 -1.3484720678859609e-14 L1.999999999999843 -3.895985002367091e-14 L1.999999999999817 0.999999999999961 L2.999999999999817 0.9999999999999356 L2.9999999999997913 1.9999999999999356 L1.9999999999997913 1.9999999999999718 L0.9999999999997913 2.000000000000008 L0.9999999999997653 3.000000000000008 L0.9999999999997393 4.000000000000008 L-2.6068036618198676e-13 4.000000000000044 L-2.8665835283982536e-13 5.000000000000044 L-1.0000000000002867 5.000000000000081 L-1.0000000000003284 4.000000000000081 L-1.0000000000003701 3.000000000000081 L-3.701483564100272e-13 3.0000000000000906 L0.9999999999996299 3.0000000000001004 L0.9999999999996823 4.0000000000001 L1.9999999999996823 4.00000000000011 L1.9999999999997347 5.00000000000011 L0.9999999999997347 5.000000000000168 L-2.653433028854124e-13 5.000000000000226 L-2.7170713337652254e-13 4.000000000000226 L-2.7807096386763267e-13 3.0000000000002256 L0.9999999999997219 3.000000000000214 L0.9999999999997156 2.000000000000214 L1.9999999999997156 2.0000000000002025 L1.9999999999997327 3.0000000000002025 L1.9999999999997498 4.0000000000002025 L1.9999999999997669 5.0000000000002025 L1.999999999999784 6.0000000000002025 L0.999999999999784 6.000000000000225 L0.999999999999801 7.000000000000225 L-1.9895196601282805e-13 7.000000000000247 L-1.7003358907576264e-13 6.000000000000247 L-1.4111521213869723e-13 5.000000000000247 L0.9999999999998589 5.000000000000213 L1.9999999999998588 5.000000000000179 L1.9999999999998974 6.000000000000179 L2.9999999999998974 6.000000000000146 L2.999999999999936 7.000000000000146 L1.999999999999936 7.000000000000133 L0.999999999999936 7.000000000000121 L-6.394884621840902e-14 7.000000000000108 L-1.000000000000064 7.000000000000096 L-1.0000000000000566 6.000000000000096 L-2.000000000000057 6.0000000000000835 L-2.0000000000000493 5.0000000000000835 L-1.0000000000000493 5.000000000000028 L-4.929390229335695e-14 4.999999999999973 L-4.587046208147366e-14 5.999999999999973 L-4.2447021869590366e-14 6.999999999999973 L-1.0000000000000424 6.999999999999982 L-1.000000000000039 7.999999999999982 L-2.000000000000039 7.999999999999991 L-2.00000000000011 6.999999999999991 L-2.000000000000181 5.999999999999991 L-3.000000000000181 6 L-4.000000000000181 6.000000000000009 L-4.000000000000252 5.000000000000009 L-5.000000000000252 5.000000000000018 L-5.000000000000323 4.000000000000018 L-4.000000000000323 3.9999999999999982 L-3.0000000000003233 3.9999999999999787 L-3.0000000000002984 4.999999999999979 L-3.0000000000002736 5.999999999999979 L-4.000000000000274 5.999999999999952 L-4.000000000000249 6.999999999999952 L-5.000000000000249 6.999999999999925 L-5.000000000000284 5.999999999999925 L-5.00000000000032 4.999999999999925 L-4.00000000000032 4.9999999999998845 L-3.0000000000003197 4.999999999999844 L-3.00000000000033 5.999999999999844 L-2.00000000000033 5.999999999999803 L-2.00000000000034 6.999999999999803 L-3.00000000000034 6.999999999999854 L-4.00000000000034 6.999999999999906 L-5.00000000000034 6.999999999999957 L-6.00000000000034 7.000000000000009 L-6.000000000000341 6.000000000000009 L-7.000000000000341 6.00000000000006 L-7.000000000000342 5.00000000000006 L-6.000000000000342 5.000000000000111 L-5.000000000000342 5.000000000000162 L-4.000000000000342 5.000000000000212 L-3.000000000000342 5.000000000000263 L-3.000000000000331 6.000000000000263 L-2.000000000000331 6.0000000000003135 L-2.0000000000003197 7.0000000000003135 L-3.0000000000003197 7.000000000000387 L-4.00000000000032 7.000000000000461 L-5.00000000000032 7.000000000000535 L-6.00000000000032 7.000000000000608 L-6.000000000000342 6.000000000000608 L-7.000000000000342 6.000000000000682 L-7.000000000000364 5.000000000000682 L-6.000000000000364 5.000000000000711 L-5.000000000000364 5.000000000000741 L-5.000000000000331 6.000000000000741 L-5.000000000000298 7.000000000000741 L-6.000000000000298 7.000000000000722 L-6.000000000000266 8.000000000000721 L-7.000000000000266 8.000000000000703 L-7.000000000000309 7.000000000000703 L-7.000000000000353 6.000000000000703 L-8.000000000000352 6.000000000000685 L-9.000000000000352 6.000000000000666 L-9.000000000000396 5.000000000000666 L-10.000000000000396 5.0000000000006475 L-10.00000000000044 4.0000000000006475 L-9.00000000000044 4.000000000000542 L-8.00000000000044 4.000000000000436 L-8.000000000000385 5.000000000000436 L-8.00000000000033 6.000000000000436 L-9.00000000000033 6.000000000000439 L-9.000000000000275 7.000000000000439 L-10.000000000000275 7.000000000000441 L-10.000000000000227 6.000000000000441 L-10.00000000000018 5.000000000000441 L-9.00000000000018 5.000000000000428 L-8.00000000000018 5.000000000000415 L-8.000000000000217 6.000000000000415 L-7.000000000000217 6.0000000000004015 L-7.000000000000254 7.0000000000004015 L-8.000000000000254 7.000000000000426 L-9.000000000000254 7.000000000000451 L-10.000000000000254 7.000000000000476 L-11.000000000000254 7.000000000000501 L-11.000000000000341 6.000000000000501 L-12.000000000000341 6.000000000000526 L-12.000000000000428 5.000000000000526 L-11.000000000000428 5.00000000000049 L-10.000000000000428 5.000000000000455 L-10.000000000000444 6.000000000000455 L-10.00000000000046 7.000000000000455 L-11.00000000000046 7.000000000000501 L-11.000000000000476 8.000000000000501 L-12.000000000000476 8.000000000000547 L-12.00000000000047 7.000000000000547 L-12.000000000000465 6.000000000000547 L-12.00000000000046 5.000000000000547 L-12.000000000000455 4.000000000000547 L-11.000000000000455 4.00000000000049 L-11.00000000000045 3.0000000000004903 L-10.00000000000045 3.0000000000004334 L-10.000000000000444 4.000000000000433 L-10.000000000000439 5.000000000000433 L-11.000000000000439 5.000000000000501 L-12.000000000000439 5.000000000000568 L-12.000000000000455 4.000000000000568 L-13.000000000000455 4.000000000000636 L-13.00000000000047 3.000000000000636 L-12.00000000000047 3.000000000000671 L-11.00000000000047 3.000000000000706 L-11.000000000000487 2.000000000000706 L-11.000000000000503 1.000000000000706 L-10.000000000000503 1.0000000000007414 L-10.000000000000519 7.414069358446795e-13 L-9.000000000000519 7.766965710404942e-13 L-9.000000000000492 1.0000000000007767 L-9.000000000000465 2.0000000000007767 L-10.000000000000465 2.0000000000007523 L-11.000000000000465 2.000000000000728 L-11.000000000000503 1.0000000000007279 L-12.000000000000503 1.0000000000007034 L-12.00000000000054 7.034373084024992e-13 L-11.00000000000054 7.171657321656813e-13 L-10.00000000000054 7.308941559288634e-13 L-10.000000000000492 1.000000000000731 L-10.000000000000444 2.000000000000731 L-11.000000000000444 2.000000000000728 L-11.000000000000396 3.000000000000728 L-12.000000000000396 3.0000000000007248 L-12.000000000000341 2.0000000000007248 L-12.000000000000286 1.0000000000007248 L-12.000000000000231 7.247535904753022e-13 L-12.000000000000176 -0.9999999999992752 L-11.000000000000176 -0.9999999999992831 L-11.00000000000012 -1.9999999999992832 L-10.00000000000012 -1.999999999999291 L-10.000000000000052 -0.999999999999291 L-9.999999999999982 7.08988423525625e-13 L-9.999999999999913 1.000000000000709 L-9.999999999999844 2.0000000000007088 L-10.999999999999844 2.0000000000007274 L-10.999999999999774 3.0000000000007274 L-11.999999999999774 3.000000000000746 L-11.999999999999856 2.000000000000746 L-11.999999999999938 1.000000000000746 L-12.00000000000002 7.460698725481052e-13 L-12.000000000000101 -0.9999999999992539 L-11.000000000000101 -0.9999999999992834 L-11.000000000000183 -1.9999999999992832 L-10.000000000000183 -1.9999999999993125 L-10.000000000000204 -0.9999999999993125 L-10.000000000000226 6.874500968478969e-13 L-11.000000000000226 7.27624701666296e-13 L-12.000000000000226 7.677993064846952e-13 L-12.000000000000329 -0.9999999999992322 L-13.000000000000329 -0.999999999999192 L-13.000000000000432 -1.999999999999192 L-12.000000000000432 -1.9999999999992428 L-11.000000000000432 -1.9999999999992937 L-11.000000000000535 -2.999999999999294 L-11.000000000000638 -3.999999999999294 L-10.000000000000638 -3.999999999999345 L-10.00000000000074 -4.9999999999993445 L-9.00000000000074 -4.999999999999395 L-9.00000000000074 -3.999999999999395 L-9.00000000000074 -2.999999999999395 L-10.00000000000074 -2.9999999999993334 L-11.00000000000074 -2.9999999999992717 L-11.000000000000751 -3.9999999999992717 L-12.000000000000751 -3.99999999999921 L-12.000000000000762 -4.9999999999992095 L-11.000000000000762 -4.999999999999169 L-10.000000000000762 -4.999999999999128 L-10.00000000000074 -3.999999999999128 L-10.00000000000072 -2.999999999999128 L-11.00000000000072 -2.9999999999990443 L-11.000000000000698 -1.9999999999990443 L-12.000000000000698 -1.999999999998961 L-12.00000000000073 -2.999999999998961 L-12.000000000000762 -3.999999999998961 L-12.000000000000794 -4.999999999998961 L-12.000000000000826 -5.999999999998961 L-11.000000000000826 -5.999999999998941 L-11.000000000000858 -6.999999999998941 L-10.000000000000858 -6.999999999998922 L-10.000000000000815 -5.999999999998922 L-10.000000000000773 -4.999999999998922 L-11.000000000000773 -4.999999999998931 L-12.000000000000773 -4.9999999999989395 L-12.000000000000826 -5.9999999999989395 L-13.000000000000826 -5.999999999998948 L-13.00000000000088 -6.999999999998948 L-12.00000000000088 -6.999999999999064 L-11.00000000000088 -6.999999999999179 L-10.00000000000088 -6.999999999999295 L-9.00000000000088 -6.99999999999941 L-9.000000000000815 -5.99999999999941 L-8.000000000000815 -5.999999999999526 L-8.000000000000751 -4.999999999999526 L-9.000000000000751 -4.999999999999513 L-10.000000000000751 -4.999999999999501 L-10.000000000000712 -5.999999999999501 L-10.000000000000673 -6.999999999999501 L-9.000000000000673 -6.999999999999524 L-9.000000000000634 -7.999999999999524 L-8.000000000000634 -7.999999999999547 L-8.000000000000663 -6.999999999999547 L-8.000000000000691 -5.999999999999547 L-7.000000000000691 -5.99999999999957 L-6.000000000000691 -5.999999999999593 L-6.0000000000007185 -4.999999999999593 L-5.0000000000007185 -4.999999999999616 L-5.000000000000746 -3.9999999999996163 L-6.000000000000746 -3.999999999999582 L-7.000000000000746 -3.999999999999548 L-7.000000000000843 -4.999999999999548 L-7.00000000000094 -5.999999999999548 L-6.00000000000094 -5.999999999999593 L-6.0000000000010365 -6.999999999999593 L-5.0000000000010365 -6.9999999999996385 L-5.000000000001043 -5.9999999999996385 L-5.000000000001049 -4.9999999999996385 L-6.000000000001049 -4.999999999999696 L-7.000000000001049 -4.999999999999754 L-7.000000000001053 -5.999999999999754 L-8.000000000001053 -5.999999999999812 L-8.000000000001057 -6.999999999999812 L-7.000000000001057 -6.999999999999878 L-6.000000000001057 -6.999999999999945 L-5.000000000001057 -7.0000000000000115 L-4.000000000001057 -7.000000000000078 L-4.000000000001042 -6.000000000000078 L-3.000000000001042 -6.000000000000145 L-3.0000000000010267 -5.000000000000145 L-4.000000000001027 -5.0000000000000675 L-5.000000000001027 -4.99999999999999 L-5.000000000001012 -3.9999999999999902 L-5.0000000000009965 -2.9999999999999902 L-6.0000000000009965 -2.999999999999913 L-6.000000000000981 -1.999999999999913 L-7.000000000000981 -1.9999999999998355 L-7.000000000001007 -2.9999999999998357 L-7.000000000001033 -3.9999999999998357 L-7.000000000001059 -4.999999999999836 L-7.0000000000010845 -5.999999999999836 L-6.0000000000010845 -5.99999999999981 L-6.00000000000111 -6.99999999999981 L-5.00000000000111 -6.999999999999784 L-5.000000000001074 -5.999999999999784 L-5.000000000001037 -4.999999999999784 L-6.000000000001037 -4.999999999999799 L-7.000000000001037 -4.999999999999814 L-7.000000000001085 -5.999999999999814 L-8.000000000001085 -5.9999999999998295 L-8.000000000001133 -6.9999999999998295 L-7.000000000001133 -6.999999999999826 L-6.000000000001133 -6.999999999999822 L-6.000000000001181 -7.999999999999822 L-6.000000000001229 -8.999999999999822 L-5.000000000001229 -8.999999999999819 L-5.000000000001277 -9.999999999999819 L-4.000000000001277 -9.999999999999815 L-4.000000000001219 -8.999999999999815 L-4.00000000000116 -7.999999999999815 L-5.00000000000116 -7.999999999999808 L-6.00000000000116 -7.999999999999801 L-6.0000000000011156 -8.999999999999801 L-7.0000000000011156 -8.999999999999794 L-7.000000000001071 -9.999999999999794 L-6.000000000001071 -9.999999999999812 L-5.000000000001071 -9.99999999999983 L-5.000000000000991 -8.99999999999983 L-5.000000000000911 -7.9999999999998295 L-6.000000000000911 -7.999999999999801 L-6.000000000000831 -6.999999999999801 L-7.000000000000831 -6.999999999999773 L-7.000000000000808 -7.999999999999773 L-7.000000000000785 -8.999999999999773 L-7.000000000000762 -9.999999999999773 L-7.000000000000739 -10.999999999999773 L-6.000000000000739 -10.999999999999812 L-6.000000000000716 -11.999999999999812 L-5.000000000000716 -11.99999999999985 L-5.000000000000728 -10.99999999999985 L-5.000000000000741 -9.99999999999985 L-6.000000000000741 -9.999999999999801 L-7.000000000000741 -9.999999999999751 L-7.000000000000853 -10.999999999999751 L-8.000000000000853 -10.999999999999702 L-8.000000000000965 -11.999999999999702 L-7.000000000000965 -11.999999999999762 L-6.000000000000965 -11.999999999999822 L-5.000000000000965 -11.999999999999883 L-4.000000000000965 -11.999999999999943 L-4.000000000000956 -10.999999999999943 L-3.0000000000009557 -11.000000000000004 L-3.0000000000009464 -10.000000000000004 L-4.000000000000947 -10.000000000000046 L-5.000000000000947 -10.000000000000089 L-5.000000000000967 -11.000000000000089 L-5.000000000000988 -12.000000000000089 L-4.000000000000988 -12.000000000000057 L-4.000000000001008 -13.000000000000057 L-3.000000000001008 -13.000000000000025 L-3.0000000000009774 -12.000000000000025 L-3.000000000000947 -11.000000000000025 L-2.000000000000947 -10.999999999999993 L-1.0000000000009468 -10.999999999999961 L-1.000000000000916 -9.999999999999961 L-9.159339953157541e-13 -9.999999999999929 L-8.850710390353311e-13 -8.999999999999929 L-1.000000000000885 -8.999999999999837 L-2.000000000000885 -8.999999999999744 L-2.000000000000927 -9.999999999999744 L-2.0000000000009686 -10.999999999999744 L-1.0000000000009686 -10.999999999999734 L-1.0000000000010103 -11.999999999999734 L-1.0103029524088925e-12 -11.999999999999723 L-9.57878784695837e-13 -10.999999999999723 L-9.054546169827814e-13 -9.999999999999723 L-1.0000000000009055 -9.999999999999721 L-2.0000000000009055 -9.99999999999972 L-2.0000000000009686 -10.99999999999972 L-3.0000000000009686 -10.999999999999718 L-3.0000000000010316 -11.999999999999718 L-2.0000000000010316 -11.99999999999973 L-1.0000000000010316 -11.999999999999742 L-1.0316192344816955e-12 -11.999999999999755 L0.9999999999989684 -11.999999999999767 L0.9999999999990423 -10.999999999999767 L1.9999999999990423 -10.99999999999978 L1.9999999999991163 -9.99999999999978 L0.9999999999991163 -9.999999999999757 L-8.837375276016246e-13 -9.999999999999734 L-8.548166747420128e-13 -10.999999999999734 L-8.258958218824011e-13 -11.999999999999734 L0.9999999999991741 -11.999999999999767 L0.999999999999203 -12.999999999999767 L1.9999999999992029 -12.999999999999801 L1.9999999999991847 -11.999999999999801 L1.9999999999991664 -10.999999999999801 L1.9999999999991482 -9.999999999999801 L1.99999999999913 -8.999999999999801 L0.99999999999913 -8.999999999999757 L0.9999999999991119 -7.999999999999757 L-8.880673973976627e-13 -7.999999999999712 L-8.807077559706834e-13 -8.999999999999712 L-8.73348114543704e-13 -9.999999999999712 L0.9999999999991267 -9.999999999999767 L1.9999999999991267 -9.999999999999822 L1.99999999999913 -8.999999999999822 L2.99999999999913 -8.999999999999877 L2.9999999999991336 -7.999999999999877 L1.9999999999991336 -7.999999999999925 L0.9999999999991336 -7.999999999999973 L0.999999999999137 -6.999999999999973 L0.9999999999991405 -5.999999999999973 L-8.595346656647962e-13 -6.000000000000021 L-8.561137013754593e-13 -5.000000000000021 L-1.0000000000008562 -5.000000000000069 L-1.0000000000008704 -6.000000000000069 L-1.0000000000008846 -7.000000000000069 L-8.846257060213247e-13 -7.000000000000146 L0.9999999999991154 -7.000000000000222 L0.9999999999991404 -6.000000000000222 L1.9999999999991402 -6.000000000000298 L1.9999999999991653 -5.000000000000298 L0.9999999999991653 -5.000000000000211 L-8.346656699131927e-13 -5.000000000000124 L-8.704284513514783e-13 -6.000000000000124 L-9.061912327897639e-13 -7.000000000000124 L0.9999999999990938 -7.000000000000108 L0.9999999999990581 -8.000000000000108 L1.999999999999058 -8.000000000000092 L1.9999999999991047 -7.000000000000092 L1.9999999999991513 -6.000000000000092 L1.999999999999198 -5.000000000000092 L1.9999999999992446 -4.000000000000092 L0.9999999999992446 -4.000000000000098 L0.9999999999992911 -3.0000000000000977 L-7.088774012231625e-13 -3.0000000000001026 L-7.662013940940806e-13 -4.000000000000103 L-8.235253869649987e-13 -5.000000000000103 L-8.808493798359168e-13 -6.000000000000103 L-9.38173372706835e-13 -7.000000000000103 L0.9999999999990619 -7.000000000000109 L0.9999999999990046 -8.00000000000011 L1.9999999999990046 -8.000000000000115 L1.9999999999990727 -7.0000000000001155 L1.999999999999141 -6.0000000000001155 L1.999999999999209 -5.0000000000001155 L1.9999999999992772 -4.0000000000001155 L0.9999999999992772 -4.000000000000099 L0.9999999999993453 -3.0000000000000986 L-6.546985176214548e-13 -3.000000000000082 L-6.198968842033894e-13 -4.000000000000082 L-5.850952507853241e-13 -5.000000000000082 L0.9999999999994149 -5.000000000000109 L1.999999999999415 -5.000000000000137 L1.9999999999995046 -4.000000000000137 L2.9999999999995044 -4.000000000000164 L2.999999999999594 -3.0000000000001643 L1.999999999999594 -3.000000000000126 L0.9999999999995941 -3.000000000000088 L0.9999999999996838 -2.000000000000088 L0.9999999999997735 -1.000000000000088 L-2.2648549702353193e-13 -1.0000000000000497 L-1.368196870036651e-13 -4.973799150320701e-14 L-1.0000000000001368 -1.1525297485990064e-14 L-1.0000000000001235 -1.0000000000000115 L-1.0000000000001101 -2.0000000000000115 L-1.1013412404281553e-13 -2.0000000000000604 L0.9999999999998899 -2.0000000000001092 L0.9999999999998874 -1.0000000000001092 L1.9999999999998874 -1.0000000000001583 L1.999999999999885 -1.5831780331154732e-13 L0.999999999999885 -9.85438978616979e-14 L-1.1501910535116622e-13 -3.876999241184847e-14 L-2.370267325199818e-13 -1.0000000000000389 L-3.5903435968879733e-13 -2.000000000000039 L0.999999999999641 -2.0000000000001097 L0.9999999999995189 -3.0000000000001097 L1.999999999999519 -3.0000000000001803 L1.9999999999995381 -2.0000000000001803 L1.9999999999995572 -1.0000000000001803 L1.9999999999995763 -1.8030021919912542e-13 L1.9999999999995954 0.9999999999998197 L0.9999999999995954 0.9999999999997874 L0.9999999999996145 1.9999999999997873 L-3.8546943414985435e-13 1.9999999999997549 L-4.1535143502968636e-13 0.9999999999997549 L-4.4523343590951836e-13 -2.4513724383723456e-13" stroke-width="0.2"></path></g></svg>