<svg viewBox="0 0 211 100" fill="none" stroke="black" stroke-linecap="round" stroke-linejoin="round" id="frame" stroke-width="0.4" width="297mm" height="210mm" xmlns="http://www.w3.org/2000/svg"><g transform=""><path d="M 10, 0 L 12, 0 L 14, 0 L 16, 0 L 18, 0 L 20, 0 L 22, 0 L 24, 0 L 26, 0 L 28, 0 L 30, 0 L 32, 0 L 34, 0 L 36, 0 L 38, 0 L 40, 0 L 42, 0 L 44, 0 L 46, 0 L 48, 0 L 50, 0 L 52, 0 L 54, 0 L 56, 0 L 58, 0 L 60, 0 L 62, 0 L 64, 0 L 66, 0 L 68, 0 L 70, 0 L 72, 0 L 74, 0 L 76, 0 L 78, 0 L 80, 0 L 82, 0 L 84, 0 L 86, 0 L 88, 0 L 90, 0 L 92, 0 L 94, 0 L 96, 0 L 98, 0 L 100, 0 L 102, 0 L 104, 0 L 106, 0 L 108, 0 L 110, 0 L 112, 0 L 114, 0 L 116, 0 L 118, 0 L 120, 0 L 122, 0 L 124, 0 L 126, 0 L 128, 0 L 130, 0 L 132, 0 L 134, 0 L 136, 0 L 138, 0 L 140, 0 L 142, 0 L 144, 0 L 146, 0 L 148, 0 L 150, 0 L 152, 0 L 154, 0 L 156, 0 L 158, 0 L 160, 0 L 162, 0 L 164, 0 L 166, 0 L 168, 0 L 170, 0 L 172, 0 L 174, 0 L 176, 0 L 178, 0 L 180, 0 L 182, 0 L 184, 0 L 186, 0 L 188, 0 L 190, 0 L 192, 0 L 194, 0 L 196, 0 L 198, 0 L 200, 0 L 202, 0 L 204, 0 L 206, 0 L 208, 0 L 210, 0"></path><path d="M 10, 1 L 12, 1 L 14, 1 L 16, 1 L 18, 1 L 20, 1 L 22, 1 L 24, 1 L 26, 1 L 28, 1 L 30, 1 L 32, 1 L 34, 1 L 36, 1 L 38, 1 L 40, 1 L 42, 1 L 44, 1 L 46, 1 L 48, 1 L 50, 1 L 52, 1 L 54, 1 L 56, 1 L 58, 1 L 60, 1 L 62, 1 L 64, 1 L 66, 1 L 68, 1 L 70, 1 L 72, 1 L 74, 1 L 76, 1 L 78, 1 L 80, 1 L 82, 1 L 84, 1 L 86, 1 L 88, 1 L 90, 1 L 92, 1 L 94, 1 L 96, 1 L 98, 1 L 100, 1 L 102, 1 L 104, 1 L 106, 1 L 108, 1 L 110, 1 L 112, 1 L 114, 1 L 116, 1 L 118, 1 L 120, 1 L 122, 1 L 124, 1 L 126, 1 L 128, 1 L 130, 1 L 132, 1 L 134, 1 L 136, 1 L 138, 1 L 140, 1 L 142, 1 L 144, 1 L 146, 1 L 148, 1 L 150, 1 L 152, 1 L 154, 1 L 156, 1 L 158, 1 L 160, 1 L 162, 1 L 164, 1 L 166, 1 L 168, 1 L 170, 1 L 172, 1 L 174, 1 L 176, 1 L 178, 1 L 180, 1 L 182, 1 L 184, 1 L 186, 1 L 188, 1 L 190, 1 L 192, 1 L 194, 1 L 196, 1 L 198, 1 L 200, 1 L 202, 1 L 204, 1 L 206, 1 L 208, 1 L 210, 1"></path><path d="M 10, 2 L 12, 2 L 14, 2 L 16, 2 L 18, 2 L 20, 2 L 22, 2 L 24, 2 L 26, 2 L 28, 2 L 30, 2 L 32, 2 L 34, 2 L 36, 2 L 38, 2 L 40, 2 L 42, 2 L 44, 2 L 46, 2 L 48, 2 L 50, 2 L 52, 2 L 54, 2 L 56, 2 L 58, 2 L 60, 2 L 62, 2 L 64, 2 L 66, 2 L 68, 2 L 70, 2 L 72, 2 L 74, 2 L 76, 2 L 78, 2 L 80, 2 L 82, 2 L 84, 2 L 86, 2 L 88, 2 L 90, 2 L 92, 2 L 94, 2 L 96, 2 L 98, 2 L 100, 2 L 102, 2 L 104, 2 L 106, 2 L 108, 2 L 110, 2 L 112, 2 L 114, 2 L 116, 2 L 118, 2 L 120, 2 L 122, 2 L 124, 2 L 126, 2 L 128, 2 L 130, 2 L 132, 2 L 134, 2 L 136, 2 L 138, 2 L 140, 2 L 142, 2 L 144, 2 L 146, 2 L 148, 2 L 150, 2 L 152, 2 L 154, 2 L 156, 2 L 158, 2 L 160, 2 L 162, 2 L 164, 2 L 166, 2 L 168, 2 L 170, 2 L 172, 2 L 174, 2 L 176, 2 L 178, 2 L 180, 2 L 182, 2 L 184, 2 L 186, 2 L 188, 2 L 190, 2 L 192, 2 L 194, 2 L 196, 2 L 198, 2 L 200, 2 L 202, 2 L 204, 2 L 206, 2 L 208, 2 L 210, 2"></path><path d="M 10, 3 L 12, 3 L 14, 3 L 16, 3 L 18, 3 L 20, 3 L 22, 3 L 24, 3 L 26, 3 L 28, 3 L 30, 3 L 32, 3 L 34, 3 L 36, 3 L 38, 3 L 40, 3 L 42, 3 L 44, 3 L 46, 3 L 48, 3 L 50, 3 L 52, 3 L 54, 3 L 56, 3 L 58, 3 L 60, 3 L 62, 3 L 64, 3 L 66, 3 L 68, 3 L 70, 3 L 72, 3 L 74, 3 L 76, 3 L 78, 3 L 80, 3 L 82, 3 L 84, 3 L 86, 3 L 88, 3 L 90, 3 L 92, 3 L 94, 3 L 96, 3 L 98, 3 L 100, 3 L 102, 3 L 104, 3 L 106, 3 L 108, 3 L 110, 3 L 112, 3 L 114, 3 L 116, 3 L 118, 3 L 120, 3 L 122, 3 L 124, 3 L 126, 3 L 128, 3 L 130, 3 L 132, 3 L 134, 3 L 136, 3 L 138, 3 L 140, 3 L 142, 3 L 144, 3 L 146, 3 L 148, 3 L 150, 3 L 152, 3 L 154, 3 L 156, 3 L 158, 3 L 160, 3 L 162, 3 L 164, 3 L 166, 3 L 168, 3 L 170, 3 L 172, 3 L 174, 3 L 176, 3 L 178, 3 L 180, 3 L 182, 3 L 184, 3 L 186, 3 L 188, 3 L 190, 3 L 192, 3 L 194, 3 L 196, 3 L 198, 3 L 200, 3 L 202, 3 L 204, 3 L 206, 3 L 208, 3 L 210, 3"></path><path d="M 10, 4 L 12, 4 L 14, 4 L 16, 4 L 18, 4 L 20, 4 L 22, 4 L 24, 4 L 26, 4 L 28, 4 L 30, 4 L 32, 4 L 34, 4 L 36, 4 L 38, 4 L 40, 4 L 42, 4 L 44, 4 L 46, 4 L 48, 4 L 50, 4 L 52, 4 L 54, 4 L 56, 4 L 58, 4 L 60, 4 L 62, 4 L 64, 4 L 66, 4 L 68, 4 L 70, 4 L 72, 4 L 74, 4 L 76, 4 L 78, 4 L 80, 4 L 82, 4 L 84, 4 L 86, 4 L 88, 4 L 90, 4 L 92, 4 L 94, 4 L 96, 4 L 98, 4 L 100, 4 L 102, 4 L 104, 4 L 106, 4 L 108, 4 L 110, 4 L 112, 4 L 114, 4 L 116, 4 L 118, 4 L 120, 4 L 122, 4 L 124, 4 L 126, 4 L 128, 4 L 130, 4 L 132, 4 L 134, 4 L 136, 4 L 138, 4 L 140, 4 L 142, 4 L 144, 4 L 146, 4 L 148, 4 L 150, 4 L 152, 4 L 154, 4 L 156, 4 L 158, 4 L 160, 4 L 162, 4 L 164, 4 L 166, 4 L 168, 4 L 170, 4 L 172, 4 L 174, 4 L 176, 4 L 178, 4 L 180, 4 L 182, 4 L 184, 4 L 186, 4 L 188, 4 L 190, 4 L 192, 4 L 194, 4 L 196, 4 L 198, 4 L 200, 4 L 202, 4 L 204, 4 L 206, 4 L 208, 4 L 210, 4"></path><path d="M 10, 5 L 12, 5 L 14, 5 L 16, 5 L 18, 5 L 20, 5 L 22, 5 L 24, 5 L 26, 5 L 28, 5 L 30, 5 L 32, 5 L 34, 5 L 36, 5 L 38, 5 L 40, 5 L 42, 5 L 44, 5 L 46, 5 L 48, 5 L 50, 5 L 52, 5 L 54, 5 L 56, 5 L 58, 5 L 60, 5 L 62, 5 L 64, 5 L 66, 5 L 68, 5 L 70, 5 L 72, 5 L 74, 5 L 76, 5 L 78, 5 L 80, 5 L 82, 5 L 84, 5 L 86, 5 L 88, 5 L 90, 5 L 92, 5 L 94, 5 L 96, 5 L 98, 5 L 100, 5 L 102, 5 L 104, 5 L 106, 5 L 108, 5 L 110, 5 L 112, 5 L 114, 5 L 116, 5 L 118, 5 L 120, 5 L 122, 5 L 124, 5 L 126, 5 L 128, 5 L 130, 5 L 132, 5 L 134, 5 L 136, 5 L 138, 5 L 140, 5 L 142, 5 L 144, 5 L 146, 5 L 148, 5 L 150, 5 L 152, 5 L 154, 5 L 156, 5 L 158, 5 L 160, 5 L 162, 5 L 164, 5 L 166, 5 L 168, 5 L 170, 5 L 172, 5 L 174, 5 L 176, 5 L 178, 5 L 180, 5 L 182, 5 L 184, 5 L 186, 5 L 188, 5 L 190, 5 L 192, 5 L 194, 5 L 196, 5 L 198, 5 L 200, 5 L 202, 5 L 204, 5 L 206, 5 L 208, 5 L 210, 5"></path><path d="M 10, 6 L 12, 6 L 14, 6 L 16, 6 L 18, 6 L 20, 6 L 22, 6 L 24, 6 L 26, 6 L 28, 6 L 30, 6 L 32, 6 L 34, 6 L 36, 6 L 38, 6 L 40, 6 L 42, 6 L 44, 6 L 46, 6 L 48, 6 L 50, 6 L 52, 6 L 54, 6 L 56, 6 L 58, 6 L 60, 6 L 62, 6 L 64, 6 L 66, 6 L 68, 6 L 70, 6 L 72, 6 L 74, 6 L 76, 6 L 78, 6 L 80, 6 L 82, 6 L 84, 6 L 86, 6 L 88, 6 L 90, 6 L 92, 6 L 94, 6 L 96, 6 L 98, 6 L 100, 6 L 102, 6 L 104, 6 L 106, 6 L 108, 6 L 110, 6 L 112, 6 L 114, 6 L 116, 6 L 118, 6 L 120, 6 L 122, 6 L 124, 6 L 126, 6 L 128, 6 L 130, 6 L 132, 6 L 134, 6 L 136, 6 L 138, 6 L 140, 6 L 142, 6 L 144, 6 L 146, 6 L 148, 6 L 150, 6 L 152, 6 L 154, 6 L 156, 6 L 158, 6 L 160, 6 L 162, 6 L 164, 6 L 166, 6 L 168, 6 L 170, 6 L 172, 6 L 174, 6 L 176, 6 L 178, 6 L 180, 6 L 182, 6 L 184, 6 L 186, 6 L 188, 6 L 190, 6 L 192, 6 L 194, 6 L 196, 6 L 198, 6 L 200, 6 L 202, 6 L 204, 6 L 206, 6 L 208, 6 L 210, 6"></path><path d="M 10, 7 L 12, 7 L 14, 7 L 16, 7 L 18, 7 L 20, 7 L 22, 7 L 24, 7 L 26, 7 L 28, 7 L 30, 7 L 32, 7 L 34, 7 L 36, 7 L 38, 7 L 40, 7 L 42, 7 L 44, 7 L 46, 7 L 48, 7 L 50, 7 L 52, 7 L 54, 7 L 56, 7 L 58, 7 L 60, 7 L 62, 7 L 64, 7 L 66, 7 L 68, 7 L 70, 7 L 72, 7 L 74, 7 L 76, 7 L 78, 7 L 80, 7 L 82, 7 L 84, 7 L 86, 7 L 88, 7 L 90, 7 L 92, 7 L 94, 7 L 96, 7 L 98, 7 L 100, 7 L 102, 7 L 104, 7 L 106, 7 L 108, 7 L 110, 7 L 112, 7 L 114, 7 L 116, 7 L 118, 7 L 120, 7 L 122, 7 L 124, 7 L 126, 7 L 128, 7 L 130, 7 L 132, 7 L 134, 7 L 136, 7 L 138, 7 L 140, 7 L 142, 7 L 144, 7 L 146, 7 L 148, 7 L 150, 7 L 152, 7 L 154, 7 L 156, 7 L 158, 7 L 160, 7 L 162, 7 L 164, 7 L 166, 7 L 168, 7 L 170, 7 L 172, 7 L 174, 7 L 176, 7 L 178, 7 L 180, 7 L 182, 7 L 184, 7 L 186, 7 L 188, 7 L 190, 7 L 192, 7 L 194, 7 L 196, 7 L 198, 7 L 200, 7 L 202, 7 L 204, 7 L 206, 7 L 208, 7 L 210, 7"></path><path d="M 10, 8 L 12, 8 L 14, 8 L 16, 8 L 18, 8 L 20, 8 L 22, 8 L 24, 8 L 26, 8 L 28, 8 L 30, 8 L 32, 8 L 34, 8 L 36, 8 L 38, 8 L 40, 8 L 42, 8 L 44, 8 L 46, 8 L 48, 8 L 50, 8 L 52, 8 L 54, 8 L 56, 8 L 58, 8 L 60, 8 L 62, 8 L 64, 8 L 66, 8 L 68, 8 L 70, 8 L 72, 8 L 74, 8 L 76, 8 L 78, 8 L 80, 8 L 82, 8 L 84, 8 L 86, 8 L 88, 8 L 90, 8 L 92, 8 L 94, 8 L 96, 8 L 98, 8 L 100, 8 L 102, 8 L 104, 8 L 106, 8 L 108, 8 L 110, 8 L 112, 8 L 114, 8 L 116, 8 L 118, 8 L 120, 8 L 122, 8 L 124, 8 L 126, 8 L 128, 8 L 130, 8 L 132, 8 L 134, 8 L 136, 8 L 138, 8 L 140, 8 L 142, 8 L 144, 8 L 146, 8 L 148, 8 L 150, 8 L 152, 8 L 154, 8 L 156, 8 L 158, 8 L 160, 8 L 162, 8 L 164, 8 L 166, 8 L 168, 8 L 170, 8 L 172, 8 L 174, 8 L 176, 8 L 178, 8 L 180, 8 L 182, 8 L 184, 8 L 186, 8 L 188, 8 L 190, 8 L 192, 8 L 194, 8 L 196, 8 L 198, 8 L 200, 8 L 202, 8 L 204, 8 L 206, 8 L 208, 8 L 210, 8"></path><path d="M 10, 9 L 12, 9 L 14, 9 L 16, 9 L 18, 9 L 20, 9 L 22, 9 L 24, 9 L 26, 9 L 28, 9 L 30, 9 L 32, 9 L 34, 9 L 36, 9 L 38, 9 L 40, 9 L 42, 9 L 44, 9 L 46, 9 L 48, 9 L 50, 9 L 52, 9 L 54, 9 L 56, 9 L 58, 9 L 60, 9 L 62, 9 L 64, 9 L 66, 9 L 68, 9 L 70, 9 L 72, 9 L 74, 9 L 76, 9 L 78, 9 L 80, 9 L 82, 9 L 84, 9 L 86, 9 L 88, 9 L 90, 9 L 92, 9 L 94, 9 L 96, 9 L 98, 9 L 100, 9 L 102, 9 L 104, 9 L 106, 9 L 108, 9 L 110, 9 L 112, 9 L 114, 9 L 116, 9 L 118, 9 L 120, 9 L 122, 9 L 124, 9 L 126, 9 L 128, 9 L 130, 9 L 132, 9 L 134, 9 L 136, 9 L 138, 9 L 140, 9 L 142, 9 L 144, 9 L 146, 9 L 148, 9 L 150, 9 L 152, 9 L 154, 9 L 156, 9 L 158, 9 L 160, 9 L 162, 9 L 164, 9 L 166, 9 L 168, 9 L 170, 9 L 172, 9 L 174, 9 L 176, 9 L 178, 9 L 180, 9 L 182, 9 L 184, 9 L 186, 9 L 188, 9 L 190, 9 L 192, 9 L 194, 9 L 196, 9 L 198, 9 L 200, 9 L 202, 9 L 204, 9 L 206, 9 L 208, 9 L 210, 9"></path><path d="M 10, 10 L 12, 10 L 14, 10 L 16, 10 L 18, 10 L 20, 10 L 22, 10 L 24, 10 L 26, 10 L 28, 10 L 30, 10 L 32, 10 L 34, 10 L 36, 10 L 38, 10 L 40, 10 L 42, 10 L 44, 10 L 46, 10 L 48, 10 L 50, 10 L 52, 10 L 54, 10 L 56, 10 L 58, 10 L 60, 10 L 62, 10 L 64, 10 L 66, 10 L 68, 10 L 70, 10 L 72, 10 L 74, 10 L 76, 10 L 78, 10 L 80, 10 L 82, 10 L 84, 10 L 86, 10 L 88, 10 L 90, 10 L 92, 10 L 94, 10 L 96, 10 L 98, 10 L 100, 10 L 102, 10 L 104, 10 L 106, 10 L 108, 10 L 110, 10 L 112, 10 L 114, 10 L 116, 10 L 118, 10 L 120, 10 L 122, 10 L 124, 10 L 126, 10 L 128, 10 L 130, 10 L 132, 10 L 134, 10 L 136, 10 L 138, 10 L 140, 10 L 142, 10 L 144, 10 L 146, 10 L 148, 10 L 150, 10 L 152, 10 L 154, 10 L 156, 10 L 158, 10 L 160, 10 L 162, 10 L 164, 10 L 166, 10 L 168, 10 L 170, 10 L 172, 10 L 174, 10 L 176, 10 L 178, 10 L 180, 10 L 182, 10 L 184, 10 L 186, 10 L 188, 10 L 190, 10 L 192, 10 L 194, 10 L 196, 10 L 198, 10 L 200, 10 L 202, 10 L 204, 10 L 206, 10 L 208, 10 L 210, 10"></path><path d="M 10, 11 L 12, 11 L 14, 11 L 16, 11 L 18, 11 L 20, 11 L 22, 11 L 24, 11 L 26, 11 L 28, 11 L 30, 11 L 32, 11 L 34, 11 L 36, 11 L 38, 11 L 40, 11 L 42, 11 L 44, 11 L 46, 11 L 48, 11 L 50, 11 L 52, 11 L 54, 11 L 56, 11 L 58, 11 L 60, 11 L 62, 11 L 64, 11 L 66, 11 L 68, 11 L 70, 11 L 72, 11 L 74, 11 L 76, 11 L 78, 11 L 80, 11 L 82, 11 L 84, 11 L 86, 11 L 88, 11 L 90, 11 L 92, 11 L 94, 11 L 96, 11 L 98, 11 L 100, 11 L 102, 11 L 104, 11 L 106, 11 L 108, 11 L 110, 11 L 112, 11 L 114, 11 L 116, 11 L 118, 11 L 120, 11 L 122, 11 L 124, 11 L 126, 11 L 128, 11 L 130, 11 L 132, 11 L 134, 11 L 136, 11 L 138, 11 L 140, 11 L 142, 11 L 144, 11 L 146, 11 L 148, 11 L 150, 11 L 152, 11 L 154, 11 L 156, 11 L 158, 11 L 160, 11 L 162, 11 L 164, 11 L 166, 11 L 168, 11 L 170, 11 L 172, 11 L 174, 11 L 176, 11 L 178, 11 L 180, 11 L 182, 11 L 184, 11 L 186, 11 L 188, 11 L 190, 11 L 192, 11 L 194, 11 L 196, 11 L 198, 11 L 200, 11 L 202, 11 L 204, 11 L 206, 11 L 208, 11 L 210, 11"></path><path d="M 10, 12 L 12, 12 L 14, 12 L 16, 12 L 18, 12 L 20, 12 L 22, 12 L 24, 12 L 26, 12 L 28, 12 L 30, 12 L 32, 12 L 34, 12 L 36, 12 L 38, 12 L 40, 12 L 42, 12 L 44, 12 L 46, 12 L 48, 12 L 50, 12 L 52, 12 L 54, 12 L 56, 12 L 58, 12 L 60, 12 L 62, 12 L 64, 12 L 66, 12 L 68, 12 L 70, 12 L 72, 12 L 74, 12 L 76, 12 L 78, 12 L 80, 12 L 82, 12 L 84, 12 L 86, 12 L 88, 12 L 90, 12 L 92, 12 L 94, 12 L 96, 12 L 98, 12 L 100, 12 L 102, 12 L 104, 12 L 106, 12 L 108, 12 L 110, 12 L 112, 12 L 114, 12 L 116, 12 L 118, 12 L 120, 12 L 122, 12 L 124, 12 L 126, 12 L 128, 12 L 130, 12 L 132, 12 L 134, 12 L 136, 12 L 138, 12 L 140, 12 L 142, 12 L 144, 12 L 146, 12 L 148, 12 L 150, 12 L 152, 12 L 154, 12 L 156, 12 L 158, 12 L 160, 12 L 162, 12 L 164, 12 L 166, 12 L 168, 12 L 170, 12 L 172, 12 L 174, 12 L 176, 12 L 178, 12 L 180, 12 L 182, 12 L 184, 12 L 186, 12 L 188, 12 L 190, 12 L 192, 12 L 194, 12 L 196, 12 L 198, 12 L 200, 12 L 202, 12 L 204, 12 L 206, 12 L 208, 12 L 210, 12"></path><path d="M 10, 13 L 12, 13 L 14, 13 L 16, 13 L 18, 13 L 20, 13 L 22, 13 L 24, 13 L 26, 13 L 28, 13 L 30, 13 L 32, 13 L 34, 13 L 36, 13 L 38, 13 L 40, 13 L 42, 13 L 44, 13 L 46, 13 L 48, 13 L 50, 13 L 52, 13 L 54, 13 L 56, 13 L 58, 13 L 60, 13 L 62, 13 L 64, 13 L 66, 13 L 68, 13 L 70, 13 L 72, 13 L 74, 13 L 76, 13 L 78, 13 L 80, 13 L 82, 13 L 84, 13 L 86, 13 L 88, 13 L 90, 13 L 92, 13 L 94, 13 L 96, 13 L 98, 13 L 100, 13 L 102, 13 L 104, 13 L 106, 13 L 108, 13 L 110, 13 L 112, 13 L 114, 13 L 116, 13 L 118, 13 L 120, 13 L 122, 13 L 124, 13 L 126, 13 L 128, 13 L 130, 13 L 132, 13 L 134, 13 L 136, 13 L 138, 13 L 140, 13 L 142, 13 L 144, 13 L 146, 13 L 148, 13 L 150, 13 L 152, 13 L 154, 13 L 156, 13 L 158, 13 L 160, 13 L 162, 13 L 164, 13 L 166, 13 L 168, 13 L 170, 13 L 172, 13 L 174, 13 L 176, 13 L 178, 13 L 180, 13 L 182, 13 L 184, 13 L 186, 13 L 188, 13 L 190, 13 L 192, 13 L 194, 13 L 196, 13 L 198, 13 L 200, 13 L 202, 13 L 204, 13 L 206, 13 L 208, 13 L 210, 13"></path><path d="M 10, 14 L 12, 14 L 14, 14 L 16, 14 L 18, 14 L 20, 14 L 22, 14 L 24, 14 L 26, 14 L 28, 14 L 30, 14 L 32, 14 L 34, 14 L 36, 14 L 38, 14 L 40, 14 L 42, 14 L 44, 14 L 46, 14 L 48, 14 L 50, 14 L 52, 14 L 54, 14 L 56, 14 L 58, 14 L 60, 14 L 62, 14 L 64, 14 L 66, 14 L 68, 14 L 70, 14 L 72, 14 L 74, 14 L 76, 14 L 78, 14 L 80, 14 L 82, 14 L 84, 14 L 86, 14 L 88, 14 L 90, 14 L 92, 14 L 94, 14 L 96, 14 L 98, 14 L 100, 14 L 102, 14 L 104, 14 L 106, 14 L 108, 14 L 110, 14 L 112, 14 L 114, 14 L 116, 14 L 118, 14 L 120, 14 L 122, 14 L 124, 14 L 126, 14 L 128, 14 L 130, 14 L 132, 14 L 134, 14 L 136, 14 L 138, 14 L 140, 14 L 142, 14 L 144, 14 L 146, 14 L 148, 14 L 150, 14 L 152, 14 L 154, 14 L 156, 14 L 158, 14 L 160, 14 L 162, 14 L 164, 14 L 166, 14 L 168, 14 L 170, 14 L 172, 14 L 174, 14 L 176, 14 L 178, 14 L 180, 14 L 182, 14 L 184, 14 L 186, 14 L 188, 14 L 190, 14 L 192, 14 L 194, 14 L 196, 14 L 198, 14 L 200, 14 L 202, 14 L 204, 14 L 206, 14 L 208, 14 L 210, 14"></path><path d="M 10, 15 L 12, 15 L 14, 15 L 16, 15 L 18, 15 L 20, 15 L 22, 15 L 24, 15 L 26, 15 L 28, 15 L 30, 15 L 32, 15 L 34, 15 L 36, 15 L 38, 15 L 40, 15 L 42, 15 L 44, 15 L 46, 15 L 48, 15 L 50, 15 L 52, 15 L 54, 15 L 56, 15 L 58, 15 L 60, 15 L 62, 15 L 64, 15 L 66, 15 L 68, 15 L 70, 15 L 72, 15 L 74, 15 L 76, 15 L 78, 15 L 80, 15 L 82, 15 L 84, 15 L 86, 15 L 88, 15 L 90, 15 L 92, 15 L 94, 15 L 96, 15 L 98, 15 L 100, 15 L 102, 15 L 104, 15 L 106, 15 L 108, 15 L 110, 15 L 112, 15 L 114, 15 L 116, 15 L 118, 15 L 120, 15 L 122, 15 L 124, 15 L 126, 15 L 128, 15 L 130, 15 L 132, 15 L 134, 15 L 136, 15 L 138, 15 L 140, 15 L 142, 15 L 144, 15 L 146, 15 L 148, 15 L 150, 15 L 152, 15 L 154, 15 L 156, 15 L 158, 15 L 160, 15 L 162, 15 L 164, 15 L 166, 15 L 168, 15 L 170, 15 L 172, 15 L 174, 15 L 176, 15 L 178, 15 L 180, 15 L 182, 15 L 184, 15 L 186, 15 L 188, 15 L 190, 15 L 192, 15 L 194, 15 L 196, 15 L 198, 15 L 200, 15 L 202, 15 L 204, 15 L 206, 15 L 208, 15 L 210, 15"></path><path d="M 10, 16 L 12, 16 L 14, 16 L 16, 16 L 18, 16 L 20, 16 L 22, 16 L 24, 16 L 26, 16 L 28, 16 L 30, 16 L 32, 16 L 34, 16 L 36, 16 L 38, 16 L 40, 16 L 42, 16 L 44, 16 L 46, 16 L 48, 16 L 50, 16 L 52, 16 L 54, 16 L 56, 16 L 58, 16 L 60, 16 L 62, 16 L 64, 16 L 66, 16 L 68, 16 L 70, 16 L 72, 16 L 74, 16 L 76, 16 L 78, 16 L 80, 16 L 82, 16 L 84, 16 L 86, 16 L 88, 16 L 90, 16 L 92, 16 L 94, 16 L 96, 16 L 98, 16 L 100, 16 L 102, 16 L 104, 16 L 106, 16 L 108, 16 L 110, 16 L 112, 16 L 114, 16 L 116, 16 L 118, 16 L 120, 16 L 122, 16 L 124, 16 L 126, 16 L 128, 16 L 130, 16 L 132, 16 L 134, 16 L 136, 16 L 138, 16 L 140, 16 L 142, 16 L 144, 16 L 146, 16 L 148, 16 L 150, 16 L 152, 16 L 154, 16 L 156, 16 L 158, 16 L 160, 16 L 162, 16 L 164, 16 L 166, 16 L 168, 16 L 170, 16 L 172, 16 L 174, 16 L 176, 16 L 178, 16 L 180, 16 L 182, 16 L 184, 16 L 186, 16 L 188, 16 L 190, 16 L 192, 16 L 194, 16 L 196, 16 L 198, 16 L 200, 16 L 202, 16 L 204, 16 L 206, 16 L 208, 16 L 210, 16"></path><path d="M 10, 17 L 12, 17 L 14, 17 L 16, 17 L 18, 17 L 20, 17 L 22, 17 L 24, 17 L 26, 17 L 28, 17 L 30, 17 L 32, 17 L 34, 17 L 36, 17 L 38, 17 L 40, 17 L 42, 17 L 44, 17 L 46, 17 L 48, 17 L 50, 17 L 52, 17 L 54, 17 L 56, 17 L 58, 17 L 60, 17 L 62, 17 L 64, 17 L 66, 17 L 68, 17 L 70, 17 L 72, 17 L 74, 17 L 76, 17 L 78, 17 L 80, 17 L 82, 17 L 84, 17 L 86, 17 L 88, 17 L 90, 17 L 92, 17 L 94, 17 L 96, 17 L 98, 17 L 100, 17 L 102, 17 L 104, 17 L 106, 17 L 108, 17 L 110, 17 L 112, 17 L 114, 17 L 116, 17 L 118, 17 L 120, 17 L 122, 17 L 124, 17 L 126, 17 L 128, 17 L 130, 17 L 132, 17 L 134, 17 L 136, 17 L 138, 17 L 140, 17 L 142, 17 L 144, 17 L 146, 17 L 148, 17 L 150, 17 L 152, 17 L 154, 17 L 156, 17 L 158, 17 L 160, 17 L 162, 17 L 164, 17 L 166, 17 L 168, 17 L 170, 17 L 172, 17 L 174, 17 L 176, 17 L 178, 17 L 180, 17 L 182, 17 L 184, 17 L 186, 17 L 188, 17 L 190, 17 L 192, 17 L 194, 17 L 196, 17 L 198, 17 L 200, 17 L 202, 17 L 204, 17 L 206, 17 L 208, 17 L 210, 17"></path><path d="M 10, 18 L 12, 18 L 14, 18 L 16, 18 L 18, 18 L 20, 18 L 22, 18 L 24, 18 L 26, 18 L 28, 18 L 30, 18 L 32, 18 L 34, 18 L 36, 18 L 38, 18 L 40, 18 L 42, 18 L 44, 18 L 46, 18 L 48, 18 L 50, 18 L 52, 18 L 54, 18 L 56, 18 L 58, 18 L 60, 18 L 62, 18 L 64, 18 L 66, 18 L 68, 18 L 70, 18 L 72, 18 L 74, 18 L 76, 18 L 78, 18 L 80, 18 L 82, 18 L 84, 18 L 86, 18 L 88, 18 L 90, 18 L 92, 18 L 94, 18 L 96, 18 L 98, 18 L 100, 18 L 102, 18 L 104, 18 L 106, 18 L 108, 18 L 110, 18 L 112, 18 L 114, 18 L 116, 18 L 118, 18 L 120, 18 L 122, 18 L 124, 18 L 126, 18 L 128, 18 L 130, 18 L 132, 18 L 134, 18 L 136, 18 L 138, 18 L 140, 18 L 142, 18 L 144, 18 L 146, 18 L 148, 18 L 150, 18 L 152, 18 L 154, 18 L 156, 18 L 158, 18 L 160, 18 L 162, 18 L 164, 18 L 166, 18 L 168, 18 L 170, 18 L 172, 18 L 174, 18 L 176, 18 L 178, 18 L 180, 18 L 182, 18 L 184, 18 L 186, 18 L 188, 18 L 190, 18 L 192, 18 L 194, 18 L 196, 18 L 198, 18 L 200, 18 L 202, 18 L 204, 18 L 206, 18 L 208, 18 L 210, 18"></path><path d="M 10, 19 L 12, 19 L 14, 19 L 16, 19 L 18, 19 L 20, 19 L 22, 19 L 24, 19 L 26, 19 L 28, 19 L 30, 19 L 32, 19 L 34, 19 L 36, 19 L 38, 19 L 40, 19 L 42, 19 L 44, 19 L 46, 19 L 48, 19 L 50, 19 L 52, 19 L 54, 19 L 56, 19 L 58, 19 L 60, 19 L 62, 19 L 64, 19 L 66, 19 L 68, 19 L 70, 19 L 72, 19 L 74, 19 L 76, 19 L 78, 19 L 80, 19 L 82, 19 L 84, 19 L 86, 19 L 88, 19 L 90, 19 L 92, 19 L 94, 19 L 96, 19 L 98, 19 L 100, 19 L 102, 19 L 104, 19 L 106, 19 L 108, 19 L 110, 19 L 112, 19 L 114, 19 L 116, 19 L 118, 19 L 120, 19 L 122, 19 L 124, 19 L 126, 19 L 128, 19 L 130, 19 L 132, 19 L 134, 19 L 136, 19 L 138, 19 L 140, 19 L 142, 19 L 144, 19 L 146, 19 L 148, 19 L 150, 19 L 152, 19 L 154, 19 L 156, 19 L 158, 19 L 160, 19 L 162, 19 L 164, 19 L 166, 19 L 168, 19 L 170, 19 L 172, 19 L 174, 19 L 176, 19 L 178, 19 L 180, 19 L 182, 19 L 184, 19 L 186, 19 L 188, 19 L 190, 19 L 192, 19 L 194, 19 L 196, 19 L 198, 19 L 200, 19 L 202, 19 L 204, 19 L 206, 19 L 208, 19 L 210, 19"></path><path d="M 10, 20 L 12, 20 L 14, 20 L 16, 20 L 18, 20 L 20, 20 L 22, 20 L 24, 20 L 26, 20 L 28, 20 L 30, 20 L 32, 20 L 34, 20 L 36, 20 L 38, 20 L 40, 20 L 42, 20 L 44, 20 L 46, 20 L 48, 20 L 50, 20 L 52, 20 L 54, 20 L 56, 20 L 58, 20 L 60, 20 L 62, 20 L 64, 20 L 66, 20 L 68, 20 L 70, 20 L 72, 20 L 74, 20 L 76, 20 L 78, 20 L 80, 20 L 82, 20 L 84, 20 L 86, 20 L 88, 20 L 90, 20 L 92, 20 L 94, 20 L 96, 20 L 98, 20 L 100, 20 L 102, 20 L 104, 20 L 106, 20 L 108, 20 L 110, 20 L 112, 20 L 114, 20 L 116, 20 L 118, 20 L 120, 20 L 122, 20 L 124, 20 L 126, 20 L 128, 20 L 130, 20 L 132, 20 L 134, 20 L 136, 20 L 138, 20 L 140, 20 L 142, 20 L 144, 20 L 146, 20 L 148, 20 L 150, 20 L 152, 20 L 154, 20 L 156, 20 L 158, 20 L 160, 20 L 162, 20 L 164, 20 L 166, 20 L 168, 20 L 170, 20 L 172, 20 L 174, 20 L 176, 20 L 178, 20 L 180, 20 L 182, 20 L 184, 20 L 186, 20 L 188, 20 L 190, 20 L 192, 20 L 194, 20 L 196, 20 L 198, 20 L 200, 20 L 202, 20 L 204, 20 L 206, 20 L 208, 20 L 210, 20"></path><path d="M 10, 21 L 12, 21 L 14, 21 L 16, 21 L 18, 21 L 20, 21 L 22, 21 L 24, 21 L 26, 21 L 28, 21 L 30, 21 L 32, 21 L 34, 21 L 36, 21 L 38, 21 L 40, 21 L 42, 21 L 44, 21 L 46, 21 L 48, 21 L 50, 21 L 52, 21 L 54, 21 L 56, 21 L 58, 21 L 60, 21 L 62, 21 L 64, 21 L 66, 21 L 68, 21 L 70, 21 L 72, 21 L 74, 21 L 76, 21 L 78, 21 L 80, 21 L 82, 21 L 84, 21 L 86, 21 L 88, 21 L 90, 21 L 92, 21 L 94, 21 L 96, 21 L 98, 21 L 100, 21 L 102, 21 L 104, 21 L 106, 21 L 108, 21 L 110, 21 L 112, 21 L 114, 21 L 116, 21 L 118, 21 L 120, 21 L 122, 21 L 124, 21 L 126, 21 L 128, 21 L 130, 21 L 132, 21 L 134, 21 L 136, 21 L 138, 21 L 140, 21 L 142, 21 L 144, 21 L 146, 21 L 148, 21 L 150, 21 L 152, 21 L 154, 21 L 156, 21 L 158, 21 L 160, 21 L 162, 21 L 164, 21 L 166, 21 L 168, 21 L 170, 21 L 172, 21 L 174, 21 L 176, 21 L 178, 21 L 180, 21 L 182, 21 L 184, 21 L 186, 21 L 188, 21 L 190, 21 L 192, 21 L 194, 21 L 196, 21 L 198, 21 L 200, 21 L 202, 21 L 204, 21 L 206, 21 L 208, 21 L 210, 21"></path><path d="M 10, 22 L 12, 22 L 14, 22 L 16, 22 L 18, 22 L 20, 22 L 22, 22 L 24, 22 L 26, 22 L 28, 22 L 30, 22 L 32, 22 L 34, 22 L 36, 22 L 38, 22 L 40, 22 L 42, 22 L 44, 22 L 46, 22 L 48, 22 L 50, 22 L 52, 22 L 54, 22 L 56, 22 L 58, 22 L 60, 22 L 62, 22 L 64, 22 L 66, 22 L 68, 22 L 70, 22 L 72, 22 L 74, 22 L 76, 22 L 78, 22 L 80, 22 L 82, 22 L 84, 22 L 86, 22 L 88, 22 L 90, 22 L 92, 22 L 94, 22 L 96, 22 L 98, 22 L 100, 22 L 102, 22 L 104, 22 L 106, 22 L 108, 22 L 110, 22 L 112, 22 L 114, 22 L 116, 22 L 118, 22 L 120, 22 L 122, 22 L 124, 22 L 126, 22 L 128, 22 L 130, 22 L 132, 22 L 134, 22 L 136, 22 L 138, 22 L 140, 22 L 142, 22 L 144, 22 L 146, 22 L 148, 22 L 150, 22 L 152, 22 L 154, 22 L 156, 22 L 158, 22 L 160, 22 L 162, 22 L 164, 22 L 166, 22 L 168, 22 L 170, 22 L 172, 22 L 174, 22 L 176, 22 L 178, 22 L 180, 22 L 182, 22 L 184, 22 L 186, 22 L 188, 22 L 190, 22 L 192, 22 L 194, 22 L 196, 22 L 198, 22 L 200, 22 L 202, 22 L 204, 22 L 206, 22 L 208, 22 L 210, 22"></path><path d="M 10, 23 L 12, 23 L 14, 23 L 16, 23 L 18, 23 L 20, 23 L 22, 23 L 24, 23 L 26, 23 L 28, 23 L 30, 23 L 32, 23 L 34, 23 L 36, 23 L 38, 23 L 40, 23 L 42, 23 L 44, 23 L 46, 23 L 48, 23 L 50, 23 L 52, 23 L 54, 23 L 56, 23 L 58, 23 L 60, 23 L 62, 23 L 64, 23 L 66, 23 L 68, 23 L 70, 23 L 72, 23 L 74, 23 L 76, 23 L 78, 23 L 80, 23 L 82, 23 L 84, 23 L 86, 23 L 88, 23 L 90, 23 L 92, 23 L 94, 23 L 96, 23 L 98, 23 L 100, 23 L 102, 23 L 104, 23 L 106, 23 L 108, 23 L 110, 23 L 112, 23 L 114, 23 L 116, 23 L 118, 23 L 120, 23 L 122, 23 L 124, 23 L 126, 23 L 128, 23 L 130, 23 L 132, 23 L 134, 23 L 136, 23 L 138, 23 L 140, 23 L 142, 23 L 144, 23 L 146, 23 L 148, 23 L 150, 23 L 152, 23 L 154, 23 L 156, 23 L 158, 23 L 160, 23 L 162, 23 L 164, 23 L 166, 23 L 168, 23 L 170, 23 L 172, 23 L 174, 23 L 176, 23 L 178, 23 L 180, 23 L 182, 23 L 184, 23 L 186, 23 L 188, 23 L 190, 23 L 192, 23 L 194, 23 L 196, 23 L 198, 23 L 200, 23 L 202, 23 L 204, 23 L 206, 23 L 208, 23 L 210, 23"></path><path d="M 10, 24 L 12, 24 L 14, 24 L 16, 24 L 18, 24 L 20, 24 L 22, 24 L 24, 24 L 26, 24 L 28, 24 L 30, 24 L 32, 24 L 34, 24 L 36, 24 L 38, 24 L 40, 24 L 42, 24 L 44, 24 L 46, 24 L 48, 24 L 50, 24 L 52, 24 L 54, 24 L 56, 24 L 58, 24 L 60, 24 L 62, 24 L 64, 24 L 66, 24 L 68, 24 L 70, 24 L 72, 24 L 74, 24 L 76, 24 L 78, 24 L 80, 24 L 82, 24 L 84, 24 L 86, 24 L 88, 24 L 90, 24 L 92, 24 L 94, 24 L 96, 24 L 98, 24 L 100, 24 L 102, 24 L 104, 24 L 106, 24 L 108, 24 L 110, 24 L 112, 24 L 114, 24 L 116, 24 L 118, 24 L 120, 24 L 122, 24 L 124, 24 L 126, 24 L 128, 24 L 130, 24 L 132, 24 L 134, 24 L 136, 24 L 138, 24 L 140, 24 L 142, 24 L 144, 24 L 146, 24 L 148, 24 L 150, 24 L 152, 24 L 154, 24 L 156, 24 L 158, 24 L 160, 24 L 162, 24 L 164, 24 L 166, 24 L 168, 24 L 170, 24 L 172, 24 L 174, 24 L 176, 24 L 178, 24 L 180, 24 L 182, 24 L 184, 24 L 186, 24 L 188, 24 L 190, 24 L 192, 24 L 194, 24 L 196, 24 L 198, 24 L 200, 24 L 202, 24 L 204, 24 L 206, 24 L 208, 24 L 210, 24"></path><path d="M 10, 25 L 12, 25 L 14, 25 L 16, 25 L 18, 25 L 20, 25 L 22, 25 L 24, 25 L 26, 25 L 28, 25 L 30, 25 L 32, 25 L 34, 25 L 36, 25 L 38, 25 L 40, 25 L 42, 25 L 44, 25 L 46, 25 L 48, 25 L 50, 25 L 52, 25 L 54, 25 L 56, 25 L 58, 25 L 60, 25 L 62, 25 L 64, 25 L 66, 25 L 68, 25 L 70, 25 L 72, 25 L 74, 25 L 76, 25 L 78, 25 L 80, 25 L 82, 25 L 84, 25 L 86, 25 L 88, 25 L 90, 25 L 92, 25 L 94, 25 L 96, 25 L 98, 25 L 100, 25 L 102, 25 L 104, 25 L 106, 25 L 108, 25 L 110, 25 L 112, 25 L 114, 25 L 116, 25 L 118, 25 L 120, 25 L 122, 25 L 124, 25 L 126, 25 L 128, 25 L 130, 25 L 132, 25 L 134, 25 L 136, 25 L 138, 25 L 140, 25 L 142, 25 L 144, 25 L 146, 25 L 148, 25 L 150, 25 L 152, 25 L 154, 25 L 156, 25 L 158, 25 L 160, 25 L 162, 25 L 164, 25 L 166, 25 L 168, 25 L 170, 25 L 172, 25 L 174, 25 L 176, 25 L 178, 25 L 180, 25 L 182, 25 L 184, 25 L 186, 25 L 188, 25 L 190, 25 L 192, 25 L 194, 25 L 196, 25 L 198, 25 L 200, 25 L 202, 25 L 204, 25 L 206, 25 L 208, 25 L 210, 25"></path><path d="M 10, 26 L 12, 26 L 14, 26 L 16, 26 L 18, 26 L 20, 26 L 22, 26 L 24, 26 L 26, 26 L 28, 26 L 30, 26 L 32, 26 L 34, 26 L 36, 26 L 38, 26 L 40, 26 L 42, 26 L 44, 26 L 46, 26 L 48, 26 L 50, 26 L 52, 26 L 54, 26 L 56, 26 L 58, 26 L 60, 26 L 62, 26 L 64, 26 L 66, 26 L 68, 26 L 70, 26 L 72, 26 L 74, 26 L 76, 26 L 78, 26 L 80, 26 L 82, 26 L 84, 26 L 86, 26 L 88, 26 L 90, 26 L 92, 26 L 94, 26 L 96, 26 L 98, 26 L 100, 26 L 102, 26 L 104, 26 L 106, 26 L 108, 26 L 110, 26 L 112, 26 L 114, 26 L 116, 26 L 118, 26 L 120, 26 L 122, 26 L 124, 26 L 126, 26 L 128, 26 L 130, 26 L 132, 26 L 134, 26 L 136, 26 L 138, 26 L 140, 26 L 142, 26 L 144, 26 L 146, 26 L 148, 26 L 150, 26 L 152, 26 L 154, 26 L 156, 26 L 158, 26 L 160, 26 L 162, 26 L 164, 26 L 166, 26 L 168, 26 L 170, 26 L 172, 26 L 174, 26 L 176, 26 L 178, 26 L 180, 26 L 182, 26 L 184, 26 L 186, 26 L 188, 26 L 190, 26 L 192, 26 L 194, 26 L 196, 26 L 198, 26 L 200, 26 L 202, 26 L 204, 26 L 206, 26 L 208, 26 L 210, 26"></path><path d="M 10, 27 L 12, 27 L 14, 27 L 16, 27 L 18, 27 L 20, 27 L 22, 27 L 24, 27 L 26, 27 L 28, 27 L 30, 27 L 32, 27 L 34, 27 L 36, 27 L 38, 27 L 40, 27 L 42, 27 L 44, 27 L 46, 27 L 48, 27 L 50, 27 L 52, 27 L 54, 27 L 56, 27 L 58, 27 L 60, 27 L 62, 27 L 64, 27 L 66, 27 L 68, 27 L 70, 27 L 72, 27 L 74, 27 L 76, 27 L 78, 27 L 80, 27 L 82, 27 L 84, 27 L 86, 27 L 88, 27 L 90, 27 L 92, 27 L 94, 27 L 96, 27 L 98, 27 L 100, 27 L 102, 27 L 104, 27 L 106, 27 L 108, 27 L 110, 27 L 112, 27 L 114, 27 L 116, 27 L 118, 27 L 120, 27 L 122, 27 L 124, 27 L 126, 27 L 128, 27 L 130, 27 L 132, 27 L 134, 27 L 136, 27 L 138, 27 L 140, 27 L 142, 27 L 144, 27 L 146, 27 L 148, 27 L 150, 27 L 152, 27 L 154, 27 L 156, 27 L 158, 27 L 160, 27 L 162, 27 L 164, 27 L 166, 27 L 168, 27 L 170, 27 L 172, 27 L 174, 27 L 176, 27 L 178, 27 L 180, 27 L 182, 27 L 184, 27 L 186, 27 L 188, 27 L 190, 27 L 192, 27 L 194, 27 L 196, 27 L 198, 27 L 200, 27 L 202, 27 L 204, 27 L 206, 27 L 208, 27 L 210, 27"></path><path d="M 10, 28 L 12, 28 L 14, 28 L 16, 28 L 18, 28 L 20, 28 L 22, 28 L 24, 28 L 26, 28 L 28, 28 L 30, 28 L 32, 28 L 34, 28 L 36, 28 L 38, 28 L 40, 28 L 42, 28 L 44, 28 L 46, 28 L 48, 28 L 50, 28 L 52, 28 L 54, 28 L 56, 28 L 58, 28 L 60, 28 L 62, 28 L 64, 28 L 66, 28 L 68, 28 L 70, 28 L 72, 28 L 74, 28 L 76, 28 L 78, 28 L 80, 28 L 82, 28 L 84, 28 L 86, 28 L 88, 28 L 90, 28 L 92, 28 L 94, 28 L 96, 28 L 98, 28 L 100, 28 L 102, 28 L 104, 28 L 106, 28 L 108, 28 L 110, 28 L 112, 28 L 114, 28 L 116, 28 L 118, 28 L 120, 28 L 122, 28 L 124, 28 L 126, 28 L 128, 28 L 130, 28 L 132, 28 L 134, 28 L 136, 28 L 138, 28 L 140, 28 L 142, 28 L 144, 28 L 146, 28 L 148, 28 L 150, 28 L 152, 28 L 154, 28 L 156, 28 L 158, 28 L 160, 28 L 162, 28 L 164, 28 L 166, 28 L 168, 28 L 170, 28 L 172, 28 L 174, 28 L 176, 28 L 178, 28 L 180, 28 L 182, 28 L 184, 28 L 186, 28 L 188, 28 L 190, 28 L 192, 28 L 194, 28 L 196, 28 L 198, 28 L 200, 28 L 202, 28 L 204, 28 L 206, 28 L 208, 28 L 210, 28"></path><path d="M 10, 29 L 12, 29 L 14, 29 L 16, 29 L 18, 29 L 20, 29 L 22, 29 L 24, 29 L 26, 29 L 28, 29 L 30, 29 L 32, 29 L 34, 29 L 36, 29 L 38, 29 L 40, 29 L 42, 29 L 44, 29 L 46, 29 L 48, 29 L 50, 29 L 52, 29 L 54, 29 L 56, 29 L 58, 29 L 60, 29 L 62, 29 L 64, 29 L 66, 29 L 68, 29 L 70, 29 L 72, 29 L 74, 29 L 76, 29 L 78, 29 L 80, 29 L 82, 29 L 84, 29 L 86, 29 L 88, 29 L 90, 29 L 92, 29 L 94, 29 L 96, 29 L 98, 29 L 100, 29 L 102, 29 L 104, 29 L 106, 29 L 108, 29 L 110, 29 L 112, 29 L 114, 29 L 116, 29 L 118, 29 L 120, 29 L 122, 29 L 124, 29 L 126, 29 L 128, 29 L 130, 29 L 132, 29 L 134, 29 L 136, 29 L 138, 29 L 140, 29 L 142, 29 L 144, 29 L 146, 29 L 148, 29 L 150, 29 L 152, 29 L 154, 29 L 156, 29 L 158, 29 L 160, 29 L 162, 29 L 164, 29 L 166, 29 L 168, 29 L 170, 29 L 172, 29 L 174, 29 L 176, 29 L 178, 29 L 180, 29 L 182, 29 L 184, 29 L 186, 29 L 188, 29 L 190, 29 L 192, 29 L 194, 29 L 196, 29 L 198, 29 L 200, 29 L 202, 29 L 204, 29 L 206, 29 L 208, 29 L 210, 29"></path><path d="M 10, 30 L 12, 30 L 14, 30 L 16, 30 L 18, 30 L 20, 30 L 22, 30 L 24, 30 L 26, 30 L 28, 30 L 30, 30 L 32, 30 L 34, 30 L 36, 30 L 38, 30 L 40, 30 L 42, 30 L 44, 30 L 46, 30 L 48, 30 L 50, 30 L 52, 30 L 54, 30 L 56, 30 L 58, 30 L 60, 30 L 62, 30 L 64, 30 L 66, 30 L 68, 30 L 70, 30 L 72, 30 L 74, 30 L 76, 30 L 78, 30 L 80, 30 L 82, 30 L 84, 30 L 86, 30 L 88, 30 L 90, 30 L 92, 30 L 94, 30 L 96, 30 L 98, 30 L 100, 30 L 102, 30 L 104, 30 L 106, 30 L 108, 30 L 110, 30 L 112, 30 L 114, 30 L 116, 30 L 118, 30 L 120, 30 L 122, 30 L 124, 30 L 126, 30 L 128, 30 L 130, 30 L 132, 30 L 134, 30 L 136, 30 L 138, 30 L 140, 30 L 142, 30 L 144, 30 L 146, 30 L 148, 30 L 150, 30 L 152, 30 L 154, 30 L 156, 30 L 158, 30 L 160, 30 L 162, 30 L 164, 30 L 166, 30 L 168, 30 L 170, 30 L 172, 30 L 174, 30 L 176, 30 L 178, 30 L 180, 30 L 182, 30 L 184, 30 L 186, 30 L 188, 30 L 190, 30 L 192, 30 L 194, 30 L 196, 30 L 198, 30 L 200, 30 L 202, 30 L 204, 30 L 206, 30 L 208, 30 L 210, 30"></path><path d="M 10, 31 L 12, 31 L 14, 31 L 16, 31 L 18, 31 L 20, 31 L 22, 31 L 24, 31 L 26, 31 L 28, 31 L 30, 31 L 32, 31 L 34, 31 L 36, 31 L 38, 31 L 40, 31 L 42, 31 L 44, 31 L 46, 31 L 48, 31 L 50, 31 L 52, 31 L 54, 31 L 56, 31 L 58, 31 L 60, 31 L 62, 31 L 64, 31 L 66, 31 L 68, 31 L 70, 31 L 72, 31 L 74, 31 L 76, 31 L 78, 31 L 80, 31 L 82, 31 L 84, 31 L 86, 31 L 88, 31 L 90, 31 L 92, 31 L 94, 31 L 96, 31 L 98, 31 L 100, 31 L 102, 31 L 104, 31 L 106, 31 L 108, 31 L 110, 31 L 112, 31 L 114, 31 L 116, 31 L 118, 31 L 120, 31 L 122, 31 L 124, 31 L 126, 31 L 128, 31 L 130, 31 L 132, 31 L 134, 31 L 136, 31 L 138, 31 L 140, 31 L 142, 31 L 144, 31 L 146, 31 L 148, 31 L 150, 31 L 152, 31 L 154, 31 L 156, 31 L 158, 31 L 160, 31 L 162, 31 L 164, 31 L 166, 31 L 168, 31 L 170, 31 L 172, 31 L 174, 31 L 176, 31 L 178, 31 L 180, 31 L 182, 31 L 184, 31 L 186, 31 L 188, 31 L 190, 31 L 192, 31 L 194, 31 L 196, 31 L 198, 31 L 200, 31 L 202, 31 L 204, 31 L 206, 31 L 208, 31 L 210, 31"></path><path d="M 10, 32 L 12, 32 L 14, 32 L 16, 32 L 18, 32 L 20, 32 L 22, 32 L 24, 32 L 26, 32 L 28, 32 L 30, 32 L 32, 32 L 34, 32 L 36, 32 L 38, 32 L 40, 32 L 42, 32 L 44, 32 L 46, 32 L 48, 32 L 50, 32 L 52, 32 L 54, 32 L 56, 32 L 58, 32 L 60, 32 L 62, 32 L 64, 32 L 66, 32 L 68, 32 L 70, 32 L 72, 32 L 74, 32 L 76, 32 L 78, 32 L 80, 32 L 82, 32 L 84, 32 L 86, 32 L 88, 32 L 90, 32 L 92, 32 L 94, 32 L 96, 32 L 98, 32 L 100, 32 L 102, 32 L 104, 32 L 106, 32 L 108, 32 L 110, 32 L 112, 32 L 114, 32 L 116, 32 L 118, 32 L 120, 32 L 122, 32 L 124, 32 L 126, 32 L 128, 32 L 130, 32 L 132, 32 L 134, 32 L 136, 32 L 138, 32 L 140, 32 L 142, 32 L 144, 32 L 146, 32 L 148, 32 L 150, 32 L 152, 32 L 154, 32 L 156, 32 L 158, 32 L 160, 32 L 162, 32 L 164, 32 L 166, 32 L 168, 32 L 170, 32 L 172, 32 L 174, 32 L 176, 32 L 178, 32 L 180, 32 L 182, 32 L 184, 32 L 186, 32 L 188, 32 L 190, 32 L 192, 32 L 194, 32 L 196, 32 L 198, 32 L 200, 32 L 202, 32 L 204, 32 L 206, 32 L 208, 32 L 210, 32"></path><path d="M 10, 33 L 12, 33 L 14, 33 L 16, 33 L 18, 33 L 20, 33 L 22, 33 L 24, 33 L 26, 33 L 28, 33 L 30, 33 L 32, 33 L 34, 33 L 36, 33 L 38, 33 L 40, 33 L 42, 33 L 44, 33 L 46, 33 L 48, 33 L 50, 33 L 52, 33 L 54, 33 L 56, 33 L 58, 33 L 60, 33 L 62, 33 L 64, 33 L 66, 33 L 68, 33 L 70, 33 L 72, 33 L 74, 33 L 76, 33 L 78, 33 L 80, 33 L 82, 33 L 84, 33 L 86, 33 L 88, 33 L 90, 33 L 92, 33 L 94, 33 L 96, 33 L 98, 33 L 100, 33 L 102, 33 L 104, 33 L 106, 33 L 108, 33 L 110, 33 L 112, 33 L 114, 33 L 116, 33 L 118, 33 L 120, 33 L 122, 33 L 124, 33 L 126, 33 L 128, 33 L 130, 33 L 132, 33 L 134, 33 L 136, 33 L 138, 33 L 140, 33 L 142, 33 L 144, 33 L 146, 33 L 148, 33 L 150, 33 L 152, 33 L 154, 33 L 156, 33 L 158, 33 L 160, 33 L 162, 33 L 164, 33 L 166, 33 L 168, 33 L 170, 33 L 172, 33 L 174, 33 L 176, 33 L 178, 33 L 180, 33 L 182, 33 L 184, 33 L 186, 33 L 188, 33 L 190, 33 L 192, 33 L 194, 33 L 196, 33 L 198, 33 L 200, 33 L 202, 33 L 204, 33 L 206, 33 L 208, 33 L 210, 33"></path><path d="M 10, 34 L 12, 34 L 14, 34 L 16, 34 L 18, 34 L 20, 34 L 22, 34 L 24, 34 L 26, 34 L 28, 34 L 30, 34 L 32, 34 L 34, 34 L 36, 34 L 38, 34 L 40, 34 L 42, 34 L 44, 34 L 46, 34 L 48, 34 L 50, 34 L 52, 34 L 54, 34 L 56, 34 L 58, 34 L 60, 34 L 62, 34 L 64, 34 L 66, 34 L 68, 34 L 70, 34 L 72, 34 L 74, 34 L 76, 34 L 78, 34 L 80, 34 L 82, 34 L 84, 34 L 86, 34 L 88, 34 L 90, 34 L 92, 34 L 94, 34 L 96, 34 L 98, 34 L 100, 34 L 102, 34 L 104, 34 L 106, 34 L 108, 34 L 110, 34 L 112, 34 L 114, 34 L 116, 34 L 118, 34 L 120, 34 L 122, 34 L 124, 34 L 126, 34 L 128, 34 L 130, 34 L 132, 34 L 134, 34 L 136, 34 L 138, 34 L 140, 34 L 142, 34 L 144, 34 L 146, 34 L 148, 34 L 150, 34 L 152, 34 L 154, 34 L 156, 34 L 158, 34 L 160, 34 L 162, 34 L 164, 34 L 166, 34 L 168, 34 L 170, 34 L 172, 34 L 174, 34 L 176, 34 L 178, 34 L 180, 34 L 182, 34 L 184, 34 L 186, 34 L 188, 34 L 190, 34 L 192, 34 L 194, 34 L 196, 34 L 198, 34 L 200, 34 L 202, 34 L 204, 34 L 206, 34 L 208, 34 L 210, 34"></path><path d="M 10, 35 L 12, 35 L 14, 35 L 16, 35 L 18, 35 L 20, 35 L 22, 35 L 24, 35 L 26, 35 L 28, 35 L 30, 35 L 32, 35 L 34, 35 L 36, 35 L 38, 35 L 40, 35 L 42, 35 L 44, 35 L 46, 35 L 48, 35 L 50, 35 L 52, 35 L 54, 35 L 56, 35 L 58, 35 L 60, 35 L 62, 35 L 64, 35 L 66, 35 L 68, 35 L 70, 35 L 72, 35 L 74, 35 L 76, 35 L 78, 35 L 80, 35 L 82, 35 L 84, 35 L 86, 35 L 88, 35 L 90, 35 L 92, 35 L 94, 35 L 96, 35 L 98, 35 L 100, 35 L 102, 35 L 104, 35 L 106, 35 L 108, 35 L 110, 35 L 112, 35 L 114, 35 L 116, 35 L 118, 35 L 120, 35 L 122, 35 L 124, 35 L 126, 35 L 128, 35 L 130, 35 L 132, 35 L 134, 35 L 136, 35 L 138, 35 L 140, 35 L 142, 35 L 144, 35 L 146, 35 L 148, 35 L 150, 35 L 152, 35 L 154, 35 L 156, 35 L 158, 35 L 160, 35 L 162, 35 L 164, 35 L 166, 35 L 168, 35 L 170, 35 L 172, 35 L 174, 35 L 176, 35 L 178, 35 L 180, 35 L 182, 35 L 184, 35 L 186, 35 L 188, 35 L 190, 35 L 192, 35 L 194, 35 L 196, 35 L 198, 35 L 200, 35 L 202, 35 L 204, 35 L 206, 35 L 208, 35 L 210, 35"></path><path d="M 10, 36 L 12, 36 L 14, 36 L 16, 36 L 18, 36 L 20, 36 L 22, 36 L 24, 36 L 26, 36 L 28, 36 L 30, 36 L 32, 36 L 34, 36 L 36, 36 L 38, 36 L 40, 36 L 42, 36 L 44, 36 L 46, 36 L 48, 36 L 50, 36 L 52, 36 L 54, 36 L 56, 36 L 58, 36 L 60, 36 L 62, 36 L 64, 36 L 66, 36 L 68, 36 L 70, 36 L 72, 36 L 74, 36 L 76, 36 L 78, 36 L 80, 36 L 82, 36 L 84, 36 L 86, 36 L 88, 36 L 90, 36 L 92, 36 L 94, 36 L 96, 36 L 98, 36 L 100, 36 L 102, 36 L 104, 36 L 106, 36 L 108, 36 L 110, 36 L 112, 36 L 114, 36 L 116, 36 L 118, 36 L 120, 36 L 122, 36 L 124, 36 L 126, 36 L 128, 36 L 130, 36 L 132, 36 L 134, 36 L 136, 36 L 138, 36 L 140, 36 L 142, 36 L 144, 36 L 146, 36 L 148, 36 L 150, 36 L 152, 36 L 154, 36 L 156, 36 L 158, 36 L 160, 36 L 162, 36 L 164, 36 L 166, 36 L 168, 36 L 170, 36 L 172, 36 L 174, 36 L 176, 36 L 178, 36 L 180, 36 L 182, 36 L 184, 36 L 186, 36 L 188, 36 L 190, 36 L 192, 36 L 194, 36 L 196, 36 L 198, 36 L 200, 36 L 202, 36 L 204, 36 L 206, 36 L 208, 36 L 210, 36"></path><path d="M 10, 37 L 12, 37 L 14, 37 L 16, 37 L 18, 37 L 20, 37 L 22, 37 L 24, 37 L 26, 37 L 28, 37 L 30, 37 L 32, 37 L 34, 37 L 36, 37 L 38, 37 L 40, 37 L 42, 37 L 44, 37 L 46, 37 L 48, 37 L 50, 37 L 52, 37 L 54, 37 L 56, 37 L 58, 37 L 60, 37 L 62, 37 L 64, 37 L 66, 37 L 68, 37 L 70, 37 L 72, 37 L 74, 37 L 76, 37 L 78, 37 L 80, 37 L 82, 37 L 84, 37 L 86, 37 L 88, 37 L 90, 37 L 92, 37 L 94, 37 L 96, 37 L 98, 37 L 100, 37 L 102, 37 L 104, 37 L 106, 37 L 108, 37 L 110, 37 L 112, 37 L 114, 37 L 116, 37 L 118, 37 L 120, 37 L 122, 37 L 124, 37 L 126, 37 L 128, 37 L 130, 37 L 132, 37 L 134, 37 L 136, 37 L 138, 37 L 140, 37 L 142, 37 L 144, 37 L 146, 37 L 148, 37 L 150, 37 L 152, 37 L 154, 37 L 156, 37 L 158, 37 L 160, 37 L 162, 37 L 164, 37 L 166, 37 L 168, 37 L 170, 37 L 172, 37 L 174, 37 L 176, 37 L 178, 37 L 180, 37 L 182, 37 L 184, 37 L 186, 37 L 188, 37 L 190, 37 L 192, 37 L 194, 37 L 196, 37 L 198, 37 L 200, 37 L 202, 37 L 204, 37 L 206, 37 L 208, 37 L 210, 37"></path><path d="M 10, 38 L 12, 38 L 14, 38 L 16, 38 L 18, 38 L 20, 38 L 22, 38 L 24, 38 L 26, 38 L 28, 38 L 30, 38 L 32, 38 L 34, 38 L 36, 38 L 38, 38 L 40, 38 L 42, 38 L 44, 38 L 46, 38 L 48, 38 L 50, 38 L 52, 38 L 54, 38 L 56, 38 L 58, 38 L 60, 38 L 62, 38 L 64, 38 L 66, 38 L 68, 38 L 70, 38 L 72, 38 L 74, 38 L 76, 38 L 78, 38 L 80, 38 L 82, 38 L 84, 38 L 86, 38 L 88, 38 L 90, 38 L 92, 38 L 94, 38 L 96, 38 L 98, 38 L 100, 38 L 102, 38 L 104, 38 L 106, 38 L 108, 38 L 110, 38 L 112, 38 L 114, 38 L 116, 38 L 118, 38 L 120, 38 L 122, 38 L 124, 38 L 126, 38 L 128, 38 L 130, 38 L 132, 38 L 134, 38 L 136, 38 L 138, 38 L 140, 38 L 142, 38 L 144, 38 L 146, 38 L 148, 38 L 150, 38 L 152, 38 L 154, 38 L 156, 38 L 158, 38 L 160, 38 L 162, 38 L 164, 38 L 166, 38 L 168, 38 L 170, 38 L 172, 38 L 174, 38 L 176, 38 L 178, 38 L 180, 38 L 182, 38 L 184, 38 L 186, 38 L 188, 38 L 190, 38 L 192, 38 L 194, 38 L 196, 38 L 198, 38 L 200, 38 L 202, 38 L 204, 38 L 206, 38 L 208, 38 L 210, 38"></path><path d="M 10, 39 L 12, 39 L 14, 39 L 16, 39 L 18, 39 L 20, 39 L 22, 39 L 24, 39 L 26, 39 L 28, 39 L 30, 39 L 32, 39 L 34, 39 L 36, 39 L 38, 39 L 40, 39 L 42, 39 L 44, 39 L 46, 39 L 48, 39 L 50, 39 L 52, 39 L 54, 39 L 56, 39 L 58, 39 L 60, 39 L 62, 39 L 64, 39 L 66, 39 L 68, 39 L 70, 39 L 72, 39 L 74, 39 L 76, 39 L 78, 39 L 80, 39 L 82, 39 L 84, 39 L 86, 39 L 88, 39 L 90, 39 L 92, 39 L 94, 39 L 96, 39 L 98, 39 L 100, 39 L 102, 39 L 104, 39 L 106, 39 L 108, 39 L 110, 39 L 112, 39 L 114, 39 L 116, 39 L 118, 39 L 120, 39 L 122, 39 L 124, 39 L 126, 39 L 128, 39 L 130, 39 L 132, 39 L 134, 39 L 136, 39 L 138, 39 L 140, 39 L 142, 39 L 144, 39 L 146, 39 L 148, 39 L 150, 39 L 152, 39 L 154, 39 L 156, 39 L 158, 39 L 160, 39 L 162, 39 L 164, 39 L 166, 39 L 168, 39 L 170, 39 L 172, 39 L 174, 39 L 176, 39 L 178, 39 L 180, 39 L 182, 39 L 184, 39 L 186, 39 L 188, 39 L 190, 39 L 192, 39 L 194, 39 L 196, 39 L 198, 39 L 200, 39 L 202, 39 L 204, 39 L 206, 39 L 208, 39 L 210, 39"></path><path d="M 10, 40 L 12, 40 L 14, 40 L 16, 40 L 18, 40 L 20, 40 L 22, 40 L 24, 40 L 26, 40 L 28, 40 L 30, 40 L 32, 40 L 34, 40 L 36, 40 L 38, 40 L 40, 40 L 42, 40 L 44, 40 L 46, 40 L 48, 40 L 50, 40 L 52, 40 L 54, 40 L 56, 40 L 58, 40 L 60, 40 L 62, 40 L 64, 40 L 66, 40 L 68, 40 L 70, 40 L 72, 40 L 74, 40 L 76, 40 L 78, 40 L 80, 40 L 82, 40 L 84, 40 L 86, 40 L 88, 40 L 90, 40 L 92, 40 L 94, 40 L 96, 40 L 98, 40 L 100, 40 L 102, 40 L 104, 40 L 106, 40 L 108, 40 L 110, 40 L 112, 40 L 114, 40 L 116, 40 L 118, 40 L 120, 40 L 122, 40 L 124, 40 L 126, 40 L 128, 40 L 130, 40 L 132, 40 L 134, 40 L 136, 40 L 138, 40 L 140, 40 L 142, 40 L 144, 40 L 146, 40 L 148, 40 L 150, 40 L 152, 40 L 154, 40 L 156, 40 L 158, 40 L 160, 40 L 162, 40 L 164, 40 L 166, 40 L 168, 40 L 170, 40 L 172, 40 L 174, 40 L 176, 40 L 178, 40 L 180, 40 L 182, 40 L 184, 40 L 186, 40 L 188, 40 L 190, 40 L 192, 40 L 194, 40 L 196, 40 L 198, 40 L 200, 40 L 202, 40 L 204, 40 L 206, 40 L 208, 40 L 210, 40"></path><path d="M 10, 41 L 12, 41 L 14, 41 L 16, 41 L 18, 41 L 20, 41 L 22, 41 L 24, 41 L 26, 41 L 28, 41 L 30, 41 L 32, 41 L 34, 41 L 36, 41 L 38, 41 L 40, 41 L 42, 41 L 44, 41 L 46, 41 L 48, 41 L 50, 41 L 52, 41 L 54, 41 L 56, 41 L 58, 41 L 60, 41 L 62, 41 L 64, 41 L 66, 41 L 68, 41 L 70, 41 L 72, 41 L 74, 41 L 76, 41 L 78, 41 L 80, 41 L 82, 41 L 84, 41 L 86, 41 L 88, 41 L 90, 41 L 92, 41 L 94, 41 L 96, 41 L 98, 41 L 100, 41 L 102, 41 L 104, 41 L 106, 41 L 108, 41 L 110, 41 L 112, 41 L 114, 41 L 116, 41 L 118, 41 L 120, 41 L 122, 41 L 124, 41 L 126, 41 L 128, 41 L 130, 41 L 132, 41 L 134, 41 L 136, 41 L 138, 41 L 140, 41 L 142, 41 L 144, 41 L 146, 41 L 148, 41 L 150, 41 L 152, 41 L 154, 41 L 156, 41 L 158, 41 L 160, 41 L 162, 41 L 164, 41 L 166, 41 L 168, 41 L 170, 41 L 172, 41 L 174, 41 L 176, 41 L 178, 41 L 180, 41 L 182, 41 L 184, 41 L 186, 41 L 188, 41 L 190, 41 L 192, 41 L 194, 41 L 196, 41 L 198, 41 L 200, 41 L 202, 41 L 204, 41 L 206, 41 L 208, 41 L 210, 41"></path><path d="M 10, 42 L 12, 42 L 14, 42 L 16, 42 L 18, 42 L 20, 42 L 22, 42 L 24, 42 L 26, 42 L 28, 42 L 30, 42 L 32, 42 L 34, 42 L 36, 42 L 38, 42 L 40, 42 L 42, 42 L 44, 42 L 46, 42 L 48, 42 L 50, 42 L 52, 42 L 54, 42 L 56, 42 L 58, 42 L 60, 42 L 62, 42 L 64, 42 L 66, 42 L 68, 42 L 70, 42 L 72, 42 L 74, 42 L 76, 42 L 78, 42 L 80, 42 L 82, 42 L 84, 42 L 86, 42 L 88, 42 L 90, 42 L 92, 42 L 94, 42 L 96, 42 L 98, 42 L 100, 42 L 102, 42 L 104, 42 L 106, 42 L 108, 42 L 110, 42 L 112, 42 L 114, 42 L 116, 42 L 118, 42 L 120, 42 L 122, 42 L 124, 42 L 126, 42 L 128, 42 L 130, 42 L 132, 42 L 134, 42 L 136, 42 L 138, 42 L 140, 42 L 142, 42 L 144, 42 L 146, 42 L 148, 42 L 150, 42 L 152, 42 L 154, 42 L 156, 42 L 158, 42 L 160, 42 L 162, 42 L 164, 42 L 166, 42 L 168, 42 L 170, 42 L 172, 42 L 174, 42 L 176, 42 L 178, 42 L 180, 42 L 182, 42 L 184, 42 L 186, 42 L 188, 42 L 190, 42 L 192, 42 L 194, 42 L 196, 42 L 198, 42 L 200, 42 L 202, 42 L 204, 42 L 206, 42 L 208, 42 L 210, 42"></path><path d="M 10, 43 L 12, 43 L 14, 43 L 16, 43 L 18, 43 L 20, 43 L 22, 43 L 24, 43 L 26, 43 L 28, 43 L 30, 43 L 32, 43 L 34, 43 L 36, 43 L 38, 43 L 40, 43 L 42, 43 L 44, 43 L 46, 43 L 48, 43 L 50, 43 L 52, 43 L 54, 43 L 56, 43 L 58, 43 L 60, 43 L 62, 43 L 64, 43 L 66, 43 L 68, 43 L 70, 43 L 72, 43 L 74, 43 L 76, 43 L 78, 43 L 80, 43 L 82, 43 L 84, 43 L 86, 43 L 88, 43 L 90, 43 L 92, 43 L 94, 43 L 96, 43 L 98, 43 L 100, 43 L 102, 43 L 104, 43 L 106, 43 L 108, 43 L 110, 43 L 112, 43 L 114, 43 L 116, 43 L 118, 43 L 120, 43 L 122, 43 L 124, 43 L 126, 43 L 128, 43 L 130, 43 L 132, 43 L 134, 43 L 136, 43 L 138, 43 L 140, 43 L 142, 43 L 144, 43 L 146, 43 L 148, 43 L 150, 43 L 152, 43 L 154, 43 L 156, 43 L 158, 43 L 160, 43 L 162, 43 L 164, 43 L 166, 43 L 168, 43 L 170, 43 L 172, 43 L 174, 43 L 176, 43 L 178, 43 L 180, 43 L 182, 43 L 184, 43 L 186, 43 L 188, 43 L 190, 43 L 192, 43 L 194, 43 L 196, 43 L 198, 43 L 200, 43 L 202, 43 L 204, 43 L 206, 43 L 208, 43 L 210, 43"></path><path d="M 10, 44 L 12, 44 L 14, 44 L 16, 44 L 18, 44 L 20, 44 L 22, 44 L 24, 44 L 26, 44 L 28, 44 L 30, 44 L 32, 44 L 34, 44 L 36, 44 L 38, 44 L 40, 44 L 42, 44 L 44, 44 L 46, 44 L 48, 44 L 50, 44 L 52, 44 L 54, 44 L 56, 44 L 58, 44 L 60, 44 L 62, 44 L 64, 44 L 66, 44 L 68, 44 L 70, 44 L 72, 44 L 74, 44 L 76, 44 L 78, 44 L 80, 44 L 82, 44 L 84, 44 L 86, 44 L 88, 44 L 90, 44 L 92, 44 L 94, 44 L 96, 44 L 98, 44 L 100, 44 L 102, 44 L 104, 44 L 106, 44 L 108, 44 L 110, 44 L 112, 44 L 114, 44 L 116, 44 L 118, 44 L 120, 44 L 122, 44 L 124, 44 L 126, 44 L 128, 44 L 130, 44 L 132, 44 L 134, 44 L 136, 44 L 138, 44 L 140, 44 L 142, 44 L 144, 44 L 146, 44 L 148, 44 L 150, 44 L 152, 44 L 154, 44 L 156, 44 L 158, 44 L 160, 44 L 162, 44 L 164, 44 L 166, 44 L 168, 44 L 170, 44 L 172, 44 L 174, 44 L 176, 44 L 178, 44 L 180, 44 L 182, 44 L 184, 44 L 186, 44 L 188, 44 L 190, 44 L 192, 44 L 194, 44 L 196, 44 L 198, 44 L 200, 44 L 202, 44 L 204, 44 L 206, 44 L 208, 44 L 210, 44"></path><path d="M 10, 45 L 12, 45 L 14, 45 L 16, 45 L 18, 45 L 20, 45 L 22, 45 L 24, 45 L 26, 45 L 28, 45 L 30, 45 L 32, 45 L 34, 45 L 36, 45 L 38, 45 L 40, 45 L 42, 45 L 44, 45 L 46, 45 L 48, 45 L 50, 45 L 52, 45 L 54, 45 L 56, 45 L 58, 45 L 60, 45 L 62, 45 L 64, 45 L 66, 45 L 68, 45 L 70, 45 L 72, 45 L 74, 45 L 76, 45 L 78, 45 L 80, 45 L 82, 45 L 84, 45 L 86, 45 L 88, 45 L 90, 45 L 92, 45 L 94, 45 L 96, 45 L 98, 45 L 100, 45 L 102, 45 L 104, 45 L 106, 45 L 108, 45 L 110, 45 L 112, 45 L 114, 45 L 116, 45 L 118, 45 L 120, 45 L 122, 45 L 124, 45 L 126, 45 L 128, 45 L 130, 45 L 132, 45 L 134, 45 L 136, 45 L 138, 45 L 140, 45 L 142, 45 L 144, 45 L 146, 45 L 148, 45 L 150, 45 L 152, 45 L 154, 45 L 156, 45 L 158, 45 L 160, 45 L 162, 45 L 164, 45 L 166, 45 L 168, 45 L 170, 45 L 172, 45 L 174, 45 L 176, 45 L 178, 45 L 180, 45 L 182, 45 L 184, 45 L 186, 45 L 188, 45 L 190, 45 L 192, 45 L 194, 45 L 196, 45 L 198, 45 L 200, 45 L 202, 45 L 204, 45 L 206, 45 L 208, 45 L 210, 45"></path><path d="M 10, 46 L 12, 46 L 14, 46 L 16, 46 L 18, 46 L 20, 46 L 22, 46 L 24, 46 L 26, 46 L 28, 46 L 30, 46 L 32, 46 L 34, 46 L 36, 46 L 38, 46 L 40, 46 L 42, 46 L 44, 46 L 46, 46 L 48, 46 L 50, 46 L 52, 46 L 54, 46 L 56, 46 L 58, 46 L 60, 46 L 62, 46 L 64, 46 L 66, 46 L 68, 46 L 70, 46 L 72, 46 L 74, 46 L 76, 46 L 78, 46 L 80, 46 L 82, 46 L 84, 46 L 86, 46 L 88, 46 L 90, 46 L 92, 46 L 94, 46 L 96, 46 L 98, 46 L 100, 46 L 102, 46 L 104, 46 L 106, 46 L 108, 46 L 110, 46 L 112, 46 L 114, 46 L 116, 46 L 118, 46 L 120, 46 L 122, 46 L 124, 46 L 126, 46 L 128, 46 L 130, 46 L 132, 46 L 134, 46 L 136, 46 L 138, 46 L 140, 46 L 142, 46 L 144, 46 L 146, 46 L 148, 46 L 150, 46 L 152, 46 L 154, 46 L 156, 46 L 158, 46 L 160, 46 L 162, 46 L 164, 46 L 166, 46 L 168, 46 L 170, 46 L 172, 46 L 174, 46 L 176, 46 L 178, 46 L 180, 46 L 182, 46 L 184, 46 L 186, 46 L 188, 46 L 190, 46 L 192, 46 L 194, 46 L 196, 46 L 198, 46 L 200, 46 L 202, 46 L 204, 46 L 206, 46 L 208, 46 L 210, 46"></path><path d="M 10, 47 L 12, 47 L 14, 47 L 16, 47 L 18, 47 L 20, 47 L 22, 47 L 24, 47 L 26, 47 L 28, 47 L 30, 47 L 32, 47 L 34, 47 L 36, 47 L 38, 47 L 40, 47 L 42, 47 L 44, 47 L 46, 47 L 48, 47 L 50, 47 L 52, 47 L 54, 47 L 56, 47 L 58, 47 L 60, 47 L 62, 47 L 64, 47 L 66, 47 L 68, 47 L 70, 47 L 72, 47 L 74, 47 L 76, 47 L 78, 47 L 80, 47 L 82, 47 L 84, 47 L 86, 47 L 88, 47 L 90, 47 L 92, 47 L 94, 47 L 96, 47 L 98, 47 L 100, 47 L 102, 47 L 104, 47 L 106, 47 L 108, 47 L 110, 47 L 112, 47 L 114, 47 L 116, 47 L 118, 47 L 120, 47 L 122, 47 L 124, 47 L 126, 47 L 128, 47 L 130, 47 L 132, 47 L 134, 47 L 136, 47 L 138, 47 L 140, 47 L 142, 47 L 144, 47 L 146, 47 L 148, 47 L 150, 47 L 152, 47 L 154, 47 L 156, 47 L 158, 47 L 160, 47 L 162, 47 L 164, 47 L 166, 47 L 168, 47 L 170, 47 L 172, 47 L 174, 47 L 176, 47 L 178, 47 L 180, 47 L 182, 47 L 184, 47 L 186, 47 L 188, 47 L 190, 47 L 192, 47 L 194, 47 L 196, 47 L 198, 47 L 200, 47 L 202, 47 L 204, 47 L 206, 47 L 208, 47 L 210, 47"></path><path d="M 10, 48 L 12, 48 L 14, 48 L 16, 48 L 18, 48 L 20, 48 L 22, 48 L 24, 48 L 26, 48 L 28, 48 L 30, 48 L 32, 48 L 34, 48 L 36, 48 L 38, 48 L 40, 48 L 42, 48 L 44, 48 L 46, 48 L 48, 48 L 50, 48 L 52, 48 L 54, 48 L 56, 48 L 58, 48 L 60, 48 L 62, 48 L 64, 48 L 66, 48 L 68, 48 L 70, 48 L 72, 48 L 74, 48 L 76, 48 L 78, 48 L 80, 48 L 82, 48 L 84, 48 L 86, 48 L 88, 48 L 90, 48 L 92, 48 L 94, 48 L 96, 48 L 98, 48 L 100, 48 L 102, 48 L 104, 48 L 106, 48 L 108, 48 L 110, 48 L 112, 48 L 114, 48 L 116, 48 L 118, 48 L 120, 48 L 122, 48 L 124, 48 L 126, 48 L 128, 48 L 130, 48 L 132, 48 L 134, 48 L 136, 48 L 138, 48 L 140, 48 L 142, 48 L 144, 48 L 146, 48 L 148, 48 L 150, 48 L 152, 48 L 154, 48 L 156, 48 L 158, 48 L 160, 48 L 162, 48 L 164, 48 L 166, 48 L 168, 48 L 170, 48 L 172, 48 L 174, 48 L 176, 48 L 178, 48 L 180, 48 L 182, 48 L 184, 48 L 186, 48 L 188, 48 L 190, 48 L 192, 48 L 194, 48 L 196, 48 L 198, 48 L 200, 48 L 202, 48 L 204, 48 L 206, 48 L 208, 48 L 210, 48"></path><path d="M 10, 49 L 12, 49 L 14, 49 L 16, 49 L 18, 49 L 20, 49 L 22, 49 L 24, 49 L 26, 49 L 28, 49 L 30, 49 L 32, 49 L 34, 49 L 36, 49 L 38, 49 L 40, 49 L 42, 49 L 44, 49 L 46, 49 L 48, 49 L 50, 49 L 52, 49 L 54, 49 L 56, 49 L 58, 49 L 60, 49 L 62, 49 L 64, 49 L 66, 49 L 68, 49 L 70, 49 L 72, 49 L 74, 49 L 76, 49 L 78, 49 L 80, 49 L 82, 49 L 84, 49 L 86, 49 L 88, 49 L 90, 49 L 92, 49 L 94, 49 L 96, 49 L 98, 49 L 100, 49 L 102, 49 L 104, 49 L 106, 49 L 108, 49 L 110, 49 L 112, 49 L 114, 49 L 116, 49 L 118, 49 L 120, 49 L 122, 49 L 124, 49 L 126, 49 L 128, 49 L 130, 49 L 132, 49 L 134, 49 L 136, 49 L 138, 49 L 140, 49 L 142, 49 L 144, 49 L 146, 49 L 148, 49 L 150, 49 L 152, 49 L 154, 49 L 156, 49 L 158, 49 L 160, 49 L 162, 49 L 164, 49 L 166, 49 L 168, 49 L 170, 49 L 172, 49 L 174, 49 L 176, 49 L 178, 49 L 180, 49 L 182, 49 L 184, 49 L 186, 49 L 188, 49 L 190, 49 L 192, 49 L 194, 49 L 196, 49 L 198, 49 L 200, 49 L 202, 49 L 204, 49 L 206, 49 L 208, 49 L 210, 49"></path><path d="M 10, 50 L 12, 50 L 14, 50 L 16, 50 L 18, 50 L 20, 50 L 22, 50 L 24, 50 L 26, 50 L 28, 50 L 30, 50 L 32, 50 L 34, 50 L 36, 50 L 38, 50 L 40, 50 L 42, 50 L 44, 50 L 46, 50 L 48, 50 L 50, 50 L 52, 50 L 54, 50 L 56, 50 L 58, 50 L 60, 50 L 62, 50 L 64, 50 L 66, 50 L 68, 50 L 70, 50 L 72, 50 L 74, 50 L 76, 50 L 78, 50 L 80, 50 L 82, 50 L 84, 50 L 86, 50 L 88, 50 L 90, 50 L 92, 50 L 94, 50 L 96, 50 L 98, 50 L 100, 50 L 102, 50 L 104, 50 L 106, 50 L 108, 50 L 110, 50 L 112, 50 L 114, 50 L 116, 50 L 118, 50 L 120, 50 L 122, 50 L 124, 50 L 126, 50 L 128, 50 L 130, 50 L 132, 50 L 134, 50 L 136, 50 L 138, 50 L 140, 50 L 142, 50 L 144, 50 L 146, 50 L 148, 50 L 150, 50 L 152, 50 L 154, 50 L 156, 50 L 158, 50 L 160, 50 L 162, 50 L 164, 50 L 166, 50 L 168, 50 L 170, 50 L 172, 50 L 174, 50 L 176, 50 L 178, 50 L 180, 50 L 182, 50 L 184, 50 L 186, 50 L 188, 50 L 190, 50 L 192, 50 L 194, 50 L 196, 50 L 198, 50 L 200, 50 L 202, 50 L 204, 50 L 206, 50 L 208, 50 L 210, 50"></path><path d="M 10, 51 L 12, 51 L 14, 51 L 16, 51 L 18, 51 L 20, 51 L 22, 51 L 24, 51 L 26, 51 L 28, 51 L 30, 51 L 32, 51 L 34, 51 L 36, 51 L 38, 51 L 40, 51 L 42, 51 L 44, 51 L 46, 51 L 48, 51 L 50, 51 L 52, 51 L 54, 51 L 56, 51 L 58, 51 L 60, 51 L 62, 51 L 64, 51 L 66, 51 L 68, 51 L 70, 51 L 72, 51 L 74, 51 L 76, 51 L 78, 51 L 80, 51 L 82, 51 L 84, 51 L 86, 51 L 88, 51 L 90, 51 L 92, 51 L 94, 51 L 96, 51 L 98, 51 L 100, 51 L 102, 51 L 104, 51 L 106, 51 L 108, 51 L 110, 51 L 112, 51 L 114, 51 L 116, 51 L 118, 51 L 120, 51 L 122, 51 L 124, 51 L 126, 51 L 128, 51 L 130, 51 L 132, 51 L 134, 51 L 136, 51 L 138, 51 L 140, 51 L 142, 51 L 144, 51 L 146, 51 L 148, 51 L 150, 51 L 152, 51 L 154, 51 L 156, 51 L 158, 51 L 160, 51 L 162, 51 L 164, 51 L 166, 51 L 168, 51 L 170, 51 L 172, 51 L 174, 51 L 176, 51 L 178, 51 L 180, 51 L 182, 51 L 184, 51 L 186, 51 L 188, 51 L 190, 51 L 192, 51 L 194, 51 L 196, 51 L 198, 51 L 200, 51 L 202, 51 L 204, 51 L 206, 51 L 208, 51 L 210, 51"></path><path d="M 10, 52 L 12, 52 L 14, 52 L 16, 52 L 18, 52 L 20, 52 L 22, 52 L 24, 52 L 26, 52 L 28, 52 L 30, 52 L 32, 52 L 34, 52 L 36, 52 L 38, 52 L 40, 52 L 42, 52 L 44, 52 L 46, 52 L 48, 52 L 50, 52 L 52, 52 L 54, 52 L 56, 52 L 58, 52 L 60, 52 L 62, 52 L 64, 52 L 66, 52 L 68, 52 L 70, 52 L 72, 52 L 74, 52 L 76, 52 L 78, 52 L 80, 52 L 82, 52 L 84, 52 L 86, 52 L 88, 52 L 90, 52 L 92, 52 L 94, 52 L 96, 52 L 98, 52 L 100, 52 L 102, 52 L 104, 52 L 106, 52 L 108, 52 L 110, 52 L 112, 52 L 114, 52 L 116, 52 L 118, 52 L 120, 52 L 122, 52 L 124, 52 L 126, 52 L 128, 52 L 130, 52 L 132, 52 L 134, 52 L 136, 52 L 138, 52 L 140, 52 L 142, 52 L 144, 52 L 146, 52 L 148, 52 L 150, 52 L 152, 52 L 154, 52 L 156, 52 L 158, 52 L 160, 52 L 162, 52 L 164, 52 L 166, 52 L 168, 52 L 170, 52 L 172, 52 L 174, 52 L 176, 52 L 178, 52 L 180, 52 L 182, 52 L 184, 52 L 186, 52 L 188, 52 L 190, 52 L 192, 52 L 194, 52 L 196, 52 L 198, 52 L 200, 52 L 202, 52 L 204, 52 L 206, 52 L 208, 52 L 210, 52"></path><path d="M 10, 53 L 12, 53 L 14, 53 L 16, 53 L 18, 53 L 20, 53 L 22, 53 L 24, 53 L 26, 53 L 28, 53 L 30, 53 L 32, 53 L 34, 53 L 36, 53 L 38, 53 L 40, 53 L 42, 53 L 44, 53 L 46, 53 L 48, 53 L 50, 53 L 52, 53 L 54, 53 L 56, 53 L 58, 53 L 60, 53 L 62, 53 L 64, 53 L 66, 53 L 68, 53 L 70, 53 L 72, 53 L 74, 53 L 76, 53 L 78, 53 L 80, 53 L 82, 53 L 84, 53 L 86, 53 L 88, 53 L 90, 53 L 92, 53 L 94, 53 L 96, 53 L 98, 53 L 100, 53 L 102, 53 L 104, 53 L 106, 53 L 108, 53 L 110, 53 L 112, 53 L 114, 53 L 116, 53 L 118, 53 L 120, 53 L 122, 53 L 124, 53 L 126, 53 L 128, 53 L 130, 53 L 132, 53 L 134, 53 L 136, 53 L 138, 53 L 140, 53 L 142, 53 L 144, 53 L 146, 53 L 148, 53 L 150, 53 L 152, 53 L 154, 53 L 156, 53 L 158, 53 L 160, 53 L 162, 53 L 164, 53 L 166, 53 L 168, 53 L 170, 53 L 172, 53 L 174, 53 L 176, 53 L 178, 53 L 180, 53 L 182, 53 L 184, 53 L 186, 53 L 188, 53 L 190, 53 L 192, 53 L 194, 53 L 196, 53 L 198, 53 L 200, 53 L 202, 53 L 204, 53 L 206, 53 L 208, 53 L 210, 53"></path><path d="M 10, 54 L 12, 54 L 14, 54 L 16, 54 L 18, 54 L 20, 54 L 22, 54 L 24, 54 L 26, 54 L 28, 54 L 30, 54 L 32, 54 L 34, 54 L 36, 54 L 38, 54 L 40, 54 L 42, 54 L 44, 54 L 46, 54 L 48, 54 L 50, 54 L 52, 54 L 54, 54 L 56, 54 L 58, 54 L 60, 54 L 62, 54 L 64, 54 L 66, 54 L 68, 54 L 70, 54 L 72, 54 L 74, 54 L 76, 54 L 78, 54 L 80, 54 L 82, 54 L 84, 54 L 86, 54 L 88, 54 L 90, 54 L 92, 54 L 94, 54 L 96, 54 L 98, 54 L 100, 54 L 102, 54 L 104, 54 L 106, 54 L 108, 54 L 110, 54 L 112, 54 L 114, 54 L 116, 54 L 118, 54 L 120, 54 L 122, 54 L 124, 54 L 126, 54 L 128, 54 L 130, 54 L 132, 54 L 134, 54 L 136, 54 L 138, 54 L 140, 54 L 142, 54 L 144, 54 L 146, 54 L 148, 54 L 150, 54 L 152, 54 L 154, 54 L 156, 54 L 158, 54 L 160, 54 L 162, 54 L 164, 54 L 166, 54 L 168, 54 L 170, 54 L 172, 54 L 174, 54 L 176, 54 L 178, 54 L 180, 54 L 182, 54 L 184, 54 L 186, 54 L 188, 54 L 190, 54 L 192, 54 L 194, 54 L 196, 54 L 198, 54 L 200, 54 L 202, 54 L 204, 54 L 206, 54 L 208, 54 L 210, 54"></path><path d="M 10, 55 L 12, 55 L 14, 55 L 16, 55 L 18, 55 L 20, 55 L 22, 55 L 24, 55 L 26, 55 L 28, 55 L 30, 55 L 32, 55 L 34, 55 L 36, 55 L 38, 55 L 40, 55 L 42, 55 L 44, 55 L 46, 55 L 48, 55 L 50, 55 L 52, 55 L 54, 55 L 56, 55 L 58, 55 L 60, 55 L 62, 55 L 64, 55 L 66, 55 L 68, 55 L 70, 55 L 72, 55 L 74, 55 L 76, 55 L 78, 55 L 80, 55 L 82, 55 L 84, 55 L 86, 55 L 88, 55 L 90, 55 L 92, 55 L 94, 55 L 96, 55 L 98, 55 L 100, 55 L 102, 55 L 104, 55 L 106, 55 L 108, 55 L 110, 55 L 112, 55 L 114, 55 L 116, 55 L 118, 55 L 120, 55 L 122, 55 L 124, 55 L 126, 55 L 128, 55 L 130, 55 L 132, 55 L 134, 55 L 136, 55 L 138, 55 L 140, 55 L 142, 55 L 144, 55 L 146, 55 L 148, 55 L 150, 55 L 152, 55 L 154, 55 L 156, 55 L 158, 55 L 160, 55 L 162, 55 L 164, 55 L 166, 55 L 168, 55 L 170, 55 L 172, 55 L 174, 55 L 176, 55 L 178, 55 L 180, 55 L 182, 55 L 184, 55 L 186, 55 L 188, 55 L 190, 55 L 192, 55 L 194, 55 L 196, 55 L 198, 55 L 200, 55 L 202, 55 L 204, 55 L 206, 55 L 208, 55 L 210, 55"></path><path d="M 10, 56 L 12, 56 L 14, 56 L 16, 56 L 18, 56 L 20, 56 L 22, 56 L 24, 56 L 26, 56 L 28, 56 L 30, 56 L 32, 56 L 34, 56 L 36, 56 L 38, 56 L 40, 56 L 42, 56 L 44, 56 L 46, 56 L 48, 56 L 50, 56 L 52, 56 L 54, 56 L 56, 56 L 58, 56 L 60, 56 L 62, 56 L 64, 56 L 66, 56 L 68, 56 L 70, 56 L 72, 56 L 74, 56 L 76, 56 L 78, 56 L 80, 56 L 82, 56 L 84, 56 L 86, 56 L 88, 56 L 90, 56 L 92, 56 L 94, 56 L 96, 56 L 98, 56 L 100, 56 L 102, 56 L 104, 56 L 106, 56 L 108, 56 L 110, 56 L 112, 56 L 114, 56 L 116, 56 L 118, 56 L 120, 56 L 122, 56 L 124, 56 L 126, 56 L 128, 56 L 130, 56 L 132, 56 L 134, 56 L 136, 56 L 138, 56 L 140, 56 L 142, 56 L 144, 56 L 146, 56 L 148, 56 L 150, 56 L 152, 56 L 154, 56 L 156, 56 L 158, 56 L 160, 56 L 162, 56 L 164, 56 L 166, 56 L 168, 56 L 170, 56 L 172, 56 L 174, 56 L 176, 56 L 178, 56 L 180, 56 L 182, 56 L 184, 56 L 186, 56 L 188, 56 L 190, 56 L 192, 56 L 194, 56 L 196, 56 L 198, 56 L 200, 56 L 202, 56 L 204, 56 L 206, 56 L 208, 56 L 210, 56"></path><path d="M 10, 57 L 12, 57 L 14, 57 L 16, 57 L 18, 57 L 20, 57 L 22, 57 L 24, 57 L 26, 57 L 28, 57 L 30, 57 L 32, 57 L 34, 57 L 36, 57 L 38, 57 L 40, 57 L 42, 57 L 44, 57 L 46, 57 L 48, 57 L 50, 57 L 52, 57 L 54, 57 L 56, 57 L 58, 57 L 60, 57 L 62, 57 L 64, 57 L 66, 57 L 68, 57 L 70, 57 L 72, 57 L 74, 57 L 76, 57 L 78, 57 L 80, 57 L 82, 57 L 84, 57 L 86, 57 L 88, 57 L 90, 57 L 92, 57 L 94, 57 L 96, 57 L 98, 57 L 100, 57 L 102, 57 L 104, 57 L 106, 57 L 108, 57 L 110, 57 L 112, 57 L 114, 57 L 116, 57 L 118, 57 L 120, 57 L 122, 57 L 124, 57 L 126, 57 L 128, 57 L 130, 57 L 132, 57 L 134, 57 L 136, 57 L 138, 57 L 140, 57 L 142, 57 L 144, 57 L 146, 57 L 148, 57 L 150, 57 L 152, 57 L 154, 57 L 156, 57 L 158, 57 L 160, 57 L 162, 57 L 164, 57 L 166, 57 L 168, 57 L 170, 57 L 172, 57 L 174, 57 L 176, 57 L 178, 57 L 180, 57 L 182, 57 L 184, 57 L 186, 57 L 188, 57 L 190, 57 L 192, 57 L 194, 57 L 196, 57 L 198, 57 L 200, 57 L 202, 57 L 204, 57 L 206, 57 L 208, 57 L 210, 57"></path><path d="M 10, 58 L 12, 58 L 14, 58 L 16, 58 L 18, 58 L 20, 58 L 22, 58 L 24, 58 L 26, 58 L 28, 58 L 30, 58 L 32, 58 L 34, 58 L 36, 58 L 38, 58 L 40, 58 L 42, 58 L 44, 58 L 46, 58 L 48, 58 L 50, 58 L 52, 58 L 54, 58 L 56, 58 L 58, 58 L 60, 58 L 62, 58 L 64, 58 L 66, 58 L 68, 58 L 70, 58 L 72, 58 L 74, 58 L 76, 58 L 78, 58 L 80, 58 L 82, 58 L 84, 58 L 86, 58 L 88, 58 L 90, 58 L 92, 58 L 94, 58 L 96, 58 L 98, 58 L 100, 58 L 102, 58 L 104, 58 L 106, 58 L 108, 58 L 110, 58 L 112, 58 L 114, 58 L 116, 58 L 118, 58 L 120, 58 L 122, 58 L 124, 58 L 126, 58 L 128, 58 L 130, 58 L 132, 58 L 134, 58 L 136, 58 L 138, 58 L 140, 58 L 142, 58 L 144, 58 L 146, 58 L 148, 58 L 150, 58 L 152, 58 L 154, 58 L 156, 58 L 158, 58 L 160, 58 L 162, 58 L 164, 58 L 166, 58 L 168, 58 L 170, 58 L 172, 58 L 174, 58 L 176, 58 L 178, 58 L 180, 58 L 182, 58 L 184, 58 L 186, 58 L 188, 58 L 190, 58 L 192, 58 L 194, 58 L 196, 58 L 198, 58 L 200, 58 L 202, 58 L 204, 58 L 206, 58 L 208, 58 L 210, 58"></path><path d="M 10, 59 L 12, 59 L 14, 59 L 16, 59 L 18, 59 L 20, 59 L 22, 59 L 24, 59 L 26, 59 L 28, 59 L 30, 59 L 32, 59 L 34, 59 L 36, 59 L 38, 59 L 40, 59 L 42, 59 L 44, 59 L 46, 59 L 48, 59 L 50, 59 L 52, 59 L 54, 59 L 56, 59 L 58, 59 L 60, 59 L 62, 59 L 64, 59 L 66, 59 L 68, 59 L 70, 59 L 72, 59 L 74, 59 L 76, 59 L 78, 59 L 80, 59 L 82, 59 L 84, 59 L 86, 59 L 88, 59 L 90, 59 L 92, 59 L 94, 59 L 96, 59 L 98, 59 L 100, 59 L 102, 59 L 104, 59 L 106, 59 L 108, 59 L 110, 59 L 112, 59 L 114, 59 L 116, 59 L 118, 59 L 120, 59 L 122, 59 L 124, 59 L 126, 59 L 128, 59 L 130, 59 L 132, 59 L 134, 59 L 136, 59 L 138, 59 L 140, 59 L 142, 59 L 144, 59 L 146, 59 L 148, 59 L 150, 59 L 152, 59 L 154, 59 L 156, 59 L 158, 59 L 160, 59 L 162, 59 L 164, 59 L 166, 59 L 168, 59 L 170, 59 L 172, 59 L 174, 59 L 176, 59 L 178, 59 L 180, 59 L 182, 59 L 184, 59 L 186, 59 L 188, 59 L 190, 59 L 192, 59 L 194, 59 L 196, 59 L 198, 59 L 200, 59 L 202, 59 L 204, 59 L 206, 59 L 208, 59 L 210, 59"></path><path d="M 10, 60 L 12, 60 L 14, 60 L 16, 60 L 18, 60 L 20, 60 L 22, 60 L 24, 60 L 26, 60 L 28, 60 L 30, 60 L 32, 60 L 34, 60 L 36, 60 L 38, 60 L 40, 60 L 42, 60 L 44, 60 L 46, 60 L 48, 60 L 50, 60 L 52, 60 L 54, 60 L 56, 60 L 58, 60 L 60, 60 L 62, 60 L 64, 60 L 66, 60 L 68, 60 L 70, 60 L 72, 60 L 74, 60 L 76, 60 L 78, 60 L 80, 60 L 82, 60 L 84, 60 L 86, 60 L 88, 60 L 90, 60 L 92, 60 L 94, 60 L 96, 60 L 98, 60 L 100, 60 L 102, 60 L 104, 60 L 106, 60 L 108, 60 L 110, 60 L 112, 60 L 114, 60 L 116, 60 L 118, 60 L 120, 60 L 122, 60 L 124, 60 L 126, 60 L 128, 60 L 130, 60 L 132, 60 L 134, 60 L 136, 60 L 138, 60 L 140, 60 L 142, 60 L 144, 60 L 146, 60 L 148, 60 L 150, 60 L 152, 60 L 154, 60 L 156, 60 L 158, 60 L 160, 60 L 162, 60 L 164, 60 L 166, 60 L 168, 60 L 170, 60 L 172, 60 L 174, 60 L 176, 60 L 178, 60 L 180, 60 L 182, 60 L 184, 60 L 186, 60 L 188, 60 L 190, 60 L 192, 60 L 194, 60 L 196, 60 L 198, 60 L 200, 60 L 202, 60 L 204, 60 L 206, 60 L 208, 60 L 210, 60"></path><path d="M 10, 61 L 12, 61 L 14, 61 L 16, 61 L 18, 61 L 20, 61 L 22, 61 L 24, 61 L 26, 61 L 28, 61 L 30, 61 L 32, 61 L 34, 61 L 36, 61 L 38, 61 L 40, 61 L 42, 61 L 44, 61 L 46, 61 L 48, 61 L 50, 61 L 52, 61 L 54, 61 L 56, 61 L 58, 61 L 60, 61 L 62, 61 L 64, 61 L 66, 61 L 68, 61 L 70, 61 L 72, 61 L 74, 61 L 76, 61 L 78, 61 L 80, 61 L 82, 61 L 84, 61 L 86, 61 L 88, 61 L 90, 61 L 92, 61 L 94, 61 L 96, 61 L 98, 61 L 100, 61 L 102, 61 L 104, 61 L 106, 61 L 108, 61 L 110, 61 L 112, 61 L 114, 61 L 116, 61 L 118, 61 L 120, 61 L 122, 61 L 124, 61 L 126, 61 L 128, 61 L 130, 61 L 132, 61 L 134, 61 L 136, 61 L 138, 61 L 140, 61 L 142, 61 L 144, 61 L 146, 61 L 148, 61 L 150, 61 L 152, 61 L 154, 61 L 156, 61 L 158, 61 L 160, 61 L 162, 61 L 164, 61 L 166, 61 L 168, 61 L 170, 61 L 172, 61 L 174, 61 L 176, 61 L 178, 61 L 180, 61 L 182, 61 L 184, 61 L 186, 61 L 188, 61 L 190, 61 L 192, 61 L 194, 61 L 196, 61 L 198, 61 L 200, 61 L 202, 61 L 204, 61 L 206, 61 L 208, 61 L 210, 61"></path><path d="M 10, 62 L 12, 62 L 14, 62 L 16, 62 L 18, 62 L 20, 62 L 22, 62 L 24, 62 L 26, 62 L 28, 62 L 30, 62 L 32, 62 L 34, 62 L 36, 62 L 38, 62 L 40, 62 L 42, 62 L 44, 62 L 46, 62 L 48, 62 L 50, 62 L 52, 62 L 54, 62 L 56, 62 L 58, 62 L 60, 62 L 62, 62 L 64, 62 L 66, 62 L 68, 62 L 70, 62 L 72, 62 L 74, 62 L 76, 62 L 78, 62 L 80, 62 L 82, 62 L 84, 62 L 86, 62 L 88, 62 L 90, 62 L 92, 62 L 94, 62 L 96, 62 L 98, 62 L 100, 62 L 102, 62 L 104, 62 L 106, 62 L 108, 62 L 110, 62 L 112, 62 L 114, 62 L 116, 62 L 118, 62 L 120, 62 L 122, 62 L 124, 62 L 126, 62 L 128, 62 L 130, 62 L 132, 62 L 134, 62 L 136, 62 L 138, 62 L 140, 62 L 142, 62 L 144, 62 L 146, 62 L 148, 62 L 150, 62 L 152, 62 L 154, 62 L 156, 62 L 158, 62 L 160, 62 L 162, 62 L 164, 62 L 166, 62 L 168, 62 L 170, 62 L 172, 62 L 174, 62 L 176, 62 L 178, 62 L 180, 62 L 182, 62 L 184, 62 L 186, 62 L 188, 62 L 190, 62 L 192, 62 L 194, 62 L 196, 62 L 198, 62 L 200, 62 L 202, 62 L 204, 62 L 206, 62 L 208, 62 L 210, 62"></path><path d="M 10, 63 L 12, 63 L 14, 63 L 16, 63 L 18, 63 L 20, 63 L 22, 63 L 24, 63 L 26, 63 L 28, 63 L 30, 63 L 32, 63 L 34, 63 L 36, 63 L 38, 63 L 40, 63 L 42, 63 L 44, 63 L 46, 63 L 48, 63 L 50, 63 L 52, 63 L 54, 63 L 56, 63 L 58, 63 L 60, 63 L 62, 63 L 64, 63 L 66, 63 L 68, 63 L 70, 63 L 72, 63 L 74, 63 L 76, 63 L 78, 63 L 80, 63 L 82, 63 L 84, 63 L 86, 63 L 88, 63 L 90, 63 L 92, 63 L 94, 63 L 96, 63 L 98, 63 L 100, 63 L 102, 63 L 104, 63 L 106, 63 L 108, 63 L 110, 63 L 112, 63 L 114, 63 L 116, 63 L 118, 63 L 120, 63 L 122, 63 L 124, 63 L 126, 63 L 128, 63 L 130, 63 L 132, 63 L 134, 63 L 136, 63 L 138, 63 L 140, 63 L 142, 63 L 144, 63 L 146, 63 L 148, 63 L 150, 63 L 152, 63 L 154, 63 L 156, 63 L 158, 63 L 160, 63 L 162, 63 L 164, 63 L 166, 63 L 168, 63 L 170, 63 L 172, 63 L 174, 63 L 176, 63 L 178, 63 L 180, 63 L 182, 63 L 184, 63 L 186, 63 L 188, 63 L 190, 63 L 192, 63 L 194, 63 L 196, 63 L 198, 63 L 200, 63 L 202, 63 L 204, 63 L 206, 63 L 208, 63 L 210, 63"></path><path d="M 10, 64 L 12, 64 L 14, 64 L 16, 64 L 18, 64 L 20, 64 L 22, 64 L 24, 64 L 26, 64 L 28, 64 L 30, 64 L 32, 64 L 34, 64 L 36, 64 L 38, 64 L 40, 64 L 42, 64 L 44, 64 L 46, 64 L 48, 64 L 50, 64 L 52, 64 L 54, 64 L 56, 64 L 58, 64 L 60, 64 L 62, 64 L 64, 64 L 66, 64 L 68, 64 L 70, 64 L 72, 64 L 74, 64 L 76, 64 L 78, 64 L 80, 64 L 82, 64 L 84, 64 L 86, 64 L 88, 64 L 90, 64 L 92, 64 L 94, 64 L 96, 64 L 98, 64 L 100, 64 L 102, 64 L 104, 64 L 106, 64 L 108, 64 L 110, 64 L 112, 64 L 114, 64 L 116, 64 L 118, 64 L 120, 64 L 122, 64 L 124, 64 L 126, 64 L 128, 64 L 130, 64 L 132, 64 L 134, 64 L 136, 64 L 138, 64 L 140, 64 L 142, 64 L 144, 64 L 146, 64 L 148, 64 L 150, 64 L 152, 64 L 154, 64 L 156, 64 L 158, 64 L 160, 64 L 162, 64 L 164, 64 L 166, 64 L 168, 64 L 170, 64 L 172, 64 L 174, 64 L 176, 64 L 178, 64 L 180, 64 L 182, 64 L 184, 64 L 186, 64 L 188, 64 L 190, 64 L 192, 64 L 194, 64 L 196, 64 L 198, 64 L 200, 64 L 202, 64 L 204, 64 L 206, 64 L 208, 64 L 210, 64"></path><path d="M 10, 65 L 12, 65 L 14, 65 L 16, 65 L 18, 65 L 20, 65 L 22, 65 L 24, 65 L 26, 65 L 28, 65 L 30, 65 L 32, 65 L 34, 65 L 36, 65 L 38, 65 L 40, 65 L 42, 65 L 44, 65 L 46, 65 L 48, 65 L 50, 65 L 52, 65 L 54, 65 L 56, 65 L 58, 65 L 60, 65 L 62, 65 L 64, 65 L 66, 65 L 68, 65 L 70, 65 L 72, 65 L 74, 65 L 76, 65 L 78, 65 L 80, 65 L 82, 65 L 84, 65 L 86, 65 L 88, 65 L 90, 65 L 92, 65 L 94, 65 L 96, 65 L 98, 65 L 100, 65 L 102, 65 L 104, 65 L 106, 65 L 108, 65 L 110, 65 L 112, 65 L 114, 65 L 116, 65 L 118, 65 L 120, 65 L 122, 65 L 124, 65 L 126, 65 L 128, 65 L 130, 65 L 132, 65 L 134, 65 L 136, 65 L 138, 65 L 140, 65 L 142, 65 L 144, 65 L 146, 65 L 148, 65 L 150, 65 L 152, 65 L 154, 65 L 156, 65 L 158, 65 L 160, 65 L 162, 65 L 164, 65 L 166, 65 L 168, 65 L 170, 65 L 172, 65 L 174, 65 L 176, 65 L 178, 65 L 180, 65 L 182, 65 L 184, 65 L 186, 65 L 188, 65 L 190, 65 L 192, 65 L 194, 65 L 196, 65 L 198, 65 L 200, 65 L 202, 65 L 204, 65 L 206, 65 L 208, 65 L 210, 65"></path><path d="M 10, 66 L 12, 66 L 14, 66 L 16, 66 L 18, 66 L 20, 66 L 22, 66 L 24, 66 L 26, 66 L 28, 66 L 30, 66 L 32, 66 L 34, 66 L 36, 66 L 38, 66 L 40, 66 L 42, 66 L 44, 66 L 46, 66 L 48, 66 L 50, 66 L 52, 66 L 54, 66 L 56, 66 L 58, 66 L 60, 66 L 62, 66 L 64, 66 L 66, 66 L 68, 66 L 70, 66 L 72, 66 L 74, 66 L 76, 66 L 78, 66 L 80, 66 L 82, 66 L 84, 66 L 86, 66 L 88, 66 L 90, 66 L 92, 66 L 94, 66 L 96, 66 L 98, 66 L 100, 66 L 102, 66 L 104, 66 L 106, 66 L 108, 66 L 110, 66 L 112, 66 L 114, 66 L 116, 66 L 118, 66 L 120, 66 L 122, 66 L 124, 66 L 126, 66 L 128, 66 L 130, 66 L 132, 66 L 134, 66 L 136, 66 L 138, 66 L 140, 66 L 142, 66 L 144, 66 L 146, 66 L 148, 66 L 150, 66 L 152, 66 L 154, 66 L 156, 66 L 158, 66 L 160, 66 L 162, 66 L 164, 66 L 166, 66 L 168, 66 L 170, 66 L 172, 66 L 174, 66 L 176, 66 L 178, 66 L 180, 66 L 182, 66 L 184, 66 L 186, 66 L 188, 66 L 190, 66 L 192, 66 L 194, 66 L 196, 66 L 198, 66 L 200, 66 L 202, 66 L 204, 66 L 206, 66 L 208, 66 L 210, 66"></path><path d="M 10, 67 L 12, 67 L 14, 67 L 16, 67 L 18, 67 L 20, 67 L 22, 67 L 24, 67 L 26, 67 L 28, 67 L 30, 67 L 32, 67 L 34, 67 L 36, 67 L 38, 67 L 40, 67 L 42, 67 L 44, 67 L 46, 67 L 48, 67 L 50, 67 L 52, 67 L 54, 67 L 56, 67 L 58, 67 L 60, 67 L 62, 67 L 64, 67 L 66, 67 L 68, 67 L 70, 67 L 72, 67 L 74, 67 L 76, 67 L 78, 67 L 80, 67 L 82, 67 L 84, 67 L 86, 67 L 88, 67 L 90, 67 L 92, 67 L 94, 67 L 96, 67 L 98, 67 L 100, 67 L 102, 67 L 104, 67 L 106, 67 L 108, 67 L 110, 67 L 112, 67 L 114, 67 L 116, 67 L 118, 67 L 120, 67 L 122, 67 L 124, 67 L 126, 67 L 128, 67 L 130, 67 L 132, 67 L 134, 67 L 136, 67 L 138, 67 L 140, 67 L 142, 67 L 144, 67 L 146, 67 L 148, 67 L 150, 67 L 152, 67 L 154, 67 L 156, 67 L 158, 67 L 160, 67 L 162, 67 L 164, 67 L 166, 67 L 168, 67 L 170, 67 L 172, 67 L 174, 67 L 176, 67 L 178, 67 L 180, 67 L 182, 67 L 184, 67 L 186, 67 L 188, 67 L 190, 67 L 192, 67 L 194, 67 L 196, 67 L 198, 67 L 200, 67 L 202, 67 L 204, 67 L 206, 67 L 208, 67 L 210, 67"></path><path d="M 10, 68 L 12, 68 L 14, 68 L 16, 68 L 18, 68 L 20, 68 L 22, 68 L 24, 68 L 26, 68 L 28, 68 L 30, 68 L 32, 68 L 34, 68 L 36, 68 L 38, 68 L 40, 68 L 42, 68 L 44, 68 L 46, 68 L 48, 68 L 50, 68 L 52, 68 L 54, 68 L 56, 68 L 58, 68 L 60, 68 L 62, 68 L 64, 68 L 66, 68 L 68, 68 L 70, 68 L 72, 68 L 74, 68 L 76, 68 L 78, 68 L 80, 68 L 82, 68 L 84, 68 L 86, 68 L 88, 68 L 90, 68 L 92, 68 L 94, 68 L 96, 68 L 98, 68 L 100, 68 L 102, 68 L 104, 68 L 106, 68 L 108, 68 L 110, 68 L 112, 68 L 114, 68 L 116, 68 L 118, 68 L 120, 68 L 122, 68 L 124, 68 L 126, 68 L 128, 68 L 130, 68 L 132, 68 L 134, 68 L 136, 68 L 138, 68 L 140, 68 L 142, 68 L 144, 68 L 146, 68 L 148, 68 L 150, 68 L 152, 68 L 154, 68 L 156, 68 L 158, 68 L 160, 68 L 162, 68 L 164, 68 L 166, 68 L 168, 68 L 170, 68 L 172, 68 L 174, 68 L 176, 68 L 178, 68 L 180, 68 L 182, 68 L 184, 68 L 186, 68 L 188, 68 L 190, 68 L 192, 68 L 194, 68 L 196, 68 L 198, 68 L 200, 68 L 202, 68 L 204, 68 L 206, 68 L 208, 68 L 210, 68"></path><path d="M 10, 69 L 12, 69 L 14, 69 L 16, 69 L 18, 69 L 20, 69 L 22, 69 L 24, 69 L 26, 69 L 28, 69 L 30, 69 L 32, 69 L 34, 69 L 36, 69 L 38, 69 L 40, 69 L 42, 69 L 44, 69 L 46, 69 L 48, 69 L 50, 69 L 52, 69 L 54, 69 L 56, 69 L 58, 69 L 60, 69 L 62, 69 L 64, 69 L 66, 69 L 68, 69 L 70, 69 L 72, 69 L 74, 69 L 76, 69 L 78, 69 L 80, 69 L 82, 69 L 84, 69 L 86, 69 L 88, 69 L 90, 69 L 92, 69 L 94, 69 L 96, 69 L 98, 69 L 100, 69 L 102, 69 L 104, 69 L 106, 69 L 108, 69 L 110, 69 L 112, 69 L 114, 69 L 116, 69 L 118, 69 L 120, 69 L 122, 69 L 124, 69 L 126, 69 L 128, 69 L 130, 69 L 132, 69 L 134, 69 L 136, 69 L 138, 69 L 140, 69 L 142, 69 L 144, 69 L 146, 69 L 148, 69 L 150, 69 L 152, 69 L 154, 69 L 156, 69 L 158, 69 L 160, 69 L 162, 69 L 164, 69 L 166, 69 L 168, 69 L 170, 69 L 172, 69 L 174, 69 L 176, 69 L 178, 69 L 180, 69 L 182, 69 L 184, 69 L 186, 69 L 188, 69 L 190, 69 L 192, 69 L 194, 69 L 196, 69 L 198, 69 L 200, 69 L 202, 69 L 204, 69 L 206, 69 L 208, 69 L 210, 69"></path><path d="M 10, 70 L 12, 70 L 14, 70 L 16, 70 L 18, 70 L 20, 70 L 22, 70 L 24, 70 L 26, 70 L 28, 70 L 30, 70 L 32, 70 L 34, 70 L 36, 70 L 38, 70 L 40, 70 L 42, 70 L 44, 70 L 46, 70 L 48, 70 L 50, 70 L 52, 70 L 54, 70 L 56, 70 L 58, 70 L 60, 70 L 62, 70 L 64, 70 L 66, 70 L 68, 70 L 70, 70 L 72, 70 L 74, 70 L 76, 70 L 78, 70 L 80, 70 L 82, 70 L 84, 70 L 86, 70 L 88, 70 L 90, 70 L 92, 70 L 94, 70 L 96, 70 L 98, 70 L 100, 70 L 102, 70 L 104, 70 L 106, 70 L 108, 70 L 110, 70 L 112, 70 L 114, 70 L 116, 70 L 118, 70 L 120, 70 L 122, 70 L 124, 70 L 126, 70 L 128, 70 L 130, 70 L 132, 70 L 134, 70 L 136, 70 L 138, 70 L 140, 70 L 142, 70 L 144, 70 L 146, 70 L 148, 70 L 150, 70 L 152, 70 L 154, 70 L 156, 70 L 158, 70 L 160, 70 L 162, 70 L 164, 70 L 166, 70 L 168, 70 L 170, 70 L 172, 70 L 174, 70 L 176, 70 L 178, 70 L 180, 70 L 182, 70 L 184, 70 L 186, 70 L 188, 70 L 190, 70 L 192, 70 L 194, 70 L 196, 70 L 198, 70 L 200, 70 L 202, 70 L 204, 70 L 206, 70 L 208, 70 L 210, 70"></path><path d="M 10, 71 L 12, 71 L 14, 71 L 16, 71 L 18, 71 L 20, 71 L 22, 71 L 24, 71 L 26, 71 L 28, 71 L 30, 71 L 32, 71 L 34, 71 L 36, 71 L 38, 71 L 40, 71 L 42, 71 L 44, 71 L 46, 71 L 48, 71 L 50, 71 L 52, 71 L 54, 71 L 56, 71 L 58, 71 L 60, 71 L 62, 71 L 64, 71 L 66, 71 L 68, 71 L 70, 71 L 72, 71 L 74, 71 L 76, 71 L 78, 71 L 80, 71 L 82, 71 L 84, 71 L 86, 71 L 88, 71 L 90, 71 L 92, 71 L 94, 71 L 96, 71 L 98, 71 L 100, 71 L 102, 71 L 104, 71 L 106, 71 L 108, 71 L 110, 71 L 112, 71 L 114, 71 L 116, 71 L 118, 71 L 120, 71 L 122, 71 L 124, 71 L 126, 71 L 128, 71 L 130, 71 L 132, 71 L 134, 71 L 136, 71 L 138, 71 L 140, 71 L 142, 71 L 144, 71 L 146, 71 L 148, 71 L 150, 71 L 152, 71 L 154, 71 L 156, 71 L 158, 71 L 160, 71 L 162, 71 L 164, 71 L 166, 71 L 168, 71 L 170, 71 L 172, 71 L 174, 71 L 176, 71 L 178, 71 L 180, 71 L 182, 71 L 184, 71 L 186, 71 L 188, 71 L 190, 71 L 192, 71 L 194, 71 L 196, 71 L 198, 71 L 200, 71 L 202, 71 L 204, 71 L 206, 71 L 208, 71 L 210, 71"></path><path d="M 10, 72 L 12, 72 L 14, 72 L 16, 72 L 18, 72 L 20, 72 L 22, 72 L 24, 72 L 26, 72 L 28, 72 L 30, 72 L 32, 72 L 34, 72 L 36, 72 L 38, 72 L 40, 72 L 42, 72 L 44, 72 L 46, 72 L 48, 72 L 50, 72 L 52, 72 L 54, 72 L 56, 72 L 58, 72 L 60, 72 L 62, 72 L 64, 72 L 66, 72 L 68, 72 L 70, 72 L 72, 72 L 74, 72 L 76, 72 L 78, 72 L 80, 72 L 82, 72 L 84, 72 L 86, 72 L 88, 72 L 90, 72 L 92, 72 L 94, 72 L 96, 72 L 98, 72 L 100, 72 L 102, 72 L 104, 72 L 106, 72 L 108, 72 L 110, 72 L 112, 72 L 114, 72 L 116, 72 L 118, 72 L 120, 72 L 122, 72 L 124, 72 L 126, 72 L 128, 72 L 130, 72 L 132, 72 L 134, 72 L 136, 72 L 138, 72 L 140, 72 L 142, 72 L 144, 72 L 146, 72 L 148, 72 L 150, 72 L 152, 72 L 154, 72 L 156, 72 L 158, 72 L 160, 72 L 162, 72 L 164, 72 L 166, 72 L 168, 72 L 170, 72 L 172, 72 L 174, 72 L 176, 72 L 178, 72 L 180, 72 L 182, 72 L 184, 72 L 186, 72 L 188, 72 L 190, 72 L 192, 72 L 194, 72 L 196, 72 L 198, 72 L 200, 72 L 202, 72 L 204, 72 L 206, 72 L 208, 72 L 210, 72"></path><path d="M 10, 73 L 12, 73 L 14, 73 L 16, 73 L 18, 73 L 20, 73 L 22, 73 L 24, 73 L 26, 73 L 28, 73 L 30, 73 L 32, 73 L 34, 73 L 36, 73 L 38, 73 L 40, 73 L 42, 73 L 44, 73 L 46, 73 L 48, 73 L 50, 73 L 52, 73 L 54, 73 L 56, 73 L 58, 73 L 60, 73 L 62, 73 L 64, 73 L 66, 73 L 68, 73 L 70, 73 L 72, 73 L 74, 73 L 76, 73 L 78, 73 L 80, 73 L 82, 73 L 84, 73 L 86, 73 L 88, 73 L 90, 73 L 92, 73 L 94, 73 L 96, 73 L 98, 73 L 100, 73 L 102, 73 L 104, 73 L 106, 73 L 108, 73 L 110, 73 L 112, 73 L 114, 73 L 116, 73 L 118, 73 L 120, 73 L 122, 73 L 124, 73 L 126, 73 L 128, 73 L 130, 73 L 132, 73 L 134, 73 L 136, 73 L 138, 73 L 140, 73 L 142, 73 L 144, 73 L 146, 73 L 148, 73 L 150, 73 L 152, 73 L 154, 73 L 156, 73 L 158, 73 L 160, 73 L 162, 73 L 164, 73 L 166, 73 L 168, 73 L 170, 73 L 172, 73 L 174, 73 L 176, 73 L 178, 73 L 180, 73 L 182, 73 L 184, 73 L 186, 73 L 188, 73 L 190, 73 L 192, 73 L 194, 73 L 196, 73 L 198, 73 L 200, 73 L 202, 73 L 204, 73 L 206, 73 L 208, 73 L 210, 73"></path><path d="M 10, 74 L 12, 74 L 14, 74 L 16, 74 L 18, 74 L 20, 74 L 22, 74 L 24, 74 L 26, 74 L 28, 74 L 30, 74 L 32, 74 L 34, 74 L 36, 74 L 38, 74 L 40, 74 L 42, 74 L 44, 74 L 46, 74 L 48, 74 L 50, 74 L 52, 74 L 54, 74 L 56, 74 L 58, 74 L 60, 74 L 62, 74 L 64, 74 L 66, 74 L 68, 74 L 70, 74 L 72, 74 L 74, 74 L 76, 74 L 78, 74 L 80, 74 L 82, 74 L 84, 74 L 86, 74 L 88, 74 L 90, 74 L 92, 74 L 94, 74 L 96, 74 L 98, 74 L 100, 74 L 102, 74 L 104, 74 L 106, 74 L 108, 74 L 110, 74 L 112, 74 L 114, 74 L 116, 74 L 118, 74 L 120, 74 L 122, 74 L 124, 74 L 126, 74 L 128, 74 L 130, 74 L 132, 74 L 134, 74 L 136, 74 L 138, 74 L 140, 74 L 142, 74 L 144, 74 L 146, 74 L 148, 74 L 150, 74 L 152, 74 L 154, 74 L 156, 74 L 158, 74 L 160, 74 L 162, 74 L 164, 74 L 166, 74 L 168, 74 L 170, 74 L 172, 74 L 174, 74 L 176, 74 L 178, 74 L 180, 74 L 182, 74 L 184, 74 L 186, 74 L 188, 74 L 190, 74 L 192, 74 L 194, 74 L 196, 74 L 198, 74 L 200, 74 L 202, 74 L 204, 74 L 206, 74 L 208, 74 L 210, 74"></path><path d="M 10, 75 L 12, 75 L 14, 75 L 16, 75 L 18, 75 L 20, 75 L 22, 75 L 24, 75 L 26, 75 L 28, 75 L 30, 75 L 32, 75 L 34, 75 L 36, 75 L 38, 75 L 40, 75 L 42, 75 L 44, 75 L 46, 75 L 48, 75 L 50, 75 L 52, 75 L 54, 75 L 56, 75 L 58, 75 L 60, 75 L 62, 75 L 64, 75 L 66, 75 L 68, 75 L 70, 75 L 72, 75 L 74, 75 L 76, 75 L 78, 75 L 80, 75 L 82, 75 L 84, 75 L 86, 75 L 88, 75 L 90, 75 L 92, 75 L 94, 75 L 96, 75 L 98, 75 L 100, 75 L 102, 75 L 104, 75 L 106, 75 L 108, 75 L 110, 75 L 112, 75 L 114, 75 L 116, 75 L 118, 75 L 120, 75 L 122, 75 L 124, 75 L 126, 75 L 128, 75 L 130, 75 L 132, 75 L 134, 75 L 136, 75 L 138, 75 L 140, 75 L 142, 75 L 144, 75 L 146, 75 L 148, 75 L 150, 75 L 152, 75 L 154, 75 L 156, 75 L 158, 75 L 160, 75 L 162, 75 L 164, 75 L 166, 75 L 168, 75 L 170, 75 L 172, 75 L 174, 75 L 176, 75 L 178, 75 L 180, 75 L 182, 75 L 184, 75 L 186, 75 L 188, 75 L 190, 75 L 192, 75 L 194, 75 L 196, 75 L 198, 75 L 200, 75 L 202, 75 L 204, 75 L 206, 75 L 208, 75 L 210, 75"></path><path d="M 10, 76 L 12, 76 L 14, 76 L 16, 76 L 18, 76 L 20, 76 L 22, 76 L 24, 76 L 26, 76 L 28, 76 L 30, 76 L 32, 76 L 34, 76 L 36, 76 L 38, 76 L 40, 76 L 42, 76 L 44, 76 L 46, 76 L 48, 76 L 50, 76 L 52, 76 L 54, 76 L 56, 76 L 58, 76 L 60, 76 L 62, 76 L 64, 76 L 66, 76 L 68, 76 L 70, 76 L 72, 76 L 74, 76 L 76, 76 L 78, 76 L 80, 76 L 82, 76 L 84, 76 L 86, 76 L 88, 76 L 90, 76 L 92, 76 L 94, 76 L 96, 76 L 98, 76 L 100, 76 L 102, 76 L 104, 76 L 106, 76 L 108, 76 L 110, 76 L 112, 76 L 114, 76 L 116, 76 L 118, 76 L 120, 76 L 122, 76 L 124, 76 L 126, 76 L 128, 76 L 130, 76 L 132, 76 L 134, 76 L 136, 76 L 138, 76 L 140, 76 L 142, 76 L 144, 76 L 146, 76 L 148, 76 L 150, 76 L 152, 76 L 154, 76 L 156, 76 L 158, 76 L 160, 76 L 162, 76 L 164, 76 L 166, 76 L 168, 76 L 170, 76 L 172, 76 L 174, 76 L 176, 76 L 178, 76 L 180, 76 L 182, 76 L 184, 76 L 186, 76 L 188, 76 L 190, 76 L 192, 76 L 194, 76 L 196, 76 L 198, 76 L 200, 76 L 202, 76 L 204, 76 L 206, 76 L 208, 76 L 210, 76"></path><path d="M 10, 77 L 12, 77 L 14, 77 L 16, 77 L 18, 77 L 20, 77 L 22, 77 L 24, 77 L 26, 77 L 28, 77 L 30, 77 L 32, 77 L 34, 77 L 36, 77 L 38, 77 L 40, 77 L 42, 77 L 44, 77 L 46, 77 L 48, 77 L 50, 77 L 52, 77 L 54, 77 L 56, 77 L 58, 77 L 60, 77 L 62, 77 L 64, 77 L 66, 77 L 68, 77 L 70, 77 L 72, 77 L 74, 77 L 76, 77 L 78, 77 L 80, 77 L 82, 77 L 84, 77 L 86, 77 L 88, 77 L 90, 77 L 92, 77 L 94, 77 L 96, 77 L 98, 77 L 100, 77 L 102, 77 L 104, 77 L 106, 77 L 108, 77 L 110, 77 L 112, 77 L 114, 77 L 116, 77 L 118, 77 L 120, 77 L 122, 77 L 124, 77 L 126, 77 L 128, 77 L 130, 77 L 132, 77 L 134, 77 L 136, 77 L 138, 77 L 140, 77 L 142, 77 L 144, 77 L 146, 77 L 148, 77 L 150, 77 L 152, 77 L 154, 77 L 156, 77 L 158, 77 L 160, 77 L 162, 77 L 164, 77 L 166, 77 L 168, 77 L 170, 77 L 172, 77 L 174, 77 L 176, 77 L 178, 77 L 180, 77 L 182, 77 L 184, 77 L 186, 77 L 188, 77 L 190, 77 L 192, 77 L 194, 77 L 196, 77 L 198, 77 L 200, 77 L 202, 77 L 204, 77 L 206, 77 L 208, 77 L 210, 77"></path><path d="M 10, 78 L 12, 78 L 14, 78 L 16, 78 L 18, 78 L 20, 78 L 22, 78 L 24, 78 L 26, 78 L 28, 78 L 30, 78 L 32, 78 L 34, 78 L 36, 78 L 38, 78 L 40, 78 L 42, 78 L 44, 78 L 46, 78 L 48, 78 L 50, 78 L 52, 78 L 54, 78 L 56, 78 L 58, 78 L 60, 78 L 62, 78 L 64, 78 L 66, 78 L 68, 78 L 70, 78 L 72, 78 L 74, 78 L 76, 78 L 78, 78 L 80, 78 L 82, 78 L 84, 78 L 86, 78 L 88, 78 L 90, 78 L 92, 78 L 94, 78 L 96, 78 L 98, 78 L 100, 78 L 102, 78 L 104, 78 L 106, 78 L 108, 78 L 110, 78 L 112, 78 L 114, 78 L 116, 78 L 118, 78 L 120, 78 L 122, 78 L 124, 78 L 126, 78 L 128, 78 L 130, 78 L 132, 78 L 134, 78 L 136, 78 L 138, 78 L 140, 78 L 142, 78 L 144, 78 L 146, 78 L 148, 78 L 150, 78 L 152, 78 L 154, 78 L 156, 78 L 158, 78 L 160, 78 L 162, 78 L 164, 78 L 166, 78 L 168, 78 L 170, 78 L 172, 78 L 174, 78 L 176, 78 L 178, 78 L 180, 78 L 182, 78 L 184, 78 L 186, 78 L 188, 78 L 190, 78 L 192, 78 L 194, 78 L 196, 78 L 198, 78 L 200, 78 L 202, 78 L 204, 78 L 206, 78 L 208, 78 L 210, 78"></path><path d="M 10, 79 L 12, 79 L 14, 79 L 16, 79 L 18, 79 L 20, 79 L 22, 79 L 24, 79 L 26, 79 L 28, 79 L 30, 79 L 32, 79 L 34, 79 L 36, 79 L 38, 79 L 40, 79 L 42, 79 L 44, 79 L 46, 79 L 48, 79 L 50, 79 L 52, 79 L 54, 79 L 56, 79 L 58, 79 L 60, 79 L 62, 79 L 64, 79 L 66, 79 L 68, 79 L 70, 79 L 72, 79 L 74, 79 L 76, 79 L 78, 79 L 80, 79 L 82, 79 L 84, 79 L 86, 79 L 88, 79 L 90, 79 L 92, 79 L 94, 79 L 96, 79 L 98, 79 L 100, 79 L 102, 79 L 104, 79 L 106, 79 L 108, 79 L 110, 79 L 112, 79 L 114, 79 L 116, 79 L 118, 79 L 120, 79 L 122, 79 L 124, 79 L 126, 79 L 128, 79 L 130, 79 L 132, 79 L 134, 79 L 136, 79 L 138, 79 L 140, 79 L 142, 79 L 144, 79 L 146, 79 L 148, 79 L 150, 79 L 152, 79 L 154, 79 L 156, 79 L 158, 79 L 160, 79 L 162, 79 L 164, 79 L 166, 79 L 168, 79 L 170, 79 L 172, 79 L 174, 79 L 176, 79 L 178, 79 L 180, 79 L 182, 79 L 184, 79 L 186, 79 L 188, 79 L 190, 79 L 192, 79 L 194, 79 L 196, 79 L 198, 79 L 200, 79 L 202, 79 L 204, 79 L 206, 79 L 208, 79 L 210, 79"></path><path d="M 10, 80 L 12, 80 L 14, 80 L 16, 80 L 18, 80 L 20, 80 L 22, 80 L 24, 80 L 26, 80 L 28, 80 L 30, 80 L 32, 80 L 34, 80 L 36, 80 L 38, 80 L 40, 80 L 42, 80 L 44, 80 L 46, 80 L 48, 80 L 50, 80 L 52, 80 L 54, 80 L 56, 80 L 58, 80 L 60, 80 L 62, 80 L 64, 80 L 66, 80 L 68, 80 L 70, 80 L 72, 80 L 74, 80 L 76, 80 L 78, 80 L 80, 80 L 82, 80 L 84, 80 L 86, 80 L 88, 80 L 90, 80 L 92, 80 L 94, 80 L 96, 80 L 98, 80 L 100, 80 L 102, 80 L 104, 80 L 106, 80 L 108, 80 L 110, 80 L 112, 80 L 114, 80 L 116, 80 L 118, 80 L 120, 80 L 122, 80 L 124, 80 L 126, 80 L 128, 80 L 130, 80 L 132, 80 L 134, 80 L 136, 80 L 138, 80 L 140, 80 L 142, 80 L 144, 80 L 146, 80 L 148, 80 L 150, 80 L 152, 80 L 154, 80 L 156, 80 L 158, 80 L 160, 80 L 162, 80 L 164, 80 L 166, 80 L 168, 80 L 170, 80 L 172, 80 L 174, 80 L 176, 80 L 178, 80 L 180, 80 L 182, 80 L 184, 80 L 186, 80 L 188, 80 L 190, 80 L 192, 80 L 194, 80 L 196, 80 L 198, 80 L 200, 80 L 202, 80 L 204, 80 L 206, 80 L 208, 80 L 210, 80"></path><path d="M 10, 81 L 12, 81 L 14, 81 L 16, 81 L 18, 81 L 20, 81 L 22, 81 L 24, 81 L 26, 81 L 28, 81 L 30, 81 L 32, 81 L 34, 81 L 36, 81 L 38, 81 L 40, 81 L 42, 81 L 44, 81 L 46, 81 L 48, 81 L 50, 81 L 52, 81 L 54, 81 L 56, 81 L 58, 81 L 60, 81 L 62, 81 L 64, 81 L 66, 81 L 68, 81 L 70, 81 L 72, 81 L 74, 81 L 76, 81 L 78, 81 L 80, 81 L 82, 81 L 84, 81 L 86, 81 L 88, 81 L 90, 81 L 92, 81 L 94, 81 L 96, 81 L 98, 81 L 100, 81 L 102, 81 L 104, 81 L 106, 81 L 108, 81 L 110, 81 L 112, 81 L 114, 81 L 116, 81 L 118, 81 L 120, 81 L 122, 81 L 124, 81 L 126, 81 L 128, 81 L 130, 81 L 132, 81 L 134, 81 L 136, 81 L 138, 81 L 140, 81 L 142, 81 L 144, 81 L 146, 81 L 148, 81 L 150, 81 L 152, 81 L 154, 81 L 156, 81 L 158, 81 L 160, 81 L 162, 81 L 164, 81 L 166, 81 L 168, 81 L 170, 81 L 172, 81 L 174, 81 L 176, 81 L 178, 81 L 180, 81 L 182, 81 L 184, 81 L 186, 81 L 188, 81 L 190, 81 L 192, 81 L 194, 81 L 196, 81 L 198, 81 L 200, 81 L 202, 81 L 204, 81 L 206, 81 L 208, 81 L 210, 81"></path><path d="M 10, 82 L 12, 82 L 14, 82 L 16, 82 L 18, 82 L 20, 82 L 22, 82 L 24, 82 L 26, 82 L 28, 82 L 30, 82 L 32, 82 L 34, 82 L 36, 82 L 38, 82 L 40, 82 L 42, 82 L 44, 82 L 46, 82 L 48, 82 L 50, 82 L 52, 82 L 54, 82 L 56, 82 L 58, 82 L 60, 82 L 62, 82 L 64, 82 L 66, 82 L 68, 82 L 70, 82 L 72, 82 L 74, 82 L 76, 82 L 78, 82 L 80, 82 L 82, 82 L 84, 82 L 86, 82 L 88, 82 L 90, 82 L 92, 82 L 94, 82 L 96, 82 L 98, 82 L 100, 82 L 102, 82 L 104, 82 L 106, 82 L 108, 82 L 110, 82 L 112, 82 L 114, 82 L 116, 82 L 118, 82 L 120, 82 L 122, 82 L 124, 82 L 126, 82 L 128, 82 L 130, 82 L 132, 82 L 134, 82 L 136, 82 L 138, 82 L 140, 82 L 142, 82 L 144, 82 L 146, 82 L 148, 82 L 150, 82 L 152, 82 L 154, 82 L 156, 82 L 158, 82 L 160, 82 L 162, 82 L 164, 82 L 166, 82 L 168, 82 L 170, 82 L 172, 82 L 174, 82 L 176, 82 L 178, 82 L 180, 82 L 182, 82 L 184, 82 L 186, 82 L 188, 82 L 190, 82 L 192, 82 L 194, 82 L 196, 82 L 198, 82 L 200, 82 L 202, 82 L 204, 82 L 206, 82 L 208, 82 L 210, 82"></path><path d="M 10, 83 L 12, 83 L 14, 83 L 16, 83 L 18, 83 L 20, 83 L 22, 83 L 24, 83 L 26, 83 L 28, 83 L 30, 83 L 32, 83 L 34, 83 L 36, 83 L 38, 83 L 40, 83 L 42, 83 L 44, 83 L 46, 83 L 48, 83 L 50, 83 L 52, 83 L 54, 83 L 56, 83 L 58, 83 L 60, 83 L 62, 83 L 64, 83 L 66, 83 L 68, 83 L 70, 83 L 72, 83 L 74, 83 L 76, 83 L 78, 83 L 80, 83 L 82, 83 L 84, 83 L 86, 83 L 88, 83 L 90, 83 L 92, 83 L 94, 83 L 96, 83 L 98, 83 L 100, 83 L 102, 83 L 104, 83 L 106, 83 L 108, 83 L 110, 83 L 112, 83 L 114, 83 L 116, 83 L 118, 83 L 120, 83 L 122, 83 L 124, 83 L 126, 83 L 128, 83 L 130, 83 L 132, 83 L 134, 83 L 136, 83 L 138, 83 L 140, 83 L 142, 83 L 144, 83 L 146, 83 L 148, 83 L 150, 83 L 152, 83 L 154, 83 L 156, 83 L 158, 83 L 160, 83 L 162, 83 L 164, 83 L 166, 83 L 168, 83 L 170, 83 L 172, 83 L 174, 83 L 176, 83 L 178, 83 L 180, 83 L 182, 83 L 184, 83 L 186, 83 L 188, 83 L 190, 83 L 192, 83 L 194, 83 L 196, 83 L 198, 83 L 200, 83 L 202, 83 L 204, 83 L 206, 83 L 208, 83 L 210, 83"></path><path d="M 10, 84 L 12, 84 L 14, 84 L 16, 84 L 18, 84 L 20, 84 L 22, 84 L 24, 84 L 26, 84 L 28, 84 L 30, 84 L 32, 84 L 34, 84 L 36, 84 L 38, 84 L 40, 84 L 42, 84 L 44, 84 L 46, 84 L 48, 84 L 50, 84 L 52, 84 L 54, 84 L 56, 84 L 58, 84 L 60, 84 L 62, 84 L 64, 84 L 66, 84 L 68, 84 L 70, 84 L 72, 84 L 74, 84 L 76, 84 L 78, 84 L 80, 84 L 82, 84 L 84, 84 L 86, 84 L 88, 84 L 90, 84 L 92, 84 L 94, 84 L 96, 84 L 98, 84 L 100, 84 L 102, 84 L 104, 84 L 106, 84 L 108, 84 L 110, 84 L 112, 84 L 114, 84 L 116, 84 L 118, 84 L 120, 84 L 122, 84 L 124, 84 L 126, 84 L 128, 84 L 130, 84 L 132, 84 L 134, 84 L 136, 84 L 138, 84 L 140, 84 L 142, 84 L 144, 84 L 146, 84 L 148, 84 L 150, 84 L 152, 84 L 154, 84 L 156, 84 L 158, 84 L 160, 84 L 162, 84 L 164, 84 L 166, 84 L 168, 84 L 170, 84 L 172, 84 L 174, 84 L 176, 84 L 178, 84 L 180, 84 L 182, 84 L 184, 84 L 186, 84 L 188, 84 L 190, 84 L 192, 84 L 194, 84 L 196, 84 L 198, 84 L 200, 84 L 202, 84 L 204, 84 L 206, 84 L 208, 84 L 210, 84"></path><path d="M 10, 85 L 12, 85 L 14, 85 L 16, 85 L 18, 85 L 20, 85 L 22, 85 L 24, 85 L 26, 85 L 28, 85 L 30, 85 L 32, 85 L 34, 85 L 36, 85 L 38, 85 L 40, 85 L 42, 85 L 44, 85 L 46, 85 L 48, 85 L 50, 85 L 52, 85 L 54, 85 L 56, 85 L 58, 85 L 60, 85 L 62, 85 L 64, 85 L 66, 85 L 68, 85 L 70, 85 L 72, 85 L 74, 85 L 76, 85 L 78, 85 L 80, 85 L 82, 85 L 84, 85 L 86, 85 L 88, 85 L 90, 85 L 92, 85 L 94, 85 L 96, 85 L 98, 85 L 100, 85 L 102, 85 L 104, 85 L 106, 85 L 108, 85 L 110, 85 L 112, 85 L 114, 85 L 116, 85 L 118, 85 L 120, 85 L 122, 85 L 124, 85 L 126, 85 L 128, 85 L 130, 85 L 132, 85 L 134, 85 L 136, 85 L 138, 85 L 140, 85 L 142, 85 L 144, 85 L 146, 85 L 148, 85 L 150, 85 L 152, 85 L 154, 85 L 156, 85 L 158, 85 L 160, 85 L 162, 85 L 164, 85 L 166, 85 L 168, 85 L 170, 85 L 172, 85 L 174, 85 L 176, 85 L 178, 85 L 180, 85 L 182, 85 L 184, 85 L 186, 85 L 188, 85 L 190, 85 L 192, 85 L 194, 85 L 196, 85 L 198, 85 L 200, 85 L 202, 85 L 204, 85 L 206, 85 L 208, 85 L 210, 85"></path><path d="M 10, 86 L 12, 86 L 14, 86 L 16, 86 L 18, 86 L 20, 86 L 22, 86 L 24, 86 L 26, 86 L 28, 86 L 30, 86 L 32, 86 L 34, 86 L 36, 86 L 38, 86 L 40, 86 L 42, 86 L 44, 86 L 46, 86 L 48, 86 L 50, 86 L 52, 86 L 54, 86 L 56, 86 L 58, 86 L 60, 86 L 62, 86 L 64, 86 L 66, 86 L 68, 86 L 70, 86 L 72, 86 L 74, 86 L 76, 86 L 78, 86 L 80, 86 L 82, 86 L 84, 86 L 86, 86 L 88, 86 L 90, 86 L 92, 86 L 94, 86 L 96, 86 L 98, 86 L 100, 86 L 102, 86 L 104, 86 L 106, 86 L 108, 86 L 110, 86 L 112, 86 L 114, 86 L 116, 86 L 118, 86 L 120, 86 L 122, 86 L 124, 86 L 126, 86 L 128, 86 L 130, 86 L 132, 86 L 134, 86 L 136, 86 L 138, 86 L 140, 86 L 142, 86 L 144, 86 L 146, 86 L 148, 86 L 150, 86 L 152, 86 L 154, 86 L 156, 86 L 158, 86 L 160, 86 L 162, 86 L 164, 86 L 166, 86 L 168, 86 L 170, 86 L 172, 86 L 174, 86 L 176, 86 L 178, 86 L 180, 86 L 182, 86 L 184, 86 L 186, 86 L 188, 86 L 190, 86 L 192, 86 L 194, 86 L 196, 86 L 198, 86 L 200, 86 L 202, 86 L 204, 86 L 206, 86 L 208, 86 L 210, 86"></path><path d="M 10, 87 L 12, 87 L 14, 87 L 16, 87 L 18, 87 L 20, 87 L 22, 87 L 24, 87 L 26, 87 L 28, 87 L 30, 87 L 32, 87 L 34, 87 L 36, 87 L 38, 87 L 40, 87 L 42, 87 L 44, 87 L 46, 87 L 48, 87 L 50, 87 L 52, 87 L 54, 87 L 56, 87 L 58, 87 L 60, 87 L 62, 87 L 64, 87 L 66, 87 L 68, 87 L 70, 87 L 72, 87 L 74, 87 L 76, 87 L 78, 87 L 80, 87 L 82, 87 L 84, 87 L 86, 87 L 88, 87 L 90, 87 L 92, 87 L 94, 87 L 96, 87 L 98, 87 L 100, 87 L 102, 87 L 104, 87 L 106, 87 L 108, 87 L 110, 87 L 112, 87 L 114, 87 L 116, 87 L 118, 87 L 120, 87 L 122, 87 L 124, 87 L 126, 87 L 128, 87 L 130, 87 L 132, 87 L 134, 87 L 136, 87 L 138, 87 L 140, 87 L 142, 87 L 144, 87 L 146, 87 L 148, 87 L 150, 87 L 152, 87 L 154, 87 L 156, 87 L 158, 87 L 160, 87 L 162, 87 L 164, 87 L 166, 87 L 168, 87 L 170, 87 L 172, 87 L 174, 87 L 176, 87 L 178, 87 L 180, 87 L 182, 87 L 184, 87 L 186, 87 L 188, 87 L 190, 87 L 192, 87 L 194, 87 L 196, 87 L 198, 87 L 200, 87 L 202, 87 L 204, 87 L 206, 87 L 208, 87 L 210, 87"></path><path d="M 10, 88 L 12, 88 L 14, 88 L 16, 88 L 18, 88 L 20, 88 L 22, 88 L 24, 88 L 26, 88 L 28, 88 L 30, 88 L 32, 88 L 34, 88 L 36, 88 L 38, 88 L 40, 88 L 42, 88 L 44, 88 L 46, 88 L 48, 88 L 50, 88 L 52, 88 L 54, 88 L 56, 88 L 58, 88 L 60, 88 L 62, 88 L 64, 88 L 66, 88 L 68, 88 L 70, 88 L 72, 88 L 74, 88 L 76, 88 L 78, 88 L 80, 88 L 82, 88 L 84, 88 L 86, 88 L 88, 88 L 90, 88 L 92, 88 L 94, 88 L 96, 88 L 98, 88 L 100, 88 L 102, 88 L 104, 88 L 106, 88 L 108, 88 L 110, 88 L 112, 88 L 114, 88 L 116, 88 L 118, 88 L 120, 88 L 122, 88 L 124, 88 L 126, 88 L 128, 88 L 130, 88 L 132, 88 L 134, 88 L 136, 88 L 138, 88 L 140, 88 L 142, 88 L 144, 88 L 146, 88 L 148, 88 L 150, 88 L 152, 88 L 154, 88 L 156, 88 L 158, 88 L 160, 88 L 162, 88 L 164, 88 L 166, 88 L 168, 88 L 170, 88 L 172, 88 L 174, 88 L 176, 88 L 178, 88 L 180, 88 L 182, 88 L 184, 88 L 186, 88 L 188, 88 L 190, 88 L 192, 88 L 194, 88 L 196, 88 L 198, 88 L 200, 88 L 202, 88 L 204, 88 L 206, 88 L 208, 88 L 210, 88"></path><path d="M 10, 89 L 12, 89 L 14, 89 L 16, 89 L 18, 89 L 20, 89 L 22, 89 L 24, 89 L 26, 89 L 28, 89 L 30, 89 L 32, 89 L 34, 89 L 36, 89 L 38, 89 L 40, 89 L 42, 89 L 44, 89 L 46, 89 L 48, 89 L 50, 89 L 52, 89 L 54, 89 L 56, 89 L 58, 89 L 60, 89 L 62, 89 L 64, 89 L 66, 89 L 68, 89 L 70, 89 L 72, 89 L 74, 89 L 76, 89 L 78, 89 L 80, 89 L 82, 89 L 84, 89 L 86, 89 L 88, 89 L 90, 89 L 92, 89 L 94, 89 L 96, 89 L 98, 89 L 100, 89 L 102, 89 L 104, 89 L 106, 89 L 108, 89 L 110, 89 L 112, 89 L 114, 89 L 116, 89 L 118, 89 L 120, 89 L 122, 89 L 124, 89 L 126, 89 L 128, 89 L 130, 89 L 132, 89 L 134, 89 L 136, 89 L 138, 89 L 140, 89 L 142, 89 L 144, 89 L 146, 89 L 148, 89 L 150, 89 L 152, 89 L 154, 89 L 156, 89 L 158, 89 L 160, 89 L 162, 89 L 164, 89 L 166, 89 L 168, 89 L 170, 89 L 172, 89 L 174, 89 L 176, 89 L 178, 89 L 180, 89 L 182, 89 L 184, 89 L 186, 89 L 188, 89 L 190, 89 L 192, 89 L 194, 89 L 196, 89 L 198, 89 L 200, 89 L 202, 89 L 204, 89 L 206, 89 L 208, 89 L 210, 89"></path><path d="M 10, 90 L 12, 90 L 14, 90 L 16, 90 L 18, 90 L 20, 90 L 22, 90 L 24, 90 L 26, 90 L 28, 90 L 30, 90 L 32, 90 L 34, 90 L 36, 90 L 38, 90 L 40, 90 L 42, 90 L 44, 90 L 46, 90 L 48, 90 L 50, 90 L 52, 90 L 54, 90 L 56, 90 L 58, 90 L 60, 90 L 62, 90 L 64, 90 L 66, 90 L 68, 90 L 70, 90 L 72, 90 L 74, 90 L 76, 90 L 78, 90 L 80, 90 L 82, 90 L 84, 90 L 86, 90 L 88, 90 L 90, 90 L 92, 90 L 94, 90 L 96, 90 L 98, 90 L 100, 90 L 102, 90 L 104, 90 L 106, 90 L 108, 90 L 110, 90 L 112, 90 L 114, 90 L 116, 90 L 118, 90 L 120, 90 L 122, 90 L 124, 90 L 126, 90 L 128, 90 L 130, 90 L 132, 90 L 134, 90 L 136, 90 L 138, 90 L 140, 90 L 142, 90 L 144, 90 L 146, 90 L 148, 90 L 150, 90 L 152, 90 L 154, 90 L 156, 90 L 158, 90 L 160, 90 L 162, 90 L 164, 90 L 166, 90 L 168, 90 L 170, 90 L 172, 90 L 174, 90 L 176, 90 L 178, 90 L 180, 90 L 182, 90 L 184, 90 L 186, 90 L 188, 90 L 190, 90 L 192, 90 L 194, 90 L 196, 90 L 198, 90 L 200, 90 L 202, 90 L 204, 90 L 206, 90 L 208, 90 L 210, 90"></path><path d="M 10, 91 L 12, 91 L 14, 91 L 16, 91 L 18, 91 L 20, 91 L 22, 91 L 24, 91 L 26, 91 L 28, 91 L 30, 91 L 32, 91 L 34, 91 L 36, 91 L 38, 91 L 40, 91 L 42, 91 L 44, 91 L 46, 91 L 48, 91 L 50, 91 L 52, 91 L 54, 91 L 56, 91 L 58, 91 L 60, 91 L 62, 91 L 64, 91 L 66, 91 L 68, 91 L 70, 91 L 72, 91 L 74, 91 L 76, 91 L 78, 91 L 80, 91 L 82, 91 L 84, 91 L 86, 91 L 88, 91 L 90, 91 L 92, 91 L 94, 91 L 96, 91 L 98, 91 L 100, 91 L 102, 91 L 104, 91 L 106, 91 L 108, 91 L 110, 91 L 112, 91 L 114, 91 L 116, 91 L 118, 91 L 120, 91 L 122, 91 L 124, 91 L 126, 91 L 128, 91 L 130, 91 L 132, 91 L 134, 91 L 136, 91 L 138, 91 L 140, 91 L 142, 91 L 144, 91 L 146, 91 L 148, 91 L 150, 91 L 152, 91 L 154, 91 L 156, 91 L 158, 91 L 160, 91 L 162, 91 L 164, 91 L 166, 91 L 168, 91 L 170, 91 L 172, 91 L 174, 91 L 176, 91 L 178, 91 L 180, 91 L 182, 91 L 184, 91 L 186, 91 L 188, 91 L 190, 91 L 192, 91 L 194, 91 L 196, 91 L 198, 91 L 200, 91 L 202, 91 L 204, 91 L 206, 91 L 208, 91 L 210, 91"></path><path d="M 10, 92 L 12, 92 L 14, 92 L 16, 92 L 18, 92 L 20, 92 L 22, 92 L 24, 92 L 26, 92 L 28, 92 L 30, 92 L 32, 92 L 34, 92 L 36, 92 L 38, 92 L 40, 92 L 42, 92 L 44, 92 L 46, 92 L 48, 92 L 50, 92 L 52, 92 L 54, 92 L 56, 92 L 58, 92 L 60, 92 L 62, 92 L 64, 92 L 66, 92 L 68, 92 L 70, 92 L 72, 92 L 74, 92 L 76, 92 L 78, 92 L 80, 92 L 82, 92 L 84, 92 L 86, 92 L 88, 92 L 90, 92 L 92, 92 L 94, 92 L 96, 92 L 98, 92 L 100, 92 L 102, 92 L 104, 92 L 106, 92 L 108, 92 L 110, 92 L 112, 92 L 114, 92 L 116, 92 L 118, 92 L 120, 92 L 122, 92 L 124, 92 L 126, 92 L 128, 92 L 130, 92 L 132, 92 L 134, 92 L 136, 92 L 138, 92 L 140, 92 L 142, 92 L 144, 92 L 146, 92 L 148, 92 L 150, 92 L 152, 92 L 154, 92 L 156, 92 L 158, 92 L 160, 92 L 162, 92 L 164, 92 L 166, 92 L 168, 92 L 170, 92 L 172, 92 L 174, 92 L 176, 92 L 178, 92 L 180, 92 L 182, 92 L 184, 92 L 186, 92 L 188, 92 L 190, 92 L 192, 92 L 194, 92 L 196, 92 L 198, 92 L 200, 92 L 202, 92 L 204, 92 L 206, 92 L 208, 92 L 210, 92"></path><path d="M 10, 93 L 12, 93 L 14, 93 L 16, 93 L 18, 93 L 20, 93 L 22, 93 L 24, 93 L 26, 93 L 28, 93 L 30, 93 L 32, 93 L 34, 93 L 36, 93 L 38, 93 L 40, 93 L 42, 93 L 44, 93 L 46, 93 L 48, 93 L 50, 93 L 52, 93 L 54, 93 L 56, 93 L 58, 93 L 60, 93 L 62, 93 L 64, 93 L 66, 93 L 68, 93 L 70, 93 L 72, 93 L 74, 93 L 76, 93 L 78, 93 L 80, 93 L 82, 93 L 84, 93 L 86, 93 L 88, 93 L 90, 93 L 92, 93 L 94, 93 L 96, 93 L 98, 93 L 100, 93 L 102, 93 L 104, 93 L 106, 93 L 108, 93 L 110, 93 L 112, 93 L 114, 93 L 116, 93 L 118, 93 L 120, 93 L 122, 93 L 124, 93 L 126, 93 L 128, 93 L 130, 93 L 132, 93 L 134, 93 L 136, 93 L 138, 93 L 140, 93 L 142, 93 L 144, 93 L 146, 93 L 148, 93 L 150, 93 L 152, 93 L 154, 93 L 156, 93 L 158, 93 L 160, 93 L 162, 93 L 164, 93 L 166, 93 L 168, 93 L 170, 93 L 172, 93 L 174, 93 L 176, 93 L 178, 93 L 180, 93 L 182, 93 L 184, 93 L 186, 93 L 188, 93 L 190, 93 L 192, 93 L 194, 93 L 196, 93 L 198, 93 L 200, 93 L 202, 93 L 204, 93 L 206, 93 L 208, 93 L 210, 93"></path><path d="M 10, 94 L 12, 94 L 14, 94 L 16, 94 L 18, 94 L 20, 94 L 22, 94 L 24, 94 L 26, 94 L 28, 94 L 30, 94 L 32, 94 L 34, 94 L 36, 94 L 38, 94 L 40, 94 L 42, 94 L 44, 94 L 46, 94 L 48, 94 L 50, 94 L 52, 94 L 54, 94 L 56, 94 L 58, 94 L 60, 94 L 62, 94 L 64, 94 L 66, 94 L 68, 94 L 70, 94 L 72, 94 L 74, 94 L 76, 94 L 78, 94 L 80, 94 L 82, 94 L 84, 94 L 86, 94 L 88, 94 L 90, 94 L 92, 94 L 94, 94 L 96, 94 L 98, 94 L 100, 94 L 102, 94 L 104, 94 L 106, 94 L 108, 94 L 110, 94 L 112, 94 L 114, 94 L 116, 94 L 118, 94 L 120, 94 L 122, 94 L 124, 94 L 126, 94 L 128, 94 L 130, 94 L 132, 94 L 134, 94 L 136, 94 L 138, 94 L 140, 94 L 142, 94 L 144, 94 L 146, 94 L 148, 94 L 150, 94 L 152, 94 L 154, 94 L 156, 94 L 158, 94 L 160, 94 L 162, 94 L 164, 94 L 166, 94 L 168, 94 L 170, 94 L 172, 94 L 174, 94 L 176, 94 L 178, 94 L 180, 94 L 182, 94 L 184, 94 L 186, 94 L 188, 94 L 190, 94 L 192, 94 L 194, 94 L 196, 94 L 198, 94 L 200, 94 L 202, 94 L 204, 94 L 206, 94 L 208, 94 L 210, 94"></path><path d="M 10, 95 L 12, 95 L 14, 95 L 16, 95 L 18, 95 L 20, 95 L 22, 95 L 24, 95 L 26, 95 L 28, 95 L 30, 95 L 32, 95 L 34, 95 L 36, 95 L 38, 95 L 40, 95 L 42, 95 L 44, 95 L 46, 95 L 48, 95 L 50, 95 L 52, 95 L 54, 95 L 56, 95 L 58, 95 L 60, 95 L 62, 95 L 64, 95 L 66, 95 L 68, 95 L 70, 95 L 72, 95 L 74, 95 L 76, 95 L 78, 95 L 80, 95 L 82, 95 L 84, 95 L 86, 95 L 88, 95 L 90, 95 L 92, 95 L 94, 95 L 96, 95 L 98, 95 L 100, 95 L 102, 95 L 104, 95 L 106, 95 L 108, 95 L 110, 95 L 112, 95 L 114, 95 L 116, 95 L 118, 95 L 120, 95 L 122, 95 L 124, 95 L 126, 95 L 128, 95 L 130, 95 L 132, 95 L 134, 95 L 136, 95 L 138, 95 L 140, 95 L 142, 95 L 144, 95 L 146, 95 L 148, 95 L 150, 95 L 152, 95 L 154, 95 L 156, 95 L 158, 95 L 160, 95 L 162, 95 L 164, 95 L 166, 95 L 168, 95 L 170, 95 L 172, 95 L 174, 95 L 176, 95 L 178, 95 L 180, 95 L 182, 95 L 184, 95 L 186, 95 L 188, 95 L 190, 95 L 192, 95 L 194, 95 L 196, 95 L 198, 95 L 200, 95 L 202, 95 L 204, 95 L 206, 95 L 208, 95 L 210, 95"></path><path d="M 10, 96 L 12, 96 L 14, 96 L 16, 96 L 18, 96 L 20, 96 L 22, 96 L 24, 96 L 26, 96 L 28, 96 L 30, 96 L 32, 96 L 34, 96 L 36, 96 L 38, 96 L 40, 96 L 42, 96 L 44, 96 L 46, 96 L 48, 96 L 50, 96 L 52, 96 L 54, 96 L 56, 96 L 58, 96 L 60, 96 L 62, 96 L 64, 96 L 66, 96 L 68, 96 L 70, 96 L 72, 96 L 74, 96 L 76, 96 L 78, 96 L 80, 96 L 82, 96 L 84, 96 L 86, 96 L 88, 96 L 90, 96 L 92, 96 L 94, 96 L 96, 96 L 98, 96 L 100, 96 L 102, 96 L 104, 96 L 106, 96 L 108, 96 L 110, 96 L 112, 96 L 114, 96 L 116, 96 L 118, 96 L 120, 96 L 122, 96 L 124, 96 L 126, 96 L 128, 96 L 130, 96 L 132, 96 L 134, 96 L 136, 96 L 138, 96 L 140, 96 L 142, 96 L 144, 96 L 146, 96 L 148, 96 L 150, 96 L 152, 96 L 154, 96 L 156, 96 L 158, 96 L 160, 96 L 162, 96 L 164, 96 L 166, 96 L 168, 96 L 170, 96 L 172, 96 L 174, 96 L 176, 96 L 178, 96 L 180, 96 L 182, 96 L 184, 96 L 186, 96 L 188, 96 L 190, 96 L 192, 96 L 194, 96 L 196, 96 L 198, 96 L 200, 96 L 202, 96 L 204, 96 L 206, 96 L 208, 96 L 210, 96"></path><path d="M 10, 97 L 12, 97 L 14, 97 L 16, 97 L 18, 97 L 20, 97 L 22, 97 L 24, 97 L 26, 97 L 28, 97 L 30, 97 L 32, 97 L 34, 97 L 36, 97 L 38, 97 L 40, 97 L 42, 97 L 44, 97 L 46, 97 L 48, 97 L 50, 97 L 52, 97 L 54, 97 L 56, 97 L 58, 97 L 60, 97 L 62, 97 L 64, 97 L 66, 97 L 68, 97 L 70, 97 L 72, 97 L 74, 97 L 76, 97 L 78, 97 L 80, 97 L 82, 97 L 84, 97 L 86, 97 L 88, 97 L 90, 97 L 92, 97 L 94, 97 L 96, 97 L 98, 97 L 100, 97 L 102, 97 L 104, 97 L 106, 97 L 108, 97 L 110, 97 L 112, 97 L 114, 97 L 116, 97 L 118, 97 L 120, 97 L 122, 97 L 124, 97 L 126, 97 L 128, 97 L 130, 97 L 132, 97 L 134, 97 L 136, 97 L 138, 97 L 140, 97 L 142, 97 L 144, 97 L 146, 97 L 148, 97 L 150, 97 L 152, 97 L 154, 97 L 156, 97 L 158, 97 L 160, 97 L 162, 97 L 164, 97 L 166, 97 L 168, 97 L 170, 97 L 172, 97 L 174, 97 L 176, 97 L 178, 97 L 180, 97 L 182, 97 L 184, 97 L 186, 97 L 188, 97 L 190, 97 L 192, 97 L 194, 97 L 196, 97 L 198, 97 L 200, 97 L 202, 97 L 204, 97 L 206, 97 L 208, 97 L 210, 97"></path><path d="M 10, 98 L 12, 98 L 14, 98 L 16, 98 L 18, 98 L 20, 98 L 22, 98 L 24, 98 L 26, 98 L 28, 98 L 30, 98 L 32, 98 L 34, 98 L 36, 98 L 38, 98 L 40, 98 L 42, 98 L 44, 98 L 46, 98 L 48, 98 L 50, 98 L 52, 98 L 54, 98 L 56, 98 L 58, 98 L 60, 98 L 62, 98 L 64, 98 L 66, 98 L 68, 98 L 70, 98 L 72, 98 L 74, 98 L 76, 98 L 78, 98 L 80, 98 L 82, 98 L 84, 98 L 86, 98 L 88, 98 L 90, 98 L 92, 98 L 94, 98 L 96, 98 L 98, 98 L 100, 98 L 102, 98 L 104, 98 L 106, 98 L 108, 98 L 110, 98 L 112, 98 L 114, 98 L 116, 98 L 118, 98 L 120, 98 L 122, 98 L 124, 98 L 126, 98 L 128, 98 L 130, 98 L 132, 98 L 134, 98 L 136, 98 L 138, 98 L 140, 98 L 142, 98 L 144, 98 L 146, 98 L 148, 98 L 150, 98 L 152, 98 L 154, 98 L 156, 98 L 158, 98 L 160, 98 L 162, 98 L 164, 98 L 166, 98 L 168, 98 L 170, 98 L 172, 98 L 174, 98 L 176, 98 L 178, 98 L 180, 98 L 182, 98 L 184, 98 L 186, 98 L 188, 98 L 190, 98 L 192, 98 L 194, 98 L 196, 98 L 198, 98 L 200, 98 L 202, 98 L 204, 98 L 206, 98 L 208, 98 L 210, 98"></path><path d="M 10, 99 L 12, 99 L 14, 99 L 16, 99 L 18, 99 L 20, 99 L 22, 99 L 24, 99 L 26, 99 L 28, 99 L 30, 99 L 32, 99 L 34, 99 L 36, 99 L 38, 99 L 40, 99 L 42, 99 L 44, 99 L 46, 99 L 48, 99 L 50, 99 L 52, 99 L 54, 99 L 56, 99 L 58, 99 L 60, 99 L 62, 99 L 64, 99 L 66, 99 L 68, 99 L 70, 99 L 72, 99 L 74, 99 L 76, 99 L 78, 99 L 80, 99 L 82, 99 L 84, 99 L 86, 99 L 88, 99 L 90, 99 L 92, 99 L 94, 99 L 96, 99 L 98, 99 L 100, 99 L 102, 99 L 104, 99 L 106, 99 L 108, 99 L 110, 99 L 112, 99 L 114, 99 L 116, 99 L 118, 99 L 120, 99 L 122, 99 L 124, 99 L 126, 99 L 128, 99 L 130, 99 L 132, 99 L 134, 99 L 136, 99 L 138, 99 L 140, 99 L 142, 99 L 144, 99 L 146, 99 L 148, 99 L 150, 99 L 152, 99 L 154, 99 L 156, 99 L 158, 99 L 160, 99 L 162, 99 L 164, 99 L 166, 99 L 168, 99 L 170, 99 L 172, 99 L 174, 99 L 176, 99 L 178, 99 L 180, 99 L 182, 99 L 184, 99 L 186, 99 L 188, 99 L 190, 99 L 192, 99 L 194, 99 L 196, 99 L 198, 99 L 200, 99 L 202, 99 L 204, 99 L 206, 99 L 208, 99 L 210, 99"></path></g></svg>