<svg viewBox="-6 -6 161 166" fill="none" stroke="black" stroke-linecap="round" stroke-linejoin="round" id="frame" stroke-width="0.4" xmlns="http://www.w3.org/2000/svg"><g transform=""><g transform=" scale(10)  translate(0,0)  rotate(90) " style="stroke-width: 0.05px"><line x1="-0.5" y1="-0.5" x2="0.5" y2="0.5"></line></g><g transform=" scale(10)  translate(0,1)  rotate(0) " style="stroke-width: 0.05px"><line x1="-0.5" y1="-0.5" x2="0.5" y2="0.5"></line></g><g transform=" scale(10)  translate(0,2)  rotate(90) " style="stroke-width: 0.05px"><line x1="-0.5" y1="-0.5" x2="0.5" y2="0.5"></line></g><g transform=" scale(10)  translate(0,3)  rotate(0) " style="stroke-width: 0.05px"><line x1="-0.5" y1="-0.5" x2="0.5" y2="0.5"></line></g><g transform=" scale(10)  translate(0,4)  rotate(90) " style="stroke-width: 0.05px"><line x1="-0.5" y1="-0.5" x2="0.5" y2="0.5"></line></g><g transform=" scale(10)  translate(0,5)  rotate(0) " style="stroke-width: 0.05px"><line x1="-0.5" y1="-0.5" x2="0.5" y2="0.5"></line></g><g transform=" scale(10)  translate(0,6)  rotate(90) " style="stroke-width: 0.05px"><line x1="-0.5" y1="-0.5" x2="0.5" y2="0.5"></line></g><g transform=" scale(10)  translate(0,7)  rotate(0) " style="stroke-width: 0.05px"><line x1="-0.5" y1="-0.5" x2="0.5" y2="0.5"></line></g><g transform=" scale(10)  translate(0,8)  rotate(90) " style="stroke-width: 0.05px"><line x1="-0.5" y1="-0.5" x2="0.5" y2="0.5"></line></g><g transform=" scale(10)  translate(0,9)  rotate(90) " style="stroke-width: 0.05px"><line x1="-0.5" y1="-0.5" x2="0.5" y2="0.5"></line></g><g transform=" scale(10)  translate(0,10)  rotate(90) " style="stroke-width: 0.05px"><line x1="-0.5" y1="-0.5" x2="0.5" y2="0.5"></line></g><g transform=" scale(10)  translate(0,11)  rotate(0) " style="stroke-width: 0.05px"><line x1="-0.5" y1="-0.5" x2="0.5" y2="0.5"></line></g><g transform=" scale(10)  translate(0,12)  rotate(0) " style="stroke-width: 0.05px"><line x1="-0.5" y1="-0.5" x2="0.5" y2="0.5"></line></g><g transform=" scale(10)  translate(0,13)  rotate(0) " style="stroke-width: 0.05px"><line x1="-0.5" y1="-0.5" x2="0.5" y2="0.5"></line></g><g transform=" scale(10)  translate(0,14)  rotate(90) " style="stroke-width: 0.05px"><line x1="-0.5" y1="-0.5" x2="0.5" y2="0.5"></line></g><g transform=" scale(10)  translate(0,15)  rotate(90) " style="stroke-width: 0.05px"><line x1="-0.5" y1="-0.5" x2="0.5" y2="0.5"></line></g><g transform=" scale(10)  translate(1,0)  rotate(0) " style="stroke-width: 0.05px"><line x1="-0.5" y1="-0.5" x2="0.5" y2="0.5"></line></g><g transform=" scale(10)  translate(1,1)  rotate(90) " style="stroke-width: 0.05px"><line x1="-0.5" y1="-0.5" x2="0.5" y2="0.5"></line></g><g transform=" scale(10)  translate(1,2)  rotate(0) " style="stroke-width: 0.05px"><line x1="-0.5" y1="-0.5" x2="0.5" y2="0.5"></line></g><g transform=" scale(10)  translate(1,3)  rotate(90) " style="stroke-width: 0.05px"><line x1="-0.5" y1="-0.5" x2="0.5" y2="0.5"></line></g><g transform=" scale(10)  translate(1,4)  rotate(90) " style="stroke-width: 0.05px"><line x1="-0.5" y1="-0.5" x2="0.5" y2="0.5"></line></g><g transform=" scale(10)  translate(1,5)  rotate(90) " style="stroke-width: 0.05px"><line x1="-0.5" y1="-0.5" x2="0.5" y2="0.5"></line></g><g transform=" scale(10)  translate(1,6)  rotate(0) " style="stroke-width: 0.05px"><line x1="-0.5" y1="-0.5" x2="0.5" y2="0.5"></line></g><g transform=" scale(10)  translate(1,7)  rotate(0) " style="stroke-width: 0.05px"><line x1="-0.5" y1="-0.5" x2="0.5" y2="0.5"></line></g><g transform=" scale(10)  translate(1,8)  rotate(90) " style="stroke-width: 0.05px"><line x1="-0.5" y1="-0.5" x2="0.5" y2="0.5"></line></g><g transform=" scale(10)  translate(1,9)  rotate(0) " style="stroke-width: 0.05px"><line x1="-0.5" y1="-0.5" x2="0.5" y2="0.5"></line></g><g transform=" scale(10)  translate(1,10)  rotate(0) " style="stroke-width: 0.05px"><line x1="-0.5" y1="-0.5" x2="0.5" y2="0.5"></line></g><g transform=" scale(10)  translate(1,11)  rotate(90) " style="stroke-width: 0.05px"><line x1="-0.5" y1="-0.5" x2="0.5" y2="0.5"></line></g><g transform=" scale(10)  translate(1,12)  rotate(0) " style="stroke-width: 0.05px"><line x1="-0.5" y1="-0.5" x2="0.5" y2="0.5"></line></g><g transform=" scale(10)  translate(1,13)  rotate(90) " style="stroke-width: 0.05px"><line x1="-0.5" y1="-0.5" x2="0.5" y2="0.5"></line></g><g transform=" scale(10)  translate(1,14)  rotate(90) " style="stroke-width: 0.05px"><line x1="-0.5" y1="-0.5" x2="0.5" y2="0.5"></line></g><g transform=" scale(10)  translate(1,15)  rotate(90) " style="stroke-width: 0.05px"><line x1="-0.5" y1="-0.5" x2="0.5" y2="0.5"></line></g><g transform=" scale(10)  translate(2,0)  rotate(90) " style="stroke-width: 0.05px"><line x1="-0.5" y1="-0.5" x2="0.5" y2="0.5"></line></g><g transform=" scale(10)  translate(2,1)  rotate(0) " style="stroke-width: 0.05px"><line x1="-0.5" y1="-0.5" x2="0.5" y2="0.5"></line></g><g transform=" scale(10)  translate(2,2)  rotate(90) " style="stroke-width: 0.05px"><line x1="-0.5" y1="-0.5" x2="0.5" y2="0.5"></line></g><g transform=" scale(10)  translate(2,3)  rotate(90) " style="stroke-width: 0.05px"><line x1="-0.5" y1="-0.5" x2="0.5" y2="0.5"></line></g><g transform=" scale(10)  translate(2,4)  rotate(0) " style="stroke-width: 0.05px"><line x1="-0.5" y1="-0.5" x2="0.5" y2="0.5"></line></g><g transform=" scale(10)  translate(2,5)  rotate(0) " style="stroke-width: 0.05px"><line x1="-0.5" y1="-0.5" x2="0.5" y2="0.5"></line></g><g transform=" scale(10)  translate(2,6)  rotate(0) " style="stroke-width: 0.05px"><line x1="-0.5" y1="-0.5" x2="0.5" y2="0.5"></line></g><g transform=" scale(10)  translate(2,7)  rotate(90) " style="stroke-width: 0.05px"><line x1="-0.5" y1="-0.5" x2="0.5" y2="0.5"></line></g><g transform=" scale(10)  translate(2,8)  rotate(0) " style="stroke-width: 0.05px"><line x1="-0.5" y1="-0.5" x2="0.5" y2="0.5"></line></g><g transform=" scale(10)  translate(2,9)  rotate(0) " style="stroke-width: 0.05px"><line x1="-0.5" y1="-0.5" x2="0.5" y2="0.5"></line></g><g transform=" scale(10)  translate(2,10)  rotate(90) " style="stroke-width: 0.05px"><line x1="-0.5" y1="-0.5" x2="0.5" y2="0.5"></line></g><g transform=" scale(10)  translate(2,11)  rotate(0) " style="stroke-width: 0.05px"><line x1="-0.5" y1="-0.5" x2="0.5" y2="0.5"></line></g><g transform=" scale(10)  translate(2,12)  rotate(0) " style="stroke-width: 0.05px"><line x1="-0.5" y1="-0.5" x2="0.5" y2="0.5"></line></g><g transform=" scale(10)  translate(2,13)  rotate(0) " style="stroke-width: 0.05px"><line x1="-0.5" y1="-0.5" x2="0.5" y2="0.5"></line></g><g transform=" scale(10)  translate(2,14)  rotate(0) " style="stroke-width: 0.05px"><line x1="-0.5" y1="-0.5" x2="0.5" y2="0.5"></line></g><g transform=" scale(10)  translate(2,15)  rotate(0) " style="stroke-width: 0.05px"><line x1="-0.5" y1="-0.5" x2="0.5" y2="0.5"></line></g><g transform=" scale(10)  translate(3,0)  rotate(0) " style="stroke-width: 0.05px"><line x1="-0.5" y1="-0.5" x2="0.5" y2="0.5"></line></g><g transform=" scale(10)  translate(3,1)  rotate(0) " style="stroke-width: 0.05px"><line x1="-0.5" y1="-0.5" x2="0.5" y2="0.5"></line></g><g transform=" scale(10)  translate(3,2)  rotate(90) " style="stroke-width: 0.05px"><line x1="-0.5" y1="-0.5" x2="0.5" y2="0.5"></line></g><g transform=" scale(10)  translate(3,3)  rotate(90) " style="stroke-width: 0.05px"><line x1="-0.5" y1="-0.5" x2="0.5" y2="0.5"></line></g><g transform=" scale(10)  translate(3,4)  rotate(90) " style="stroke-width: 0.05px"><line x1="-0.5" y1="-0.5" x2="0.5" y2="0.5"></line></g><g transform=" scale(10)  translate(3,5)  rotate(0) " style="stroke-width: 0.05px"><line x1="-0.5" y1="-0.5" x2="0.5" y2="0.5"></line></g><g transform=" scale(10)  translate(3,6)  rotate(90) " style="stroke-width: 0.05px"><line x1="-0.5" y1="-0.5" x2="0.5" y2="0.5"></line></g><g transform=" scale(10)  translate(3,7)  rotate(90) " style="stroke-width: 0.05px"><line x1="-0.5" y1="-0.5" x2="0.5" y2="0.5"></line></g><g transform=" scale(10)  translate(3,8)  rotate(90) " style="stroke-width: 0.05px"><line x1="-0.5" y1="-0.5" x2="0.5" y2="0.5"></line></g><g transform=" scale(10)  translate(3,9)  rotate(0) " style="stroke-width: 0.05px"><line x1="-0.5" y1="-0.5" x2="0.5" y2="0.5"></line></g><g transform=" scale(10)  translate(3,10)  rotate(0) " style="stroke-width: 0.05px"><line x1="-0.5" y1="-0.5" x2="0.5" y2="0.5"></line></g><g transform=" scale(10)  translate(3,11)  rotate(90) " style="stroke-width: 0.05px"><line x1="-0.5" y1="-0.5" x2="0.5" y2="0.5"></line></g><g transform=" scale(10)  translate(3,12)  rotate(0) " style="stroke-width: 0.05px"><line x1="-0.5" y1="-0.5" x2="0.5" y2="0.5"></line></g><g transform=" scale(10)  translate(3,13)  rotate(90) " style="stroke-width: 0.05px"><line x1="-0.5" y1="-0.5" x2="0.5" y2="0.5"></line></g><g transform=" scale(10)  translate(3,14)  rotate(90) " style="stroke-width: 0.05px"><line x1="-0.5" y1="-0.5" x2="0.5" y2="0.5"></line></g><g transform=" scale(10)  translate(3,15)  rotate(0) " style="stroke-width: 0.05px"><line x1="-0.5" y1="-0.5" x2="0.5" y2="0.5"></line></g><g transform=" scale(10)  translate(4,0)  rotate(90) " style="stroke-width: 0.05px"><line x1="-0.5" y1="-0.5" x2="0.5" y2="0.5"></line></g><g transform=" scale(10)  translate(4,1)  rotate(90) " style="stroke-width: 0.05px"><line x1="-0.5" y1="-0.5" x2="0.5" y2="0.5"></line></g><g transform=" scale(10)  translate(4,2)  rotate(0) " style="stroke-width: 0.05px"><line x1="-0.5" y1="-0.5" x2="0.5" y2="0.5"></line></g><g transform=" scale(10)  translate(4,3)  rotate(0) " style="stroke-width: 0.05px"><line x1="-0.5" y1="-0.5" x2="0.5" y2="0.5"></line></g><g transform=" scale(10)  translate(4,4)  rotate(90) " style="stroke-width: 0.05px"><line x1="-0.5" y1="-0.5" x2="0.5" y2="0.5"></line></g><g transform=" scale(10)  translate(4,5)  rotate(90) " style="stroke-width: 0.05px"><line x1="-0.5" y1="-0.5" x2="0.5" y2="0.5"></line></g><g transform=" scale(10)  translate(4,6)  rotate(0) " style="stroke-width: 0.05px"><line x1="-0.5" y1="-0.5" x2="0.5" y2="0.5"></line></g><g transform=" scale(10)  translate(4,7)  rotate(90) " style="stroke-width: 0.05px"><line x1="-0.5" y1="-0.5" x2="0.5" y2="0.5"></line></g><g transform=" scale(10)  translate(4,8)  rotate(0) " style="stroke-width: 0.05px"><line x1="-0.5" y1="-0.5" x2="0.5" y2="0.5"></line></g><g transform=" scale(10)  translate(4,9)  rotate(90) " style="stroke-width: 0.05px"><line x1="-0.5" y1="-0.5" x2="0.5" y2="0.5"></line></g><g transform=" scale(10)  translate(4,10)  rotate(90) " style="stroke-width: 0.05px"><line x1="-0.5" y1="-0.5" x2="0.5" y2="0.5"></line></g><g transform=" scale(10)  translate(4,11)  rotate(90) " style="stroke-width: 0.05px"><line x1="-0.5" y1="-0.5" x2="0.5" y2="0.5"></line></g><g transform=" scale(10)  translate(4,12)  rotate(90) " style="stroke-width: 0.05px"><line x1="-0.5" y1="-0.5" x2="0.5" y2="0.5"></line></g><g transform=" scale(10)  translate(4,13)  rotate(90) " style="stroke-width: 0.05px"><line x1="-0.5" y1="-0.5" x2="0.5" y2="0.5"></line></g><g transform=" scale(10)  translate(4,14)  rotate(90) " style="stroke-width: 0.05px"><line x1="-0.5" y1="-0.5" x2="0.5" y2="0.5"></line></g><g transform=" scale(10)  translate(4,15)  rotate(90) " style="stroke-width: 0.05px"><line x1="-0.5" y1="-0.5" x2="0.5" y2="0.5"></line></g><g transform=" scale(10)  translate(5,0)  rotate(0) " style="stroke-width: 0.05px"><line x1="-0.5" y1="-0.5" x2="0.5" y2="0.5"></line></g><g transform=" scale(10)  translate(5,1)  rotate(90) " style="stroke-width: 0.05px"><line x1="-0.5" y1="-0.5" x2="0.5" y2="0.5"></line></g><g transform=" scale(10)  translate(5,2)  rotate(90) " style="stroke-width: 0.05px"><line x1="-0.5" y1="-0.5" x2="0.5" y2="0.5"></line></g><g transform=" scale(10)  translate(5,3)  rotate(0) " style="stroke-width: 0.05px"><line x1="-0.5" y1="-0.5" x2="0.5" y2="0.5"></line></g><g transform=" scale(10)  translate(5,4)  rotate(90) " style="stroke-width: 0.05px"><line x1="-0.5" y1="-0.5" x2="0.5" y2="0.5"></line></g><g transform=" scale(10)  translate(5,5)  rotate(0) " style="stroke-width: 0.05px"><line x1="-0.5" y1="-0.5" x2="0.5" y2="0.5"></line></g><g transform=" scale(10)  translate(5,6)  rotate(0) " style="stroke-width: 0.05px"><line x1="-0.5" y1="-0.5" x2="0.5" y2="0.5"></line></g><g transform=" scale(10)  translate(5,7)  rotate(0) " style="stroke-width: 0.05px"><line x1="-0.5" y1="-0.5" x2="0.5" y2="0.5"></line></g><g transform=" scale(10)  translate(5,8)  rotate(90) " style="stroke-width: 0.05px"><line x1="-0.5" y1="-0.5" x2="0.5" y2="0.5"></line></g><g transform=" scale(10)  translate(5,9)  rotate(90) " style="stroke-width: 0.05px"><line x1="-0.5" y1="-0.5" x2="0.5" y2="0.5"></line></g><g transform=" scale(10)  translate(5,10)  rotate(90) " style="stroke-width: 0.05px"><line x1="-0.5" y1="-0.5" x2="0.5" y2="0.5"></line></g><g transform=" scale(10)  translate(5,11)  rotate(90) " style="stroke-width: 0.05px"><line x1="-0.5" y1="-0.5" x2="0.5" y2="0.5"></line></g><g transform=" scale(10)  translate(5,12)  rotate(0) " style="stroke-width: 0.05px"><line x1="-0.5" y1="-0.5" x2="0.5" y2="0.5"></line></g><g transform=" scale(10)  translate(5,13)  rotate(90) " style="stroke-width: 0.05px"><line x1="-0.5" y1="-0.5" x2="0.5" y2="0.5"></line></g><g transform=" scale(10)  translate(5,14)  rotate(90) " style="stroke-width: 0.05px"><line x1="-0.5" y1="-0.5" x2="0.5" y2="0.5"></line></g><g transform=" scale(10)  translate(5,15)  rotate(0) " style="stroke-width: 0.05px"><line x1="-0.5" y1="-0.5" x2="0.5" y2="0.5"></line></g><g transform=" scale(10)  translate(6,0)  rotate(0) " style="stroke-width: 0.05px"><line x1="-0.5" y1="-0.5" x2="0.5" y2="0.5"></line></g><g transform=" scale(10)  translate(6,1)  rotate(90) " style="stroke-width: 0.05px"><line x1="-0.5" y1="-0.5" x2="0.5" y2="0.5"></line></g><g transform=" scale(10)  translate(6,2)  rotate(90) " style="stroke-width: 0.05px"><line x1="-0.5" y1="-0.5" x2="0.5" y2="0.5"></line></g><g transform=" scale(10)  translate(6,3)  rotate(90) " style="stroke-width: 0.05px"><line x1="-0.5" y1="-0.5" x2="0.5" y2="0.5"></line></g><g transform=" scale(10)  translate(6,4)  rotate(0) " style="stroke-width: 0.05px"><line x1="-0.5" y1="-0.5" x2="0.5" y2="0.5"></line></g><g transform=" scale(10)  translate(6,5)  rotate(90) " style="stroke-width: 0.05px"><line x1="-0.5" y1="-0.5" x2="0.5" y2="0.5"></line></g><g transform=" scale(10)  translate(6,6)  rotate(0) " style="stroke-width: 0.05px"><line x1="-0.5" y1="-0.5" x2="0.5" y2="0.5"></line></g><g transform=" scale(10)  translate(6,7)  rotate(90) " style="stroke-width: 0.05px"><line x1="-0.5" y1="-0.5" x2="0.5" y2="0.5"></line></g><g transform=" scale(10)  translate(6,8)  rotate(90) " style="stroke-width: 0.05px"><line x1="-0.5" y1="-0.5" x2="0.5" y2="0.5"></line></g><g transform=" scale(10)  translate(6,9)  rotate(90) " style="stroke-width: 0.05px"><line x1="-0.5" y1="-0.5" x2="0.5" y2="0.5"></line></g><g transform=" scale(10)  translate(6,10)  rotate(0) " style="stroke-width: 0.05px"><line x1="-0.5" y1="-0.5" x2="0.5" y2="0.5"></line></g><g transform=" scale(10)  translate(6,11)  rotate(0) " style="stroke-width: 0.05px"><line x1="-0.5" y1="-0.5" x2="0.5" y2="0.5"></line></g><g transform=" scale(10)  translate(6,12)  rotate(0) " style="stroke-width: 0.05px"><line x1="-0.5" y1="-0.5" x2="0.5" y2="0.5"></line></g><g transform=" scale(10)  translate(6,13)  rotate(0) " style="stroke-width: 0.05px"><line x1="-0.5" y1="-0.5" x2="0.5" y2="0.5"></line></g><g transform=" scale(10)  translate(6,14)  rotate(90) " style="stroke-width: 0.05px"><line x1="-0.5" y1="-0.5" x2="0.5" y2="0.5"></line></g><g transform=" scale(10)  translate(6,15)  rotate(90) " style="stroke-width: 0.05px"><line x1="-0.5" y1="-0.5" x2="0.5" y2="0.5"></line></g><g transform=" scale(10)  translate(7,0)  rotate(0) " style="stroke-width: 0.05px"><line x1="-0.5" y1="-0.5" x2="0.5" y2="0.5"></line></g><g transform=" scale(10)  translate(7,1)  rotate(90) " style="stroke-width: 0.05px"><line x1="-0.5" y1="-0.5" x2="0.5" y2="0.5"></line></g><g transform=" scale(10)  translate(7,2)  rotate(90) " style="stroke-width: 0.05px"><line x1="-0.5" y1="-0.5" x2="0.5" y2="0.5"></line></g><g transform=" scale(10)  translate(7,3)  rotate(0) " style="stroke-width: 0.05px"><line x1="-0.5" y1="-0.5" x2="0.5" y2="0.5"></line></g><g transform=" scale(10)  translate(7,4)  rotate(0) " style="stroke-width: 0.05px"><line x1="-0.5" y1="-0.5" x2="0.5" y2="0.5"></line></g><g transform=" scale(10)  translate(7,5)  rotate(0) " style="stroke-width: 0.05px"><line x1="-0.5" y1="-0.5" x2="0.5" y2="0.5"></line></g><g transform=" scale(10)  translate(7,6)  rotate(90) " style="stroke-width: 0.05px"><line x1="-0.5" y1="-0.5" x2="0.5" y2="0.5"></line></g><g transform=" scale(10)  translate(7,7)  rotate(90) " style="stroke-width: 0.05px"><line x1="-0.5" y1="-0.5" x2="0.5" y2="0.5"></line></g><g transform=" scale(10)  translate(7,8)  rotate(90) " style="stroke-width: 0.05px"><line x1="-0.5" y1="-0.5" x2="0.5" y2="0.5"></line></g><g transform=" scale(10)  translate(7,9)  rotate(90) " style="stroke-width: 0.05px"><line x1="-0.5" y1="-0.5" x2="0.5" y2="0.5"></line></g><g transform=" scale(10)  translate(7,10)  rotate(0) " style="stroke-width: 0.05px"><line x1="-0.5" y1="-0.5" x2="0.5" y2="0.5"></line></g><g transform=" scale(10)  translate(7,11)  rotate(0) " style="stroke-width: 0.05px"><line x1="-0.5" y1="-0.5" x2="0.5" y2="0.5"></line></g><g transform=" scale(10)  translate(7,12)  rotate(90) " style="stroke-width: 0.05px"><line x1="-0.5" y1="-0.5" x2="0.5" y2="0.5"></line></g><g transform=" scale(10)  translate(7,13)  rotate(90) " style="stroke-width: 0.05px"><line x1="-0.5" y1="-0.5" x2="0.5" y2="0.5"></line></g><g transform=" scale(10)  translate(7,14)  rotate(90) " style="stroke-width: 0.05px"><line x1="-0.5" y1="-0.5" x2="0.5" y2="0.5"></line></g><g transform=" scale(10)  translate(7,15)  rotate(90) " style="stroke-width: 0.05px"><line x1="-0.5" y1="-0.5" x2="0.5" y2="0.5"></line></g><g transform=" scale(10)  translate(8,0)  rotate(90) " style="stroke-width: 0.05px"><line x1="-0.5" y1="-0.5" x2="0.5" y2="0.5"></line></g><g transform=" scale(10)  translate(8,1)  rotate(90) " style="stroke-width: 0.05px"><line x1="-0.5" y1="-0.5" x2="0.5" y2="0.5"></line></g><g transform=" scale(10)  translate(8,2)  rotate(0) " style="stroke-width: 0.05px"><line x1="-0.5" y1="-0.5" x2="0.5" y2="0.5"></line></g><g transform=" scale(10)  translate(8,3)  rotate(90) " style="stroke-width: 0.05px"><line x1="-0.5" y1="-0.5" x2="0.5" y2="0.5"></line></g><g transform=" scale(10)  translate(8,4)  rotate(0) " style="stroke-width: 0.05px"><line x1="-0.5" y1="-0.5" x2="0.5" y2="0.5"></line></g><g transform=" scale(10)  translate(8,5)  rotate(0) " style="stroke-width: 0.05px"><line x1="-0.5" y1="-0.5" x2="0.5" y2="0.5"></line></g><g transform=" scale(10)  translate(8,6)  rotate(90) " style="stroke-width: 0.05px"><line x1="-0.5" y1="-0.5" x2="0.5" y2="0.5"></line></g><g transform=" scale(10)  translate(8,7)  rotate(0) " style="stroke-width: 0.05px"><line x1="-0.5" y1="-0.5" x2="0.5" y2="0.5"></line></g><g transform=" scale(10)  translate(8,8)  rotate(0) " style="stroke-width: 0.05px"><line x1="-0.5" y1="-0.5" x2="0.5" y2="0.5"></line></g><g transform=" scale(10)  translate(8,9)  rotate(0) " style="stroke-width: 0.05px"><line x1="-0.5" y1="-0.5" x2="0.5" y2="0.5"></line></g><g transform=" scale(10)  translate(8,10)  rotate(0) " style="stroke-width: 0.05px"><line x1="-0.5" y1="-0.5" x2="0.5" y2="0.5"></line></g><g transform=" scale(10)  translate(8,11)  rotate(0) " style="stroke-width: 0.05px"><line x1="-0.5" y1="-0.5" x2="0.5" y2="0.5"></line></g><g transform=" scale(10)  translate(8,12)  rotate(90) " style="stroke-width: 0.05px"><line x1="-0.5" y1="-0.5" x2="0.5" y2="0.5"></line></g><g transform=" scale(10)  translate(8,13)  rotate(0) " style="stroke-width: 0.05px"><line x1="-0.5" y1="-0.5" x2="0.5" y2="0.5"></line></g><g transform=" scale(10)  translate(8,14)  rotate(90) " style="stroke-width: 0.05px"><line x1="-0.5" y1="-0.5" x2="0.5" y2="0.5"></line></g><g transform=" scale(10)  translate(8,15)  rotate(0) " style="stroke-width: 0.05px"><line x1="-0.5" y1="-0.5" x2="0.5" y2="0.5"></line></g><g transform=" scale(10)  translate(9,0)  rotate(0) " style="stroke-width: 0.05px"><line x1="-0.5" y1="-0.5" x2="0.5" y2="0.5"></line></g><g transform=" scale(10)  translate(9,1)  rotate(90) " style="stroke-width: 0.05px"><line x1="-0.5" y1="-0.5" x2="0.5" y2="0.5"></line></g><g transform=" scale(10)  translate(9,2)  rotate(0) " style="stroke-width: 0.05px"><line x1="-0.5" y1="-0.5" x2="0.5" y2="0.5"></line></g><g transform=" scale(10)  translate(9,3)  rotate(90) " style="stroke-width: 0.05px"><line x1="-0.5" y1="-0.5" x2="0.5" y2="0.5"></line></g><g transform=" scale(10)  translate(9,4)  rotate(0) " style="stroke-width: 0.05px"><line x1="-0.5" y1="-0.5" x2="0.5" y2="0.5"></line></g><g transform=" scale(10)  translate(9,5)  rotate(0) " style="stroke-width: 0.05px"><line x1="-0.5" y1="-0.5" x2="0.5" y2="0.5"></line></g><g transform=" scale(10)  translate(9,6)  rotate(90) " style="stroke-width: 0.05px"><line x1="-0.5" y1="-0.5" x2="0.5" y2="0.5"></line></g><g transform=" scale(10)  translate(9,7)  rotate(0) " style="stroke-width: 0.05px"><line x1="-0.5" y1="-0.5" x2="0.5" y2="0.5"></line></g><g transform=" scale(10)  translate(9,8)  rotate(90) " style="stroke-width: 0.05px"><line x1="-0.5" y1="-0.5" x2="0.5" y2="0.5"></line></g><g transform=" scale(10)  translate(9,9)  rotate(90) " style="stroke-width: 0.05px"><line x1="-0.5" y1="-0.5" x2="0.5" y2="0.5"></line></g><g transform=" scale(10)  translate(9,10)  rotate(90) " style="stroke-width: 0.05px"><line x1="-0.5" y1="-0.5" x2="0.5" y2="0.5"></line></g><g transform=" scale(10)  translate(9,11)  rotate(0) " style="stroke-width: 0.05px"><line x1="-0.5" y1="-0.5" x2="0.5" y2="0.5"></line></g><g transform=" scale(10)  translate(9,12)  rotate(90) " style="stroke-width: 0.05px"><line x1="-0.5" y1="-0.5" x2="0.5" y2="0.5"></line></g><g transform=" scale(10)  translate(9,13)  rotate(90) " style="stroke-width: 0.05px"><line x1="-0.5" y1="-0.5" x2="0.5" y2="0.5"></line></g><g transform=" scale(10)  translate(9,14)  rotate(0) " style="stroke-width: 0.05px"><line x1="-0.5" y1="-0.5" x2="0.5" y2="0.5"></line></g><g transform=" scale(10)  translate(9,15)  rotate(90) " style="stroke-width: 0.05px"><line x1="-0.5" y1="-0.5" x2="0.5" y2="0.5"></line></g><g transform=" scale(10)  translate(10,0)  rotate(0) " style="stroke-width: 0.05px"><line x1="-0.5" y1="-0.5" x2="0.5" y2="0.5"></line></g><g transform=" scale(10)  translate(10,1)  rotate(90) " style="stroke-width: 0.05px"><line x1="-0.5" y1="-0.5" x2="0.5" y2="0.5"></line></g><g transform=" scale(10)  translate(10,2)  rotate(90) " style="stroke-width: 0.05px"><line x1="-0.5" y1="-0.5" x2="0.5" y2="0.5"></line></g><g transform=" scale(10)  translate(10,3)  rotate(0) " style="stroke-width: 0.05px"><line x1="-0.5" y1="-0.5" x2="0.5" y2="0.5"></line></g><g transform=" scale(10)  translate(10,4)  rotate(90) " style="stroke-width: 0.05px"><line x1="-0.5" y1="-0.5" x2="0.5" y2="0.5"></line></g><g transform=" scale(10)  translate(10,5)  rotate(0) " style="stroke-width: 0.05px"><line x1="-0.5" y1="-0.5" x2="0.5" y2="0.5"></line></g><g transform=" scale(10)  translate(10,6)  rotate(0) " style="stroke-width: 0.05px"><line x1="-0.5" y1="-0.5" x2="0.5" y2="0.5"></line></g><g transform=" scale(10)  translate(10,7)  rotate(0) " style="stroke-width: 0.05px"><line x1="-0.5" y1="-0.5" x2="0.5" y2="0.5"></line></g><g transform=" scale(10)  translate(10,8)  rotate(90) " style="stroke-width: 0.05px"><line x1="-0.5" y1="-0.5" x2="0.5" y2="0.5"></line></g><g transform=" scale(10)  translate(10,9)  rotate(90) " style="stroke-width: 0.05px"><line x1="-0.5" y1="-0.5" x2="0.5" y2="0.5"></line></g><g transform=" scale(10)  translate(10,10)  rotate(0) " style="stroke-width: 0.05px"><line x1="-0.5" y1="-0.5" x2="0.5" y2="0.5"></line></g><g transform=" scale(10)  translate(10,11)  rotate(0) " style="stroke-width: 0.05px"><line x1="-0.5" y1="-0.5" x2="0.5" y2="0.5"></line></g><g transform=" scale(10)  translate(10,12)  rotate(90) " style="stroke-width: 0.05px"><line x1="-0.5" y1="-0.5" x2="0.5" y2="0.5"></line></g><g transform=" scale(10)  translate(10,13)  rotate(0) " style="stroke-width: 0.05px"><line x1="-0.5" y1="-0.5" x2="0.5" y2="0.5"></line></g><g transform=" scale(10)  translate(10,14)  rotate(0) " style="stroke-width: 0.05px"><line x1="-0.5" y1="-0.5" x2="0.5" y2="0.5"></line></g><g transform=" scale(10)  translate(10,15)  rotate(0) " style="stroke-width: 0.05px"><line x1="-0.5" y1="-0.5" x2="0.5" y2="0.5"></line></g><g transform=" scale(10)  translate(11,0)  rotate(90) " style="stroke-width: 0.05px"><line x1="-0.5" y1="-0.5" x2="0.5" y2="0.5"></line></g><g transform=" scale(10)  translate(11,1)  rotate(0) " style="stroke-width: 0.05px"><line x1="-0.5" y1="-0.5" x2="0.5" y2="0.5"></line></g><g transform=" scale(10)  translate(11,2)  rotate(0) " style="stroke-width: 0.05px"><line x1="-0.5" y1="-0.5" x2="0.5" y2="0.5"></line></g><g transform=" scale(10)  translate(11,3)  rotate(90) " style="stroke-width: 0.05px"><line x1="-0.5" y1="-0.5" x2="0.5" y2="0.5"></line></g><g transform=" scale(10)  translate(11,4)  rotate(90) " style="stroke-width: 0.05px"><line x1="-0.5" y1="-0.5" x2="0.5" y2="0.5"></line></g><g transform=" scale(10)  translate(11,5)  rotate(90) " style="stroke-width: 0.05px"><line x1="-0.5" y1="-0.5" x2="0.5" y2="0.5"></line></g><g transform=" scale(10)  translate(11,6)  rotate(90) " style="stroke-width: 0.05px"><line x1="-0.5" y1="-0.5" x2="0.5" y2="0.5"></line></g><g transform=" scale(10)  translate(11,7)  rotate(90) " style="stroke-width: 0.05px"><line x1="-0.5" y1="-0.5" x2="0.5" y2="0.5"></line></g><g transform=" scale(10)  translate(11,8)  rotate(90) " style="stroke-width: 0.05px"><line x1="-0.5" y1="-0.5" x2="0.5" y2="0.5"></line></g><g transform=" scale(10)  translate(11,9)  rotate(0) " style="stroke-width: 0.05px"><line x1="-0.5" y1="-0.5" x2="0.5" y2="0.5"></line></g><g transform=" scale(10)  translate(11,10)  rotate(0) " style="stroke-width: 0.05px"><line x1="-0.5" y1="-0.5" x2="0.5" y2="0.5"></line></g><g transform=" scale(10)  translate(11,11)  rotate(90) " style="stroke-width: 0.05px"><line x1="-0.5" y1="-0.5" x2="0.5" y2="0.5"></line></g><g transform=" scale(10)  translate(11,12)  rotate(90) " style="stroke-width: 0.05px"><line x1="-0.5" y1="-0.5" x2="0.5" y2="0.5"></line></g><g transform=" scale(10)  translate(11,13)  rotate(90) " style="stroke-width: 0.05px"><line x1="-0.5" y1="-0.5" x2="0.5" y2="0.5"></line></g><g transform=" scale(10)  translate(11,14)  rotate(90) " style="stroke-width: 0.05px"><line x1="-0.5" y1="-0.5" x2="0.5" y2="0.5"></line></g><g transform=" scale(10)  translate(11,15)  rotate(0) " style="stroke-width: 0.05px"><line x1="-0.5" y1="-0.5" x2="0.5" y2="0.5"></line></g><g transform=" scale(10)  translate(12,0)  rotate(0) " style="stroke-width: 0.05px"><line x1="-0.5" y1="-0.5" x2="0.5" y2="0.5"></line></g><g transform=" scale(10)  translate(12,1)  rotate(0) " style="stroke-width: 0.05px"><line x1="-0.5" y1="-0.5" x2="0.5" y2="0.5"></line></g><g transform=" scale(10)  translate(12,2)  rotate(0) " style="stroke-width: 0.05px"><line x1="-0.5" y1="-0.5" x2="0.5" y2="0.5"></line></g><g transform=" scale(10)  translate(12,3)  rotate(0) " style="stroke-width: 0.05px"><line x1="-0.5" y1="-0.5" x2="0.5" y2="0.5"></line></g><g transform=" scale(10)  translate(12,4)  rotate(90) " style="stroke-width: 0.05px"><line x1="-0.5" y1="-0.5" x2="0.5" y2="0.5"></line></g><g transform=" scale(10)  translate(12,5)  rotate(0) " style="stroke-width: 0.05px"><line x1="-0.5" y1="-0.5" x2="0.5" y2="0.5"></line></g><g transform=" scale(10)  translate(12,6)  rotate(0) " style="stroke-width: 0.05px"><line x1="-0.5" y1="-0.5" x2="0.5" y2="0.5"></line></g><g transform=" scale(10)  translate(12,7)  rotate(0) " style="stroke-width: 0.05px"><line x1="-0.5" y1="-0.5" x2="0.5" y2="0.5"></line></g><g transform=" scale(10)  translate(12,8)  rotate(0) " style="stroke-width: 0.05px"><line x1="-0.5" y1="-0.5" x2="0.5" y2="0.5"></line></g><g transform=" scale(10)  translate(12,9)  rotate(0) " style="stroke-width: 0.05px"><line x1="-0.5" y1="-0.5" x2="0.5" y2="0.5"></line></g><g transform=" scale(10)  translate(12,10)  rotate(0) " style="stroke-width: 0.05px"><line x1="-0.5" y1="-0.5" x2="0.5" y2="0.5"></line></g><g transform=" scale(10)  translate(12,11)  rotate(90) " style="stroke-width: 0.05px"><line x1="-0.5" y1="-0.5" x2="0.5" y2="0.5"></line></g><g transform=" scale(10)  translate(12,12)  rotate(90) " style="stroke-width: 0.05px"><line x1="-0.5" y1="-0.5" x2="0.5" y2="0.5"></line></g><g transform=" scale(10)  translate(12,13)  rotate(90) " style="stroke-width: 0.05px"><line x1="-0.5" y1="-0.5" x2="0.5" y2="0.5"></line></g><g transform=" scale(10)  translate(12,14)  rotate(0) " style="stroke-width: 0.05px"><line x1="-0.5" y1="-0.5" x2="0.5" y2="0.5"></line></g><g transform=" scale(10)  translate(12,15)  rotate(90) " style="stroke-width: 0.05px"><line x1="-0.5" y1="-0.5" x2="0.5" y2="0.5"></line></g><g transform=" scale(10)  translate(13,0)  rotate(0) " style="stroke-width: 0.05px"><line x1="-0.5" y1="-0.5" x2="0.5" y2="0.5"></line></g><g transform=" scale(10)  translate(13,1)  rotate(0) " style="stroke-width: 0.05px"><line x1="-0.5" y1="-0.5" x2="0.5" y2="0.5"></line></g><g transform=" scale(10)  translate(13,2)  rotate(90) " style="stroke-width: 0.05px"><line x1="-0.5" y1="-0.5" x2="0.5" y2="0.5"></line></g><g transform=" scale(10)  translate(13,3)  rotate(0) " style="stroke-width: 0.05px"><line x1="-0.5" y1="-0.5" x2="0.5" y2="0.5"></line></g><g transform=" scale(10)  translate(13,4)  rotate(90) " style="stroke-width: 0.05px"><line x1="-0.5" y1="-0.5" x2="0.5" y2="0.5"></line></g><g transform=" scale(10)  translate(13,5)  rotate(90) " style="stroke-width: 0.05px"><line x1="-0.5" y1="-0.5" x2="0.5" y2="0.5"></line></g><g transform=" scale(10)  translate(13,6)  rotate(90) " style="stroke-width: 0.05px"><line x1="-0.5" y1="-0.5" x2="0.5" y2="0.5"></line></g><g transform=" scale(10)  translate(13,7)  rotate(0) " style="stroke-width: 0.05px"><line x1="-0.5" y1="-0.5" x2="0.5" y2="0.5"></line></g><g transform=" scale(10)  translate(13,8)  rotate(90) " style="stroke-width: 0.05px"><line x1="-0.5" y1="-0.5" x2="0.5" y2="0.5"></line></g><g transform=" scale(10)  translate(13,9)  rotate(0) " style="stroke-width: 0.05px"><line x1="-0.5" y1="-0.5" x2="0.5" y2="0.5"></line></g><g transform=" scale(10)  translate(13,10)  rotate(90) " style="stroke-width: 0.05px"><line x1="-0.5" y1="-0.5" x2="0.5" y2="0.5"></line></g><g transform=" scale(10)  translate(13,11)  rotate(0) " style="stroke-width: 0.05px"><line x1="-0.5" y1="-0.5" x2="0.5" y2="0.5"></line></g><g transform=" scale(10)  translate(13,12)  rotate(90) " style="stroke-width: 0.05px"><line x1="-0.5" y1="-0.5" x2="0.5" y2="0.5"></line></g><g transform=" scale(10)  translate(13,13)  rotate(0) " style="stroke-width: 0.05px"><line x1="-0.5" y1="-0.5" x2="0.5" y2="0.5"></line></g><g transform=" scale(10)  translate(13,14)  rotate(0) " style="stroke-width: 0.05px"><line x1="-0.5" y1="-0.5" x2="0.5" y2="0.5"></line></g><g transform=" scale(10)  translate(13,15)  rotate(0) " style="stroke-width: 0.05px"><line x1="-0.5" y1="-0.5" x2="0.5" y2="0.5"></line></g><g transform=" scale(10)  translate(14,0)  rotate(90) " style="stroke-width: 0.05px"><line x1="-0.5" y1="-0.5" x2="0.5" y2="0.5"></line></g><g transform=" scale(10)  translate(14,1)  rotate(90) " style="stroke-width: 0.05px"><line x1="-0.5" y1="-0.5" x2="0.5" y2="0.5"></line></g><g transform=" scale(10)  translate(14,2)  rotate(0) " style="stroke-width: 0.05px"><line x1="-0.5" y1="-0.5" x2="0.5" y2="0.5"></line></g><g transform=" scale(10)  translate(14,3)  rotate(90) " style="stroke-width: 0.05px"><line x1="-0.5" y1="-0.5" x2="0.5" y2="0.5"></line></g><g transform=" scale(10)  translate(14,4)  rotate(0) " style="stroke-width: 0.05px"><line x1="-0.5" y1="-0.5" x2="0.5" y2="0.5"></line></g><g transform=" scale(10)  translate(14,5)  rotate(90) " style="stroke-width: 0.05px"><line x1="-0.5" y1="-0.5" x2="0.5" y2="0.5"></line></g><g transform=" scale(10)  translate(14,6)  rotate(0) " style="stroke-width: 0.05px"><line x1="-0.5" y1="-0.5" x2="0.5" y2="0.5"></line></g><g transform=" scale(10)  translate(14,7)  rotate(90) " style="stroke-width: 0.05px"><line x1="-0.5" y1="-0.5" x2="0.5" y2="0.5"></line></g><g transform=" scale(10)  translate(14,8)  rotate(0) " style="stroke-width: 0.05px"><line x1="-0.5" y1="-0.5" x2="0.5" y2="0.5"></line></g><g transform=" scale(10)  translate(14,9)  rotate(0) " style="stroke-width: 0.05px"><line x1="-0.5" y1="-0.5" x2="0.5" y2="0.5"></line></g><g transform=" scale(10)  translate(14,10)  rotate(90) " style="stroke-width: 0.05px"><line x1="-0.5" y1="-0.5" x2="0.5" y2="0.5"></line></g><g transform=" scale(10)  translate(14,11)  rotate(90) " style="stroke-width: 0.05px"><line x1="-0.5" y1="-0.5" x2="0.5" y2="0.5"></line></g><g transform=" scale(10)  translate(14,12)  rotate(90) " style="stroke-width: 0.05px"><line x1="-0.5" y1="-0.5" x2="0.5" y2="0.5"></line></g><g transform=" scale(10)  translate(14,13)  rotate(0) " style="stroke-width: 0.05px"><line x1="-0.5" y1="-0.5" x2="0.5" y2="0.5"></line></g><g transform=" scale(10)  translate(14,14)  rotate(90) " style="stroke-width: 0.05px"><line x1="-0.5" y1="-0.5" x2="0.5" y2="0.5"></line></g><g transform=" scale(10)  translate(14,15)  rotate(0) " style="stroke-width: 0.05px"><line x1="-0.5" y1="-0.5" x2="0.5" y2="0.5"></line></g><g transform=" scale(10)  translate(15,0)  rotate(0) " style="stroke-width: 0.05px"><line x1="-0.5" y1="-0.5" x2="0.5" y2="0.5"></line></g><g transform=" scale(10)  translate(15,1)  rotate(90) " style="stroke-width: 0.05px"><line x1="-0.5" y1="-0.5" x2="0.5" y2="0.5"></line></g><g transform=" scale(10)  translate(15,2)  rotate(90) " style="stroke-width: 0.05px"><line x1="-0.5" y1="-0.5" x2="0.5" y2="0.5"></line></g><g transform=" scale(10)  translate(15,3)  rotate(0) " style="stroke-width: 0.05px"><line x1="-0.5" y1="-0.5" x2="0.5" y2="0.5"></line></g><g transform=" scale(10)  translate(15,4)  rotate(0) " style="stroke-width: 0.05px"><line x1="-0.5" y1="-0.5" x2="0.5" y2="0.5"></line></g><g transform=" scale(10)  translate(15,5)  rotate(90) " style="stroke-width: 0.05px"><line x1="-0.5" y1="-0.5" x2="0.5" y2="0.5"></line></g><g transform=" scale(10)  translate(15,6)  rotate(0) " style="stroke-width: 0.05px"><line x1="-0.5" y1="-0.5" x2="0.5" y2="0.5"></line></g><g transform=" scale(10)  translate(15,7)  rotate(90) " style="stroke-width: 0.05px"><line x1="-0.5" y1="-0.5" x2="0.5" y2="0.5"></line></g><g transform=" scale(10)  translate(15,8)  rotate(0) " style="stroke-width: 0.05px"><line x1="-0.5" y1="-0.5" x2="0.5" y2="0.5"></line></g><g transform=" scale(10)  translate(15,9)  rotate(0) " style="stroke-width: 0.05px"><line x1="-0.5" y1="-0.5" x2="0.5" y2="0.5"></line></g><g transform=" scale(10)  translate(15,10)  rotate(0) " style="stroke-width: 0.05px"><line x1="-0.5" y1="-0.5" x2="0.5" y2="0.5"></line></g><g transform=" scale(10)  translate(15,11)  rotate(90) " style="stroke-width: 0.05px"><line x1="-0.5" y1="-0.5" x2="0.5" y2="0.5"></line></g><g transform=" scale(10)  translate(15,12)  rotate(90) " style="stroke-width: 0.05px"><line x1="-0.5" y1="-0.5" x2="0.5" y2="0.5"></line></g><g transform=" scale(10)  translate(15,13)  rotate(0) " style="stroke-width: 0.05px"><line x1="-0.5" y1="-0.5" x2="0.5" y2="0.5"></line></g><g transform=" scale(10)  translate(15,14)  rotate(0) " style="stroke-width: 0.05px"><line x1="-0.5" y1="-0.5" x2="0.5" y2="0.5"></line></g><g transform=" scale(10)  translate(15,15)  rotate(90) " style="stroke-width: 0.05px"><line x1="-0.5" y1="-0.5" x2="0.5" y2="0.5"></line></g></g></svg>