<svg viewBox="-6 -6 42 42" fill="none" stroke="black" stroke-linecap="round" stroke-linejoin="round" id="frame" stroke-width="0.4" width="297mm" height="210mm" xmlns="http://www.w3.org/2000/svg"><g transform=" "><g transform=" scale(10)  translate(0,0) " style="stroke-width: 0.05px"><line x1="-0.5" y1="-0.5" x2="0.5" y2="0.5"></line></g><g transform=" scale(10)  translate(0,1) " style="stroke-width: 0.05px"><line x1="-0.5" y1="-0.5" x2="0.5" y2="0.5"></line></g><g transform=" scale(10)  translate(0,2) " style="stroke-width: 0.05px"><line x1="-0.5" y1="-0.5" x2="0.5" y2="0.5"></line></g><g transform=" scale(10)  translate(0,3) " style="stroke-width: 0.05px"><line x1="-0.5" y1="-0.5" x2="0.5" y2="0.5"></line></g><g transform=" scale(10)  translate(1,0) " style="stroke-width: 0.05px"><line x1="-0.5" y1="-0.5" x2="0.5" y2="0.5"></line></g><g transform=" scale(10)  translate(1,1) " style="stroke-width: 0.05px"><line x1="-0.5" y1="-0.5" x2="0.5" y2="0.5"></line></g><g transform=" scale(10)  translate(1,2) " style="stroke-width: 0.05px"><line x1="-0.5" y1="-0.5" x2="0.5" y2="0.5"></line></g><g transform=" scale(10)  translate(1,3) " style="stroke-width: 0.05px"><line x1="-0.5" y1="-0.5" x2="0.5" y2="0.5"></line></g><g transform=" scale(10)  translate(2,0) " style="stroke-width: 0.05px"><line x1="-0.5" y1="-0.5" x2="0.5" y2="0.5"></line></g><g transform=" scale(10)  translate(2,1) " style="stroke-width: 0.05px"><line x1="-0.5" y1="-0.5" x2="0.5" y2="0.5"></line></g><g transform=" scale(10)  translate(2,2) " style="stroke-width: 0.05px"><line x1="-0.5" y1="-0.5" x2="0.5" y2="0.5"></line></g><g transform=" scale(10)  translate(2,3) " style="stroke-width: 0.05px"><line x1="-0.5" y1="-0.5" x2="0.5" y2="0.5"></line></g><g transform=" scale(10)  translate(3,0) " style="stroke-width: 0.05px"><line x1="-0.5" y1="-0.5" x2="0.5" y2="0.5"></line></g><g transform=" scale(10)  translate(3,1) " style="stroke-width: 0.05px"><line x1="-0.5" y1="-0.5" x2="0.5" y2="0.5"></line></g><g transform=" scale(10)  translate(3,2) " style="stroke-width: 0.05px"><line x1="-0.5" y1="-0.5" x2="0.5" y2="0.5"></line></g><g transform=" scale(10)  translate(3,3) " style="stroke-width: 0.05px"><line x1="-0.5" y1="-0.5" x2="0.5" y2="0.5"></line></g></g></svg>