<svg viewBox="0 0 297 210" fill="none" stroke="black" stroke-linecap="round" stroke-linejoin="round" id="frame" stroke-width="0.4" width="297mm" height="210mm" xmlns="http://www.w3.org/2000/svg"><g transform=" translate(90,40)  scale(2) "><path d="M0 0 L1 0 L1 1 L0 1.0000000000000002 L6.123233995736766e-17 2 L1.2246467991473532e-16 3 L1.0000000000000002 3 L1.0000000000000002 2 L2 2 L2 3 L3 3 L3 2 L3 1 L2 0.9999999999999999 L2 -1.1102230246251565e-16 L3 -1.1102230246251565e-16 L4 -1.1102230246251565e-16 L4 0.9999999999999999 L5 0.9999999999999999 L5 -1.1102230246251565e-16 L6 -1.1102230246251565e-16 L7 -1.1102230246251565e-16 L7 0.9999999999999999 L6 1 L6 2 L7 2 L7 3 L6 3 L5 3 L5 2 L4 2 L4 3 L4 4 L4 5 L5 5 L5 4 L6 4 L7 4 L7 5 L6 5 L6 6 L7 6 L7 7 L6 7 L5 7 L5 6 L4 6 L4 7 L3 7 L2 7 L1.9999999999999998 6 L3 6 L3 5 L3 4 L2 4 L2 5 L1 5 L0.9999999999999998 4 L-2.220446049250313e-16 4 L-1.6081226496766364e-16 5 L-9.957992501029598e-17 6 L0.9999999999999999 6 L1 7 L0 7 L6.123233995736766e-17 8 L1.2246467991473532e-16 9 L1.0000000000000002 9 L1.0000000000000002 8 L2 8 L3 8 L3 9 L2 9 L2 10 L3 10 L3 11 L2 11 L1 11 L0.9999999999999998 10 L-2.220446049250313e-16 10 L-1.6081226496766364e-16 11 L-9.957992501029598e-17 12 L0.9999999999999999 12 L1 13 L0 13 L6.123233995736766e-17 14 L1.2246467991473532e-16 15 L1.0000000000000002 15 L1.0000000000000002 14 L2 14 L2 15 L3 15 L3 14 L3 13 L2 13 L2 12 L3 12 L4 12 L5 12 L5 13 L4 13 L4 14 L4 15 L5 15 L5 14 L6 14 L6 15 L7 15 L7 14 L7 13 L6 13 L6 12 L7 12 L7 11 L7 10 L6 10 L6 11 L5 11 L4 11 L4 10 L5 10 L5 9 L4 9 L4 8 L5 8 L6 8 L6 9 L7 9 L7 8 L8 8 L8 9 L9 9 L9 8 L10 8 L11 8 L11 9 L10 9 L10 10 L11 10 L11 11 L10 11 L9 11 L9 10 L8 10 L8 11 L8 12 L9 12 L9 13 L8 13 L8 14 L8 15 L9 15 L9 14 L10 14 L10 15 L11 15 L11 14 L11 13 L10 13 L10 12 L11 12 L12 12 L13 12 L13 13 L12 13 L12 14 L12 15 L13 15 L13 14 L14 14 L14 15 L15 15 L15 14 L15 13 L14 13 L14 12 L15 12 L15 11 L15 10 L14 10 L14 11 L13 11 L12 11 L12 10 L13 10 L13 9 L12 9 L12 8 L13 8 L14 8 L14 9 L15 9 L15 8 L15 7 L14 7 L14 6 L15 6 L15 5 L15 4 L14 4 L14 5 L13 5 L13 4 L12 4 L12 5 L12 6 L13 6 L13 7 L12 7 L11 7 L11 6 L10 6 L10 7 L9 7 L8 7 L8 6 L9 6 L9 5 L8 5 L8 4 L9 4 L10 4 L10 5 L11 5 L11 4 L11 3 L11 2 L10 1.9999999999999998 L10 3 L9 3 L8 3 L8 2 L9 2 L9 1 L8 0.9999999999999999 L8 -1.1102230246251565e-16 L9 -1.1102230246251565e-16 L10 -1.1102230246251565e-16 L10 0.9999999999999999 L11 0.9999999999999999 L11 -1.1102230246251565e-16 L12 -1.1102230246251565e-16 L13 -1.1102230246251565e-16 L13 0.9999999999999999 L12 1 L12 2 L12 3 L13 3 L13 2 L14 2 L14 3 L15 3 L15 2 L15 1 L14 0.9999999999999999 L14 -1.1102230246251565e-16 L15 -1.1102230246251565e-16 L16 -1.1102230246251565e-16 L16 0.9999999999999999 L17 0.9999999999999999 L17 -1.1102230246251565e-16 L18 -1.1102230246251565e-16 L19 -1.1102230246251565e-16 L19 0.9999999999999999 L18 1 L18 2 L19 2 L19 3 L18 3 L17 3 L17 2 L16 2 L16 3 L16 4 L17 4 L17 5 L16 5 L16 6 L16 7 L17 7 L17 6 L18 6 L18 7 L19 7 L19 6 L19 5 L18 5 L18 4 L19 4 L20 4 L21 4 L21 5 L20 5 L20 6 L20 7 L21 7 L21 6 L22 6 L22 7 L23 7 L23 6 L23 5 L22 5 L22 4 L23 4 L23 3 L23 2 L22 1.9999999999999998 L22 3 L21 3 L20 3 L20 2 L21 2 L21 1 L20 0.9999999999999999 L20 -1.1102230246251565e-16 L21 -1.1102230246251565e-16 L22 -1.1102230246251565e-16 L22 0.9999999999999999 L23 0.9999999999999999 L23 -1.1102230246251565e-16 L24 -1.1102230246251565e-16 L25 -1.1102230246251565e-16 L25 0.9999999999999999 L24 1 L24 2 L24 3 L25 3 L25 2 L26 2 L26 3 L27 3 L27 2 L27 1 L26 0.9999999999999999 L26 -1.1102230246251565e-16 L27 -1.1102230246251565e-16 L28 -1.1102230246251565e-16 L28 0.9999999999999999 L29 0.9999999999999999 L29 -1.1102230246251565e-16 L30 -1.1102230246251565e-16 L31 -1.1102230246251565e-16 L31 0.9999999999999999 L30 1 L30 2 L31 2 L31 3 L30 3 L29 3 L29 2 L28 2 L28 3 L28 4 L28 5 L29 5 L29 4 L30 4 L31 4 L31 5 L30 5 L30 6 L31 6 L31 7 L30 7 L29 7 L29 6 L28 6 L28 7 L27 7 L26 7 L26 6 L27 6 L27 5 L27 4 L26 4 L26 5 L25 5 L25 4 L24 4 L24 5 L24 6 L25 6 L25 7 L24 7 L24 8 L25 8 L25 9 L24 9 L24 10 L24 11 L25 11 L25 10 L26 10 L26 11 L27 11 L27 10 L27 9 L26 9 L26 8 L27 8 L28 8 L28 9 L29 9 L29 8 L30 8 L31 8 L31 9 L30 9 L30 10 L31 10 L31 11 L30 11 L29 11 L29 10 L28 10 L28 11 L28 12 L28 13 L29 13 L29 12 L30 12 L31 12 L31 13 L30 13 L30 14 L31 14 L31 15 L30 15 L29 15 L29 14 L28 14 L28 15 L27 15 L26 15 L26 14 L27 14 L27 13 L27 12 L26 12 L26 13 L25 13 L25 12 L24 12 L24 13 L24 14 L25 14 L25 15 L24 15 L23 15 L23 14 L22 14 L22 15 L21 15 L20 15 L20 14 L21 14 L21 13 L20 13 L20 12 L21 12 L22 12 L22 13 L23 13 L23 12 L23 11 L22 11 L22 10 L23 10 L23 9 L23 8 L22 8 L22 9 L21 9 L21 8 L20 8 L20 9 L20 10 L21 10 L21 11 L20 11 L19 11 L18 11 L18 10 L19 10 L19 9 L19 8 L18 8 L18 9 L17 9 L17 8 L16 8 L16 9 L16 10 L17 10 L17 11 L16 11 L16 12 L16 13 L17 13 L17 12 L18 12 L19 12 L19 13 L18 13 L18 14 L19 14 L19 15 L18 15 L17 15 L17 14 L16 14 L16 15 L16 16 L16 17 L17 17 L17 16 L18 16 L19 16 L19 17 L18 17 L18 18 L19 18 L19 19 L18 19 L17 19 L17 18 L16 18 L16 19 L16 20 L17 20 L17 21 L16 21 L16 22 L16 23 L17 23 L17 22 L18 22 L18 23 L19 23 L19 22 L19 21 L18 21 L18 20 L19 20 L20 20 L21 20 L21 21 L20 21 L20 22 L20 23 L21 23 L21 22 L22 22 L22 23 L23 23 L23 22 L23 21 L22 21 L22 20 L23 20 L23 19 L23 18 L22 18 L22 19 L21 19 L20 19 L20 18 L21 18 L21 17 L20 17 L20 16 L21 16 L22 16 L22 17 L23 17 L23 16 L24 16 L25 16 L25 17 L24 17 L24 18 L24 19 L25 19 L25 18 L26 18 L26 19 L27 19 L27 18 L27 17 L26 17 L26 16 L27 16 L28 16 L28 17 L29 17 L29 16 L30 16 L31 16 L31 17 L30 17 L30 18 L31 18 L31 19 L30 19 L29 19 L29 18 L28 18 L28 19 L28 20 L28 21 L29 21 L29 20 L30 20 L31 20 L31 21 L30 21 L30 22 L31 22 L31 23 L30 23 L29 23 L29 22 L28 22 L28 23 L27 23 L26 23 L26 22 L27 22 L27 21 L27 20 L26 20 L26 21 L25 21 L25 20 L24 20 L24 21 L24 22 L25 22 L25 23 L24 23 L24 24 L25 24 L25 25 L24 25 L24 26 L24 27 L25 27 L25 26 L26 26 L26 27 L27 27 L27 26 L27 25 L26 25 L26 24 L27 24 L28 24 L28 25 L29 25 L29 24 L30 24 L31 24 L31 25 L30 25 L30 26 L31 26 L31 27 L30 27 L29 27 L29 26 L28 26 L28 27 L28 28 L28 29 L29 29 L29 28 L30 28 L31 28 L31 29 L30 29 L30 30 L31 30 L31 31 L30 31 L29 31 L29 30 L28 30 L28 31 L27 31 L26 31 L26 30 L27 30 L27 29 L27 28 L26 28 L26 29 L25 29 L25 28 L24 28 L24 29 L24 30 L25 30 L25 31 L24 31 L23 31 L23 30 L22 30 L22 31 L21 31 L20 31 L20 30 L21 30 L21 29 L20 29 L20 28 L21 28 L22 28 L22 29 L23 29 L23 28 L23 27 L22 27 L22 26 L23 26 L23 25 L23 24 L22 24 L22 25 L21 25 L21 24 L20 24 L20 25 L20 26 L21 26 L21 27 L20 27 L19 27 L18 27 L18 26 L19 26 L19 25 L19 24 L18 24 L18 25 L17 25 L17 24 L16 24 L16 25 L16 26 L17 26 L17 27 L16 27 L16 28 L16 29 L17 29 L17 28 L18 28 L19 28 L19 29 L18 29 L18 30 L19 30 L19 31 L18 31 L17 31 L17 30 L16 30 L16 31 L15 31 L14 31 L14 30 L15 30 L15 29 L15 28 L14 28 L14 29 L13 29 L13 28 L12 28 L12 29 L12 30 L13 30 L13 31 L12 31 L11 31 L11 30 L10 30 L10 31 L9 31 L8 31 L8 30 L9 30 L9 29 L8 29 L8 28 L9 28 L10 28 L10 29 L11 29 L11 28 L11 27 L11 26 L10 26 L10 27 L9 27 L8 27 L8 26 L9 26 L9 25 L8 25 L8 24 L9 24 L10 24 L10 25 L11 25 L11 24 L12 24 L13 24 L13 25 L12 25 L12 26 L12 27 L13 27 L13 26 L14 26 L14 27 L15 27 L15 26 L15 25 L14 25 L14 24 L15 24 L15 23 L15 22 L14 22 L14 23 L13 23 L12 23 L12 22 L13 22 L13 21 L12 21 L12 20 L13 20 L14 20 L14 21 L15 21 L15 20 L15 19 L14 19 L14 18 L15 18 L15 17 L15 16 L14 16 L14 17 L13 17 L13 16 L12 16 L12 17 L12 18 L13 18 L13 19 L12 19 L11 19 L10 19 L10 18 L11 18 L11 17 L11 16 L10 16 L10 17 L9 17 L9 16 L8 16 L8 17 L8 18 L9 18 L9 19 L8 19 L8 20 L8 21 L9 21 L9 20 L10 20 L11 20 L11 21 L10 21 L10 22 L11 22 L11 23 L10 23 L9 23 L9 22 L8 22 L8 23 L7 23 L7 22 L6 22 L6 23 L5 23 L4 23 L4 22 L5 22 L5 21 L4 21 L4 20 L5 20 L6 20 L6 21 L7 21 L7 20 L7 19 L6 19 L6 18 L7 18 L7 17 L7 16 L6 16 L6 17 L5 17 L5 16 L4 16 L4 17 L4 18 L5 18 L5 19 L4 19 L3 19 L2 19 L1.9999999999999998 18 L3 18 L3 17 L3 16 L2 16 L2 17 L1 17 L0.9999999999999998 16 L-2.220446049250313e-16 16 L-1.6081226496766364e-16 17 L-9.957992501029598e-17 18 L0.9999999999999999 18 L1 19 L0 19 L6.123233995736766e-17 20 L1.2246467991473532e-16 21 L1.0000000000000002 21 L1.0000000000000002 20 L2 20 L3 20 L3 21 L2 21 L2 22 L3 22 L3 23 L2 23 L1 23 L0.9999999999999998 22 L-2.220446049250313e-16 22 L-1.6081226496766364e-16 23 L-9.957992501029598e-17 24 L0.9999999999999999 24 L1 25 L0 25 L6.123233995736766e-17 26 L1.2246467991473532e-16 27 L1.0000000000000002 27 L1.0000000000000002 26 L2 26 L2 27 L3 27 L3 26 L3 25 L2 25 L2 24 L3 24 L4 24 L4 25 L5 25 L5 24 L6 24 L7 24 L7 25 L6 25 L6 26 L7 26 L7 27 L6 27 L5 27 L5 26 L4 26 L4 27 L4 28 L4 29 L5 29 L5 28 L6 28 L7 28 L7 29 L6 29 L6 30 L7 30 L7 31 L6 31 L5 31 L5 30 L4 30 L4 31 L3 31 L2 31 L1.9999999999999998 30 L3 30 L3 29 L3 28 L2 28 L2 29 L1 29 L0.9999999999999998 28 L-2.220446049250313e-16 28 L-1.6081226496766364e-16 29 L-9.957992501029598e-17 30 L0.9999999999999999 30 L1 31 L0 31 L6.123233995736766e-17 32 L1.2246467991473532e-16 33 L1.0000000000000002 33 L1.0000000000000002 32 L2 32 L3 32 L3 33 L2 33 L2 34 L3 34 L3 35 L2 35 L1 35 L0.9999999999999998 34 L-2.220446049250313e-16 34 L-1.6081226496766364e-16 35 L-9.957992501029598e-17 36 L0.9999999999999999 36 L1 37 L0 37 L6.123233995736766e-17 38 L1.2246467991473532e-16 39 L1.0000000000000002 39 L1.0000000000000002 38 L2 38 L2 39 L3 39 L3 38 L3 37 L2 37 L2 36 L3 36 L4 36 L5 36 L5 37 L4 37 L4 38 L4 39 L5 39 L5 38 L6 38 L6 39 L7 39 L7 38 L7 37 L6 37 L6 36 L7 36 L7 35 L7 34 L6 34 L6 35 L5 35 L4 35 L4 34 L5 34 L5 33 L4 33 L4 32 L5 32 L6 32 L6 33 L7 33 L7 32 L8 32 L9 32 L9 33 L8 33 L8 34 L8 35 L9 35 L9 34 L10 34 L10 35 L11 35 L11 34 L11 33 L10 33 L10 32 L11 32 L12 32 L12 33 L13 33 L13 32 L14 32 L15 32 L15 33 L14 33 L14 34 L15 34 L15 35 L14 35 L13 35 L13 34 L12 34 L12 35 L12 36 L12 37 L13 37 L13 36 L14 36 L15 36 L15 37 L14 37 L14 38 L15 38 L15 39 L14 39 L13 39 L13 38 L12 38 L12 39 L11 39 L10 39 L10 38 L11 38 L11 37 L11 36 L10 36 L10 37 L9 37 L9 36 L8 36 L8 37 L8 38 L9 38 L9 39 L8 39 L8 40 L9 40 L9 41 L8 41 L8 42 L8 43 L9 43 L9 42 L10 42 L10 43 L11 43 L11 42 L11 41 L10 41 L10 40 L11 40 L12 40 L12 41 L13 41 L13 40 L14 40 L15 40 L15 41 L14 41 L14 42 L15 42 L15 43 L14 43 L13 43 L13 42 L12 42 L12 43 L12 44 L12 45 L13 45 L13 44 L14 44 L15 44 L15 45 L14 45 L14 46 L15 46 L15 47 L14 47 L13 47 L13 46 L12 46 L12 47 L11 47 L10 47 L10 46 L11 46 L11 45 L11 44 L10 44 L10 45 L9 45 L9 44 L8 44 L8 45 L8 46 L9 46 L9 47 L8 47 L7 47 L7 46 L6 46 L6 47 L5 47 L4 47 L4 46 L5 46 L5 45 L4 45 L4 44 L5 44 L6 44 L6 45 L7 45 L7 44 L7 43 L6 43 L6 42 L7 42 L7 41 L7 40 L6 40 L6 41 L5 41 L5 40 L4 40 L4 41 L4 42 L5 42 L5 43 L4 43 L3 43 L2 43 L1.9999999999999998 42 L3 42 L3 41 L3 40 L2 40 L2 41 L1 41 L0.9999999999999998 40 L-2.220446049250313e-16 40 L-1.6081226496766364e-16 41 L-9.957992501029598e-17 42 L0.9999999999999999 42 L1 43 L0 43 L6.123233995736766e-17 44 L1.2246467991473532e-16 45 L1.0000000000000002 45 L1.0000000000000002 44 L2 44 L3 44 L3 45 L2 45 L2 46 L3 46 L3 47 L2 47 L1 47 L0.9999999999999998 46 L-2.220446049250313e-16 46 L-1.6081226496766364e-16 47 L-9.957992501029598e-17 48 L0.9999999999999999 48 L1 49 L0 49 L6.123233995736766e-17 50 L1.2246467991473532e-16 51 L1.0000000000000002 51 L1.0000000000000002 50 L2 50 L2 51 L3 51 L3 50 L3 49 L2 49 L2 48 L3 48 L4 48 L4 49 L5 49 L5 48 L6 48 L7 48 L7 49 L6 49 L6 50 L7 50 L7 51 L6 51 L5 51 L5 50 L4 50 L4 51 L4 52 L4 53 L5 53 L5 52 L6 52 L7 52 L7 53 L6 53 L6 54 L7 54 L7 55 L6 55 L5 55 L5 54 L4 54 L4 55 L3 55 L2 55 L1.9999999999999998 54 L3 54 L3 53 L3 52 L2 52 L2 53 L1 53 L0.9999999999999998 52 L-2.220446049250313e-16 52 L-1.6081226496766364e-16 53 L-9.957992501029598e-17 54 L0.9999999999999999 54 L1 55 L0 55 L6.123233995736766e-17 56 L1.2246467991473532e-16 57 L1.0000000000000002 57 L1.0000000000000002 56 L2 56 L3 56 L3 57 L2 57 L2 58 L3 58 L3 59 L2 59 L1 59 L0.9999999999999998 58 L-2.220446049250313e-16 58 L-1.6081226496766364e-16 59 L-9.957992501029598e-17 60 L0.9999999999999999 60 L1 61 L0 61 L6.123233995736766e-17 62 L1.2246467991473532e-16 63 L1.0000000000000002 63 L1.0000000000000002 62 L2 62 L2 63 L3 63 L3 62 L3 61 L2 61 L2 60 L3 60 L4 60 L5 60 L5 61 L4 61 L4 62 L4 63 L5 63 L5 62 L6 62 L6 63 L7 63 L7 62 L7 61 L6 61 L6 60 L7 60 L7 59 L7 58 L6 58 L6 59 L5 59 L4 59 L4 58 L5 58 L5 57 L4 57 L4 56 L5 56 L6 56 L6 57 L7 57 L7 56 L8 56 L8 57 L9 57 L9 56 L10 56 L11 56 L11 57 L10 57 L10 58 L11 58 L11 59 L10 59 L9 59 L9 58 L8 58 L8 59 L8 60 L9 60 L9 61 L8 61 L8 62 L8 63 L9 63 L9 62 L10 62 L10 63 L11 63 L11 62 L11 61 L10 61 L10 60 L11 60 L12 60 L13 60 L13 61 L12 61 L12 62 L12 63 L13 63 L13 62 L14 62 L14 63 L15 63 L15 62 L15 61 L14 61 L14 60 L15 60 L15 59 L15 58 L14 58 L14 59 L13 59 L12 59 L12 58 L13 58 L13 57 L12 57 L12 56 L13 56 L14 56 L14 57 L15 57 L15 56 L15 55 L14 55 L14 54 L15 54 L15 53 L15 52 L14 52 L14 53 L13 53 L13 52 L12 52 L12 53 L12 54 L13 54 L13 55 L12 55 L11 55 L11 54 L10 54 L10 55 L9 55 L8 55 L8 54 L9 54 L9 53 L8 53 L8 52 L9 52 L10 52 L10 53 L11 53 L11 52 L11 51 L11 50 L10 50 L10 51 L9 51 L8 51 L8 50 L9 50 L9 49 L8 49 L8 48 L9 48 L10 48 L10 49 L11 49 L11 48 L12 48 L13 48 L13 49 L12 49 L12 50 L12 51 L13 51 L13 50 L14 50 L14 51 L15 51 L15 50 L15 49 L14 49 L14 48 L15 48 L16 48 L17 48 L17 49 L16 49 L16 50 L16 51 L17 51 L17 50 L18 50 L18 51 L19 51 L19 50 L19 49 L18 49 L18 48 L19 48 L20 48 L20 49 L21 49 L21 48 L22 48 L23 48 L23 49 L22 49 L22 50 L23 50 L23 51 L22 51 L21 51 L21 50 L20 50 L20 51 L20 52 L20 53 L21 53 L21 52 L22 52 L23 52 L23 53 L22 53 L22 54 L23 54 L23 55 L22 55 L21 55 L21 54 L20 54 L20 55 L19 55 L18 55 L18 54 L19 54 L19 53 L19 52 L18 52 L18 53 L17 53 L17 52 L16 52 L16 53 L16 54 L17 54 L17 55 L16 55 L16 56 L16 57 L17 57 L17 56 L18 56 L19 56 L19 57 L18 57 L18 58 L19 58 L19 59 L18 59 L17 59 L17 58 L16 58 L16 59 L16 60 L17 60 L17 61 L16 61 L16 62 L16 63 L17 63 L17 62 L18 62 L18 63 L19 63 L19 62 L19 61 L18 61 L18 60 L19 60 L20 60 L21 60 L21 61 L20 61 L20 62 L20 63 L21 63 L21 62 L22 62 L22 63 L23 63 L23 62 L23 61 L22 61 L22 60 L23 60 L23 59 L23 58 L22 58 L22 59 L21 59 L20 59 L20 58 L21 58 L21 57 L20 57 L20 56 L21 56 L22 56 L22 57 L23 57 L23 56 L24 56 L24 57 L25 57 L25 56 L26 56 L27 56 L27 57 L26 57 L26 58 L27 58 L27 59 L26 59 L25 59 L25 58 L24 58 L24 59 L24 60 L25 60 L25 61 L24 61 L24 62 L24 63 L25 63 L25 62 L26 62 L26 63 L27 63 L27 62 L27 61 L26 61 L26 60 L27 60 L28 60 L29 60 L29 61 L28 61 L28 62 L28 63 L29 63 L29 62 L30 62 L30 63 L31 63 L31 62 L31 61 L30 61 L30 60 L31 60 L31 59 L31 58 L30 58 L30 59 L29 59 L28 59 L28 58 L29 58 L29 57 L28 57 L28 56 L29 56 L30 56 L30 57 L31 57 L31 56 L31 55 L30 55 L30 54 L31 54 L31 53 L31 52 L30 52 L30 53 L29 53 L29 52 L28 52 L28 53 L28 54 L29 54 L29 55 L28 55 L27 55 L27 54 L26 54 L26 55 L25 55 L24 55 L24 54 L25 54 L25 53 L24 53 L24 52 L25 52 L26 52 L26 53 L27 53 L27 52 L27 51 L27 50 L26 50 L26 51 L25 51 L24 51 L24 50 L25 50 L25 49 L24 49 L24 48 L25 48 L26 48 L26 49 L27 49 L27 48 L28 48 L29 48 L29 49 L28 49 L28 50 L28 51 L29 51 L29 50 L30 50 L30 51 L31 51 L31 50 L31 49 L30 49 L30 48 L31 48 L31 47 L31 46 L30 46 L30 47 L29 47 L28 47 L28 46 L29 46 L29 45 L28 45 L28 44 L29 44 L30 44 L30 45 L31 45 L31 44 L31 43 L30 43 L30 42 L31 42 L31 41 L31 40 L30 40 L30 41 L29 41 L29 40 L28 40 L28 41 L28 42 L29 42 L29 43 L28 43 L27 43 L26 43 L26 42 L27 42 L27 41 L27 40 L26 40 L26 41 L25 41 L25 40 L24 40 L24 41 L24 42 L25 42 L25 43 L24 43 L24 44 L24 45 L25 45 L25 44 L26 44 L27 44 L27 45 L26 45 L26 46 L27 46 L27 47 L26 47 L25 47 L25 46 L24 46 L24 47 L23 47 L22 47 L22 46 L23 46 L23 45 L23 44 L22 44 L22 45 L21 45 L21 44 L20 44 L20 45 L20 46 L21 46 L21 47 L20 47 L19 47 L19 46 L18 46 L18 47 L17 47 L16 47 L16 46 L17 46 L17 45 L16 45 L16 44 L17 44 L18 44 L18 45 L19 45 L19 44 L19 43 L19 42 L18 42 L18 43 L17 43 L16 43 L16 42 L17 42 L17 41 L16 41 L16 40 L17 40 L18 40 L18 41 L19 41 L19 40 L20 40 L21 40 L21 41 L20 41 L20 42 L20 43 L21 43 L21 42 L22 42 L22 43 L23 43 L23 42 L23 41 L22 41 L22 40 L23 40 L23 39 L22 39 L22 38 L23 38 L23 37 L23 36 L22 36 L22 37 L21 37 L21 36 L20 36 L20 37 L20 38 L21 38 L21 39 L20 39 L19 39 L19 38 L18 38 L18 39 L17 39 L16 39 L16 38 L17 38 L17 37 L16 37 L16 36 L17 36 L18 36 L18 37 L19 37 L19 36 L19 35 L19 34 L18 34 L18 35 L17 35 L16 35 L16 34 L17 34 L17 33 L16 33 L16 32 L17 32 L18 32 L18 33 L19 33 L19 32 L20 32 L21 32 L21 33 L20 33 L20 34 L20 35 L21 35 L21 34 L22 34 L22 35 L23 35 L23 34 L23 33 L22 33 L22 32 L23 32 L24 32 L24 33 L25 33 L25 32 L26 32 L27 32 L27 33 L26 33 L26 34 L27 34 L27 35 L26 35 L25 35 L25 34 L24 34 L24 35 L24 36 L25 36 L25 37 L24 37 L24 38 L24 39 L25 39 L25 38 L26 38 L26 39 L27 39 L27 38 L27 37 L26 37 L26 36 L27 36 L28 36 L29 36 L29 37 L28 37 L28 38 L28 39 L29 39 L29 38 L30 38 L30 39 L31 39 L31 38 L31 37 L30 37 L30 36 L31 36 L31 35 L31 34 L30 34 L30 35 L29 35 L28 35 L28 34 L29 34 L29 33 L28 33 L28 32 L29 32 L30 32 L30 33 L31 33 L31 32 L32 32 L32 33 L33 33 L33 32 L34 32 L35 32 L35 33 L34 33 L34 34 L35 34 L35 35 L34 35 L33 35 L33 34 L32 34 L32 35 L32 36 L33 36 L33 37 L32 37 L32 38 L32 39 L33 39 L33 38 L34 38 L34 39 L35 39 L35 38 L35 37 L34 37 L34 36 L35 36 L36 36 L37 36 L37 37 L36 37 L36 38 L36 39 L37 39 L37 38 L38 38 L38 39 L39 39 L39 38 L39 37 L38 37 L38 36 L39 36 L39 35 L39 34 L38 34 L38 35 L37 35 L36 35 L36 34 L37 34 L37 33 L36 33 L36 32 L37 32 L38 32 L38 33 L39 33 L39 32 L40 32 L41 32 L41 33 L40 33 L40 34 L40 35 L41 35 L41 34 L42 34 L42 35 L43 35 L43 34 L43 33 L42 33 L42 32 L43 32 L44 32 L44 33 L45 33 L45 32 L46 32 L47 32 L47 33 L46 33 L46 34 L47 34 L47 35 L46 35 L45 35 L45 34 L44 34 L44 35 L44 36 L44 37 L45 37 L45 36 L46 36 L47 36 L47 37 L46 37 L46 38 L47 38 L47 39 L46 39 L45 39 L45 38 L44 38 L44 39 L43 39 L42 39 L42 38 L43 38 L43 37 L43 36 L42 36 L42 37 L41 37 L41 36 L40 36 L40 37 L40 38 L41 38 L41 39 L40 39 L40 40 L41 40 L41 41 L40 41 L40 42 L40 43 L41 43 L41 42 L42 42 L42 43 L43 43 L43 42 L43 41 L42 41 L42 40 L43 40 L44 40 L44 41 L45 41 L45 40 L46 40 L47 40 L47 41 L46 41 L46 42 L47 42 L47 43 L46 43 L45 43 L45 42 L44 42 L44 43 L44 44 L44 45 L45 45 L45 44 L46 44 L47 44 L47 45 L46 45 L46 46 L47 46 L47 47 L46 47 L45 47 L45 46 L44 46 L44 47 L43 47 L42 47 L42 46 L43 46 L43 45 L43 44 L42 44 L42 45 L41 45 L41 44 L40 44 L40 45 L40 46 L41 46 L41 47 L40 47 L39 47 L39 46 L38 46 L38 47 L37 47 L36 47 L36 46 L37 46 L37 45 L36 45 L36 44 L37 44 L38 44 L38 45 L39 45 L39 44 L39 43 L38 43 L38 42 L39 42 L39 41 L39 40 L38 40 L38 41 L37 41 L37 40 L36 40 L36 41 L36 42 L37 42 L37 43 L36 43 L35 43 L34 43 L34 42 L35 42 L35 41 L35 40 L34 40 L34 41 L33 41 L33 40 L32 40 L32 41 L32 42 L33 42 L33 43 L32 43 L32 44 L32 45 L33 45 L33 44 L34 44 L35 44 L35 45 L34 45 L34 46 L35 46 L35 47 L34 47 L33 47 L33 46 L32 46 L32 47 L32 48 L33 48 L33 49 L32 49 L32 50 L32 51 L33 51 L33 50 L34 50 L34 51 L35 51 L35 50 L35 49 L34 49 L34 48 L35 48 L36 48 L36 49 L37 49 L37 48 L38 48 L39 48 L39 49 L38 49 L38 50 L39 50 L39 51 L38 51 L37 51 L37 50 L36 50 L36 51 L36 52 L36 53 L37 53 L37 52 L38 52 L39 52 L39 53 L38 53 L38 54 L39 54 L39 55 L38 55 L37 55 L37 54 L36 54 L36 55 L35 55 L34 55 L34 54 L35 54 L35 53 L35 52 L34 52 L34 53 L33 53 L33 52 L32 52 L32 53 L32 54 L33 54 L33 55 L32 55 L32 56 L32 57 L33 57 L33 56 L34 56 L35 56 L35 57 L34 57 L34 58 L35 58 L35 59 L34 59 L33 59 L33 58 L32 58 L32 59 L32 60 L33 60 L33 61 L32 61 L32 62 L32 63 L33 63 L33 62 L34 62 L34 63 L35 63 L35 62 L35 61 L34 61 L34 60 L35 60 L36 60 L37 60 L37 61 L36 61 L36 62 L36 63 L37 63 L37 62 L38 62 L38 63 L39 63 L39 62 L39 61 L38 61 L38 60 L39 60 L39 59 L39 58 L38 58 L38 59 L37 59 L36 59 L36 58 L37 58 L37 57 L36 57 L36 56 L37 56 L38 56 L38 57 L39 57 L39 56 L40 56 L40 57 L41 57 L41 56 L42 56 L43 56 L43 57 L42 57 L42 58 L43 58 L43 59 L42 59 L41 59 L41 58 L40 58 L40 59 L40 60 L41 60 L41 61 L40 61 L40 62 L40 63 L41 63 L41 62 L42 62 L42 63 L43 63 L43 62 L43 61 L42 61 L42 60 L43 60 L44 60 L45 60 L45 61 L44 61 L44 62 L44 63 L45 63 L45 62 L46 62 L46 63 L47 63 L47 62 L47 61 L46 61 L46 60 L47 60 L47 59 L47 58 L46 58 L46 59 L45 59 L44 59 L44 58 L45 58 L45 57 L44 57 L44 56 L45 56 L46 56 L46 57 L47 57 L47 56 L47 55 L46 55 L46 54 L47 54 L47 53 L47 52 L46 52 L46 53 L45 53 L45 52 L44 52 L44 53 L44 54 L45 54 L45 55 L44 55 L43 55 L43 54 L42 54 L42 55 L41 55 L40 55 L40 54 L41 54 L41 53 L40 53 L40 52 L41 52 L42 52 L42 53 L43 53 L43 52 L43 51 L43 50 L42 50 L42 51 L41 51 L40 51 L40 50 L41 50 L41 49 L40 49 L40 48 L41 48 L42 48 L42 49 L43 49 L43 48 L44 48 L45 48 L45 49 L44 49 L44 50 L44 51 L45 51 L45 50 L46 50 L46 51 L47 51 L47 50 L47 49 L46 49 L46 48 L47 48 L48 48 L49 48 L49 49 L48 49 L48 50 L48 51 L49 51 L49 50 L50 50 L50 51 L51 51 L51 50 L51 49 L50 49 L50 48 L51 48 L52 48 L52 49 L53 49 L53 48 L54 48 L55 48 L55 49 L54 49 L54 50 L55 50 L55 51 L54 51 L53 51 L53 50 L52 50 L52 51 L52 52 L52 53 L53 53 L53 52 L54 52 L55 52 L55 53 L54 53 L54 54 L55 54 L55 55 L54 55 L53 55 L53 54 L52 54 L52 55 L51 55 L50 55 L50 54 L51 54 L51 53 L51 52 L50 52 L50 53 L49 53 L49 52 L48 52 L48 53 L48 54 L49 54 L49 55 L48 55 L48 56 L48 57 L49 57 L49 56 L50 56 L51 56 L51 57 L50 57 L50 58 L51 58 L51 59 L50 59 L49 59 L49 58 L48 58 L48 59 L48 60 L49 60 L49 61 L48 61 L48 62 L48 63 L49 63 L49 62 L50 62 L50 63 L51 63 L51 62 L51 61 L50 61 L50 60 L51 60 L52 60 L53 60 L53 61 L52 61 L52 62 L52 63 L53 63 L53 62 L54 62 L54 63 L55 63 L55 62 L55 61 L54 61 L54 60 L55 60 L55 59 L55 58 L54 58 L54 59 L53 59 L52 59 L52 58 L53 58 L53 57 L52 57 L52 56 L53 56 L54 56 L54 57 L55 57 L55 56 L56 56 L56 57 L57 57 L57 56 L58 56 L59 56 L59 57 L58 57 L58 58 L59 58 L59 59 L58 59 L57 59 L57 58 L56 58 L56 59 L56 60 L57 60 L57 61 L56 61 L56 62 L56 63 L57 63 L57 62 L58 62 L58 63 L59 63 L59 62 L59 61 L58 61 L58 60 L59 60 L60 60 L61 60 L61 61 L60 61 L60 62 L60 63 L61 63 L61 62 L62 62 L62 63 L63 63 L63 62 L63 61 L62 61 L62 60 L63 60 L63 59 L63 58 L62 58 L62 59 L61 59 L60 59 L60 58 L61 58 L61 57 L60 57 L60 56 L61 56 L62 56 L62 57 L63 57 L63 56 L63 55 L62 55 L62 54 L63 54 L63 53 L63 52 L62 52 L62 53 L61 53 L61 52 L60 52 L60 53 L60 54 L61 54 L61 55 L60 55 L59 55 L59 54 L58 54 L58 55 L57 55 L56 55 L56 54 L57 54 L57 53 L56 53 L56 52 L57 52 L58 52 L58 53 L59 53 L59 52 L59 51 L59 50 L58 50 L58 51 L57 51 L56 51 L56 50 L57 50 L57 49 L56 49 L56 48 L57 48 L58 48 L58 49 L59 49 L59 48 L60 48 L61 48 L61 49 L60 49 L60 50 L60 51 L61 51 L61 50 L62 50 L62 51 L63 51 L63 50 L63 49 L62 49 L62 48 L63 48 L63 47 L63 46 L62 46 L62 47 L61 47 L60 47 L60 46 L61 46 L61 45 L60 45 L60 44 L61 44 L62 44 L62 45 L63 45 L63 44 L63 43 L62 43 L62 42 L63 42 L63 41 L63 40 L62 40 L62 41 L61 41 L61 40 L60 40 L60 41 L60 42 L61 42 L61 43 L60 43 L59 43 L58 43 L58 42 L59 42 L59 41 L59 40 L58 40 L58 41 L57 41 L57 40 L56 40 L56 41 L56 42 L57 42 L57 43 L56 43 L56 44 L56 45 L57 45 L57 44 L58 44 L59 44 L59 45 L58 45 L58 46 L59 46 L59 47 L58 47 L57 47 L57 46 L56 46 L56 47 L55 47 L54 47 L54 46 L55 46 L55 45 L55 44 L54 44 L54 45 L53 45 L53 44 L52 44 L52 45 L52 46 L53 46 L53 47 L52 47 L51 47 L51 46 L50 46 L50 47 L49 47 L48 47 L48 46 L49 46 L49 45 L48 45 L48 44 L49 44 L50 44 L50 45 L51 45 L51 44 L51 43 L51 42 L50 42 L50 43 L49 43 L48 43 L48 42 L49 42 L49 41 L48 41 L48 40 L49 40 L50 40 L50 41 L51 41 L51 40 L52 40 L53 40 L53 41 L52 41 L52 42 L52 43 L53 43 L53 42 L54 42 L54 43 L55 43 L55 42 L55 41 L54 41 L54 40 L55 40 L55 39 L54 39 L54 38 L55 38 L55 37 L55 36 L54 36 L54 37 L53 37 L53 36 L52 36 L52 37 L52 38 L53 38 L53 39 L52 39 L51 39 L51 38 L50 38 L50 39 L49 39 L48 39 L48 38 L49 38 L49 37 L48 37 L48 36 L49 36 L50 36 L50 37 L51 37 L51 36 L51 35 L51 34 L50 34 L50 35 L49 35 L48 35 L48 34 L49 34 L49 33 L48 33 L48 32 L49 32 L50 32 L50 33 L51 33 L51 32 L52 32 L53 32 L53 33 L52 33 L52 34 L52 35 L53 35 L53 34 L54 34 L54 35 L55 35 L55 34 L55 33 L54 33 L54 32 L55 32 L56 32 L56 33 L57 33 L57 32 L58 32 L59 32 L59 33 L58 33 L58 34 L59 34 L59 35 L58 35 L57 35 L57 34 L56 34 L56 35 L56 36 L57 36 L57 37 L56 37 L56 38 L56 39 L57 39 L57 38 L58 38 L58 39 L59 39 L59 38 L59 37 L58 37 L58 36 L59 36 L60 36 L61 36 L61 37 L60 37 L60 38 L60 39 L61 39 L61 38 L62 38 L62 39 L63 39 L63 38 L63 37 L62 37 L62 36 L63 36 L63 35 L63 34 L62 34 L62 35 L61 35 L60 35 L60 34 L61 34 L61 33 L60 33 L60 32 L61 32 L62 32 L62 33 L63 33 L63 32 L63 31 L62 31 L62 30 L63 30 L63 29 L63 28 L62 28 L62 29 L61 29 L61 28 L60 28 L60 29 L60 30 L61 30 L61 31 L60 31 L59 31 L59 30 L58 30 L58 31 L57 31 L56 31 L56 30 L57 30 L57 29 L56 29 L56 28 L57 28 L58 28 L58 29 L59 29 L59 28 L59 27 L59 26 L58 26 L58 27 L57 27 L56 27 L56 26 L57 26 L57 25 L56 25 L56 24 L57 24 L58 24 L58 25 L59 25 L59 24 L60 24 L61 24 L61 25 L60 25 L60 26 L60 27 L61 27 L61 26 L62 26 L62 27 L63 27 L63 26 L63 25 L62 25 L62 24 L63 24 L63 23 L63 22 L62 22 L62 23 L61 23 L60 23 L60 22 L61 22 L61 21 L60 21 L60 20 L61 20 L62 20 L62 21 L63 21 L63 20 L63 19 L62 19 L62 18 L63 18 L63 17 L63 16 L62 16 L62 17 L61 17 L61 16 L60 16 L60 17 L60 18 L61 18 L61 19 L60 19 L59 19 L58 19 L58 18 L59 18 L59 17 L59 16 L58 16 L58 17 L57 17 L57 16 L56 16 L56 17 L56 18 L57 18 L57 19 L56 19 L56 20 L56 21 L57 21 L57 20 L58 20 L59 20 L59 21 L58 21 L58 22 L59 22 L59 23 L58 23 L57 23 L57 22 L56 22 L56 23 L55 23 L55 22 L54 22 L54 23 L53 23 L52 23 L52 22 L53 22 L53 21 L52 21 L52 20 L53 20 L54 20 L54 21 L55 21 L55 20 L55 19 L54 19 L54 18 L55 18 L55 17 L55 16 L54 16 L54 17 L53 17 L53 16 L52 16 L52 17 L52 18 L53 18 L53 19 L52 19 L51 19 L50 19 L50 18 L51 18 L51 17 L51 16 L50 16 L50 17 L49 17 L49 16 L48 16 L48 17 L48 18 L49 18 L49 19 L48 19 L48 20 L48 21 L49 21 L49 20 L50 20 L51 20 L51 21 L50 21 L50 22 L51 22 L51 23 L50 23 L49 23 L49 22 L48 22 L48 23 L48 24 L49 24 L49 25 L48 25 L48 26 L48 27 L49 27 L49 26 L50 26 L50 27 L51 27 L51 26 L51 25 L50 25 L50 24 L51 24 L52 24 L52 25 L53 25 L53 24 L54 24 L55 24 L55 25 L54 25 L54 26 L55 26 L55 27 L54 27 L53 27 L53 26 L52 26 L52 27 L52 28 L52 29 L53 29 L53 28 L54 28 L55 28 L55 29 L54 29 L54 30 L55 30 L55 31 L54 31 L53 31 L53 30 L52 30 L52 31 L51 31 L50 31 L50 30 L51 30 L51 29 L51 28 L50 28 L50 29 L49 29 L49 28 L48 28 L48 29 L48 30 L49 30 L49 31 L48 31 L47 31 L47 30 L46 30 L46 31 L45 31 L44 31 L44 30 L45 30 L45 29 L44 29 L44 28 L45 28 L46 28 L46 29 L47 29 L47 28 L47 27 L46 27 L46 26 L47 26 L47 25 L47 24 L46 24 L46 25 L45 25 L45 24 L44 24 L44 25 L44 26 L45 26 L45 27 L44 27 L43 27 L42 27 L42 26 L43 26 L43 25 L43 24 L42 24 L42 25 L41 25 L41 24 L40 24 L40 25 L40 26 L41 26 L41 27 L40 27 L40 28 L40 29 L41 29 L41 28 L42 28 L43 28 L43 29 L42 29 L42 30 L43 30 L43 31 L42 31 L41 31 L41 30 L40 30 L40 31 L39 31 L38 31 L38 30 L39 30 L39 29 L39 28 L38 28 L38 29 L37 29 L37 28 L36 28 L36 29 L36 30 L37 30 L37 31 L36 31 L35 31 L35 30 L34 30 L34 31 L33 31 L32 31 L32 30 L33 30 L33 29 L32 29 L32 28 L33 28 L34 28 L34 29 L35 29 L35 28 L35 27 L35 26 L34 26 L34 27 L33 27 L32 27 L32 26 L33 26 L33 25 L32 25 L32 24 L33 24 L34 24 L34 25 L35 25 L35 24 L36 24 L37 24 L37 25 L36 25 L36 26 L36 27 L37 27 L37 26 L38 26 L38 27 L39 27 L39 26 L39 25 L38 25 L38 24 L39 24 L39 23 L38 23 L38 22 L39 22 L39 21 L39 20 L38 20 L38 21 L37 21 L37 20 L36 20 L36 21 L36 22 L37 22 L37 23 L36 23 L35 23 L35 22 L34 22 L34 23 L33 23 L32 23 L32 22 L33 22 L33 21 L32 21 L32 20 L33 20 L34 20 L34 21 L35 21 L35 20 L35 19 L35 18 L34 18 L34 19 L33 19 L32 19 L32 18 L33 18 L33 17 L32 17 L32 16 L33 16 L34 16 L34 17 L35 17 L35 16 L36 16 L37 16 L37 17 L36 17 L36 18 L36 19 L37 19 L37 18 L38 18 L38 19 L39 19 L39 18 L39 17 L38 17 L38 16 L39 16 L40 16 L40 17 L41 17 L41 16 L42 16 L43 16 L43 17 L42 17 L42 18 L43 18 L43 19 L42 19 L41 19 L41 18 L40 18 L40 19 L40 20 L41 20 L41 21 L40 21 L40 22 L40 23 L41 23 L41 22 L42 22 L42 23 L43 23 L43 22 L43 21 L42 21 L42 20 L43 20 L44 20 L45 20 L45 21 L44 21 L44 22 L44 23 L45 23 L45 22 L46 22 L46 23 L47 23 L47 22 L47 21 L46 21 L46 20 L47 20 L47 19 L47 18 L46 18 L46 19 L45 19 L44 19 L44 18 L45 18 L45 17 L44 17 L44 16 L45 16 L46 16 L46 17 L47 17 L47 16 L47 15 L47 14 L46 14 L46 15 L45 15 L44 15 L44 14 L45 14 L45 13 L44 13 L44 12 L45 12 L46 12 L46 13 L47 13 L47 12 L47 11 L46 11 L46 10 L47 10 L47 9 L47 8 L46 8 L46 9 L45 9 L45 8 L44 8 L44 9 L44 10 L45 10 L45 11 L44 11 L43 11 L42 11 L42 10 L43 10 L43 9 L43 8 L42 8 L42 9 L41 9 L41 8 L40 8 L40 9 L40 10 L41 10 L41 11 L40 11 L40 12 L40 13 L41 13 L41 12 L42 12 L43 12 L43 13 L42 13 L42 14 L43 14 L43 15 L42 15 L41 15 L41 14 L40 14 L40 15 L39 15 L38 15 L38 14 L39 14 L39 13 L39 12 L38 12 L38 13 L37 13 L37 12 L36 12 L36 13 L36 14 L37 14 L37 15 L36 15 L35 15 L35 14 L34 14 L34 15 L33 15 L32 15 L32 14 L33 14 L33 13 L32 13 L32 12 L33 12 L34 12 L34 13 L35 13 L35 12 L35 11 L35 10 L34 10 L34 11 L33 11 L32 11 L32 10 L33 10 L33 9 L32 9 L32 8 L33 8 L34 8 L34 9 L35 9 L35 8 L36 8 L37 8 L37 9 L36 9 L36 10 L36 11 L37 11 L37 10 L38 10 L38 11 L39 11 L39 10 L39 9 L38 9 L38 8 L39 8 L39 7 L38 7 L38 6 L39 6 L39 5 L39 4 L38 4 L38 5 L37 5 L37 4 L36 4 L36 5 L36 6 L37 6 L37 7 L36 7 L35 7 L35 6 L34 6 L34 7 L33 7 L32 7 L32 6 L33 6 L33 5 L32 5 L32 4 L33 4 L34 4 L34 5 L35 5 L35 4 L35 3 L35 2 L34 1.9999999999999998 L34 3 L33 3 L32 3 L32 2 L33 2 L33 1 L32 0.9999999999999999 L32 -1.1102230246251565e-16 L33 -1.1102230246251565e-16 L34 -1.1102230246251565e-16 L34 0.9999999999999999 L35 0.9999999999999999 L35 -1.1102230246251565e-16 L36 -1.1102230246251565e-16 L37 -1.1102230246251565e-16 L37 0.9999999999999999 L36 1 L36 2 L36 3 L37 3 L37 2 L38 2 L38 3 L39 3 L39 2 L39 1 L38 0.9999999999999999 L38 -1.1102230246251565e-16 L39 -1.1102230246251565e-16 L40 -1.1102230246251565e-16 L40 0.9999999999999999 L41 0.9999999999999999 L41 -1.1102230246251565e-16 L42 -1.1102230246251565e-16 L43 -1.1102230246251565e-16 L43 0.9999999999999999 L42 1 L42 2 L43 2 L43 3 L42 3 L41 3 L41 2 L40 2 L40 3 L40 4 L41 4 L41 5 L40 5 L40 6 L40 7 L41 7 L41 6 L42 6 L42 7 L43 7 L43 6 L43 5 L42 5 L42 4 L43 4 L44 4 L45 4 L45 5 L44 5 L44 6 L44 7 L45 7 L45 6 L46 6 L46 7 L47 7 L47 6 L47 5 L46 5 L46 4 L47 4 L47 3 L47 2 L46 1.9999999999999998 L46 3 L45 3 L44 3 L44 2 L45 2 L45 1 L44 0.9999999999999999 L44 -1.1102230246251565e-16 L45 -1.1102230246251565e-16 L46 -1.1102230246251565e-16 L46 0.9999999999999999 L47 0.9999999999999999 L47 -1.1102230246251565e-16 L48 -1.1102230246251565e-16 L49 -1.1102230246251565e-16 L49 0.9999999999999999 L48 1 L48 2 L48 3 L49 3 L49 2 L50 2 L50 3 L51 3 L51 2 L51 1 L50 0.9999999999999999 L50 -1.1102230246251565e-16 L51 -1.1102230246251565e-16 L52 -1.1102230246251565e-16 L52 0.9999999999999999 L53 0.9999999999999999 L53 -1.1102230246251565e-16 L54 -1.1102230246251565e-16 L55 -1.1102230246251565e-16 L55 0.9999999999999999 L54 1 L54 2 L55 2 L55 3 L54 3 L53 3 L53 2 L52 2 L52 3 L52 4 L52 5 L53 5 L53 4 L54 4 L55 4 L55 5 L54 5 L54 6 L55 6 L55 7 L54 7 L53 7 L53 6 L52 6 L52 7 L51 7 L50 7 L50 6 L51 6 L51 5 L51 4 L50 4 L50 5 L49 5 L49 4 L48 4 L48 5 L48 6 L49 6 L49 7 L48 7 L48 8 L48 9 L49 9 L49 8 L50 8 L51 8 L51 9 L50 9 L50 10 L51 10 L51 11 L50 11 L49 11 L49 10 L48 10 L48 11 L48 12 L49 12 L49 13 L48 13 L48 14 L48 15 L49 15 L49 14 L50 14 L50 15 L51 15 L51 14 L51 13 L50 13 L50 12 L51 12 L52 12 L53 12 L53 13 L52 13 L52 14 L52 15 L53 15 L53 14 L54 14 L54 15 L55 15 L55 14 L55 13 L54 13 L54 12 L55 12 L55 11 L55 10 L54 10 L54 11 L53 11 L52 11 L52 10 L53 10 L53 9 L52 9 L52 8 L53 8 L54 8 L54 9 L55 9 L55 8 L56 8 L56 9 L57 9 L57 8 L58 8 L59 8 L59 9 L58 9 L58 10 L59 10 L59 11 L58 11 L57 11 L57 10 L56 10 L56 11 L56 12 L57 12 L57 13 L56 13 L56 14 L56 15 L57 15 L57 14 L58 14 L58 15 L59 15 L59 14 L59 13 L58 13 L58 12 L59 12 L60 12 L61 12 L61 13 L60 13 L60 14 L60 15 L61 15 L61 14 L62 14 L62 15 L63 15 L63 14 L63 13 L62 13 L62 12 L63 12 L63 11 L63 10 L62 10 L62 11 L61 11 L60 11 L60 10 L61 10 L61 9 L60 9 L60 8 L61 8 L62 8 L62 9 L63 9 L63 8 L63 7 L62 7 L62 6 L63 6 L63 5 L63 4 L62 4 L62 5 L61 5 L61 4 L60 4 L60 5 L60 6 L61 6 L61 7 L60 7 L59 7 L59 6 L58 6 L58 7 L57 7 L56 7 L56 6 L57 6 L57 5 L56 5 L56 4 L57 4 L58 4 L58 5 L59 5 L59 4 L59 3 L59 2 L58 1.9999999999999998 L58 3 L57 3 L56 3 L56 2 L57 2 L57 1 L56 0.9999999999999999 L56 -1.1102230246251565e-16 L57 -1.1102230246251565e-16 L58 -1.1102230246251565e-16 L58 0.9999999999999999 L59 0.9999999999999999 L59 -1.1102230246251565e-16 L60 -1.1102230246251565e-16 L61 -1.1102230246251565e-16 L61 0.9999999999999999 L60 1 L60 2 L60 3 L61 3 L61 2 L62 2 L62 3 L63 3 L63 2 L63 1 L62 0.9999999999999999 L62 -1.1102230246251565e-16 L63 -1.1102230246251565e-16" stroke-width="0.2"></path></g></svg>