<svg viewBox="0 0 109 90" fill="none" stroke="black" stroke-linecap="round" stroke-linejoin="round" id="frame" stroke-width="0.4"  xmlns="http://www.w3.org/2000/svg"><g transform=" "><path d="M 0, -1.6741180423819735 L 1.1, 3.4368252762213407 L 2.2, 0.8039402963602776 L 3.3000000000000003, 1.8629455570743758 L 4.4, 3.026716709841675 L 5.5, 4.8388695728124285 L 6.6000000000000005, -3.4623599060490635 L 7.700000000000001, -3.2614398010218144 L 8.8, 3.1406593330066324 L 9.9, -1.749801636149595 L 11, 1.0659122469522786 L 12.100000000000001, 1.8485212330353729 L 13.200000000000001, 1.6876196865196387 L 14.3, -1.1594057085829335 L 15.400000000000002, 0.36445856102846064 L 16.5, 0.7097101213200274 L 17.6, -4.843499661619658 L 18.700000000000003, 2.3278498655017117 L 19.8, -4.2607426653291895 L 20.900000000000002, 2.511727810490813 L 22, -4.316253663114331 L 23.1, 0.04642724991925695 L 24.200000000000003, -4.60671424972981 L 25.3, 4.064764977447867 L 26.400000000000002, 2.5132679945121676 L 27.500000000000004, 4.68784332384538 L 28.6, -3.463194371076113 L 29.700000000000003, 3.7822198876604016 L 30.800000000000004, -2.9549503333296046 L 31.900000000000002, 3.1824040420312443 L 33, 4.750165940437039 L 34.1, -2.641632557530336 L 35.2, 2.484018803221178 L 36.300000000000004, 4.811332226919786 L 37.400000000000006, -2.2760915761525027 L 38.5, 0.5027437211253549 L 39.6, -0.37748098382202 L 40.7, 0.7757663728612862 L 41.800000000000004, -0.8810377123023005 L 42.900000000000006, -4.683482648032597 L 44, 3.952169419255147 L 45.1, 0.11556625368901674 L 46.2, -0.5756759644895038 L 47.300000000000004, -0.6206369401469447 L 48.400000000000006, -4.418971539572573 L 49.50000000000001, -2.1761298184693163 L 50.6, -1.2838578227171342 L 51.7, -4.91965293998822 L 52.800000000000004, -0.008926391603640838 L 53.900000000000006, -4.91376400108304 L 55.00000000000001, 1.4047813418798105 L 56.1, -0.6029582025024477 L 57.2, 2.469410896876224 L 58.300000000000004, 0.47808885585472194 L 59.400000000000006, 2.2506356244559016 L 60.50000000000001, 3.246045113365642 L 61.60000000000001, 3.2698297508223515 L 62.7, 2.4146723752875516 L 63.800000000000004, 3.151330948609703 L 64.9, -1.2328100207338133 L 66, -1.9764614109826417 L 67.10000000000001, -4.906497002790332 L 68.2, 2.9623460776550568 L 69.30000000000001, -4.990062714784886 L 70.4, -4.16525364019099 L 71.5, 3.4513187416482993 L 72.60000000000001, -3.990821839308092 L 73.7, 2.970254421925697 L 74.80000000000001, -0.08550167085730975 L 75.9, 1.994299889075174 L 77, 1.4191341403450664 L 78.10000000000001, 4.140372277270158 L 79.2, -4.176225663203798 L 80.30000000000001, 0.5779433251772875 L 81.4, -0.07489919664219469 L 82.5, -4.578485489957613 L 83.60000000000001, 2.573535442951493 L 84.7, 2.2899103170004462 L 85.80000000000001, 4.954102040490625 L 86.9, -0.9612941744181547 L 88, -4.875090123357971 L 89.10000000000001, 1.1681365969516655 L 90.2, -2.184691429646847 L 91.30000000000001, 2.194769382987816 L 92.4, -2.718665600455987 L 93.50000000000001, 0.9730362894416406 L 94.60000000000001, -4.333407879884683 L 95.7, 4.71278190722521 L 96.80000000000001, -1.4780831340416527 L 97.9, -3.10894727779295 L 99.00000000000001, 4.1159272203491835 L 100.10000000000001, -0.01262426376636705 L 101.2, -3.345897198502416 L 102.30000000000001, -3.850929737987679 L 103.4, -1.3856124881155818 L 104.50000000000001, 1.0917496683755306 L 105.60000000000001, 3.147654534119101 L 106.7, 3.312385083016098 L 107.80000000000001, -3.721039296062905 L 108.9, -0.5633425713897083"></path><path d="M 0, 10.64253330245673 L 1.1, 9.022917747270064 L 2.2, 10.01827478409239 L 3.3000000000000003, 11.808121204797207 L 4.4, 9.27510499937346 L 5.5, 11.586873531711026 L 6.6000000000000005, 10.169434547463766 L 7.700000000000001, 10.838227272228856 L 8.8, 13.488028050281114 L 9.9, 8.334591388314635 L 11, 7.246930598571648 L 12.100000000000001, 11.444840431549782 L 13.200000000000001, 10.874826908315258 L 14.3, 5.924127100949205 L 15.400000000000002, 8.78865957231928 L 16.5, 13.461432457776143 L 17.6, 9.340624809111613 L 18.700000000000003, 14.859848023592459 L 19.8, 5.516405104546902 L 20.900000000000002, 11.621878147502867 L 22, 8.655924796745163 L 23.1, 7.6012372964996 L 24.200000000000003, 13.739418984330124 L 25.3, 12.170925140886318 L 26.400000000000002, 8.453309535620107 L 27.500000000000004, 8.244998454638989 L 28.6, 6.7817115776198245 L 29.700000000000003, 5.180354117225007 L 30.800000000000004, 6.747364997106456 L 31.900000000000002, 8.099787234817581 L 33, 13.74428510753072 L 34.1, 6.516599654340325 L 35.2, 8.950650691741764 L 36.300000000000004, 12.58905887664041 L 37.400000000000006, 5.032269953524756 L 38.5, 6.149563788471176 L 39.6, 12.700428963336261 L 40.7, 9.588813781642544 L 41.800000000000004, 9.747889041841935 L 42.900000000000006, 8.425645827880512 L 44, 10.913805961821648 L 45.1, 10.638573169856931 L 46.2, 12.724804878869282 L 47.300000000000004, 12.642059326787027 L 48.400000000000006, 9.95340108870375 L 49.50000000000001, 13.701174260047537 L 50.6, 10.601184368273518 L 51.7, 9.7187376021684 L 52.800000000000004, 11.923067570180415 L 53.900000000000006, 12.515857220281813 L 55.00000000000001, 12.129769325752223 L 56.1, 13.70617151346667 L 57.2, 13.44166755756402 L 58.300000000000004, 7.433874606488709 L 59.400000000000006, 5.569870470922876 L 60.50000000000001, 14.738247395664978 L 61.60000000000001, 7.405910491339376 L 62.7, 10.33314228065618 L 63.800000000000004, 8.067255019691599 L 64.9, 8.426897525421086 L 66, 10.9017705919458 L 67.10000000000001, 8.184978961521988 L 68.2, 6.31289243612273 L 69.30000000000001, 5.451371668710227 L 70.4, 9.97084379195488 L 71.5, 13.931694031677138 L 72.60000000000001, 10.424964428046943 L 73.7, 6.466400622498803 L 74.80000000000001, 12.818801403701958 L 75.9, 11.624627113720548 L 77, 10.482516288869668 L 78.10000000000001, 5.027558802400613 L 79.2, 7.893376349912345 L 80.30000000000001, 9.45057392107569 L 81.4, 5.604088305403499 L 82.5, 14.321303368620878 L 83.60000000000001, 13.094475270038116 L 84.7, 6.504971980234835 L 85.80000000000001, 13.532884121763725 L 86.9, 13.692808152104917 L 88, 13.853662014904819 L 89.10000000000001, 9.008195400007114 L 90.2, 10.710737705396195 L 91.30000000000001, 11.910665035692665 L 92.4, 11.848130226565555 L 93.50000000000001, 9.712684154443602 L 94.60000000000001, 12.659575939797698 L 95.7, 14.270961285631863 L 96.80000000000001, 11.279594898521806 L 97.9, 12.187182903799037 L 99.00000000000001, 7.223446368524676 L 100.10000000000001, 8.93331289266546 L 101.2, 10.888679027764285 L 102.30000000000001, 14.847679139312282 L 103.4, 12.569718361499188 L 104.50000000000001, 10.930020809390122 L 105.60000000000001, 12.655682564400063 L 106.7, 5.65723180669761 L 107.80000000000001, 12.552628517745209 L 108.9, 6.434497832421795"></path><path d="M 0, 18.119945525685313 L 1.1, 17.38895893036131 L 2.2, 17.72368431038309 L 3.3000000000000003, 23.940083981477674 L 4.4, 18.809857368192137 L 5.5, 21.5690326694327 L 6.6000000000000005, 21.3716626170491 L 7.700000000000001, 20.09325742723729 L 8.8, 15.974395274178683 L 9.9, 16.64831399839565 L 11, 23.60275983894308 L 12.100000000000001, 22.742762566251393 L 13.200000000000001, 19.662950038831436 L 14.3, 18.637101649920712 L 15.400000000000002, 16.680922507466963 L 16.5, 18.209955691874484 L 17.6, 20.658316612396927 L 18.700000000000003, 22.96901464531408 L 19.8, 18.88663768742388 L 20.900000000000002, 18.703796863254112 L 22, 23.18986177518728 L 23.1, 21.365783214887088 L 24.200000000000003, 19.45904016482156 L 25.3, 20.702407360240446 L 26.400000000000002, 15.045037268438618 L 27.500000000000004, 21.27615451842457 L 28.6, 16.18477344424109 L 29.700000000000003, 17.564289569287627 L 30.800000000000004, 17.75706529565087 L 31.900000000000002, 22.536931038493506 L 33, 19.43036794649213 L 34.1, 19.547059535874766 L 35.2, 17.465274333363695 L 36.300000000000004, 17.230718135188965 L 37.400000000000006, 21.451632976869966 L 38.5, 23.620648384937237 L 39.6, 19.654994010844966 L 40.7, 24.355466366828296 L 41.800000000000004, 15.232985018573931 L 42.900000000000006, 20.255482196867344 L 44, 22.713212967550664 L 45.1, 18.201069831429297 L 46.2, 19.306809902029766 L 47.300000000000004, 21.639676094436943 L 48.400000000000006, 23.346397877518648 L 49.50000000000001, 21.14718198802955 L 50.6, 18.774282931996108 L 51.7, 19.93591547010837 L 52.800000000000004, 17.31990098890846 L 53.900000000000006, 15.815753935793357 L 55.00000000000001, 24.84401702993643 L 56.1, 16.487059592382764 L 57.2, 16.374111174692892 L 58.300000000000004, 21.043157577757526 L 59.400000000000006, 18.892946243028376 L 60.50000000000001, 20.672609806217395 L 61.60000000000001, 23.38716030199713 L 62.7, 23.487467766620096 L 63.800000000000004, 17.920725345127455 L 64.9, 20.430583953957676 L 66, 21.570193767913196 L 67.10000000000001, 18.742105960553072 L 68.2, 16.09899043946038 L 69.30000000000001, 24.623777867440083 L 70.4, 18.778946399404422 L 71.5, 15.285823344086722 L 72.60000000000001, 24.030261040672254 L 73.7, 19.22346830349962 L 74.80000000000001, 19.684364795611327 L 75.9, 19.014387130507824 L 77, 15.901882647513851 L 78.10000000000001, 21.839671135377063 L 79.2, 17.78887510248201 L 80.30000000000001, 24.68047857393522 L 81.4, 19.86366510388061 L 82.5, 19.941375255571067 L 83.60000000000001, 16.914904116865923 L 84.7, 22.82199382847687 L 85.80000000000001, 24.139578343401567 L 86.9, 19.877214431734107 L 88, 22.071425915246696 L 89.10000000000001, 23.390877247646188 L 90.2, 16.95816993642556 L 91.30000000000001, 18.55882167782607 L 92.4, 22.711548805868148 L 93.50000000000001, 18.189494609411224 L 94.60000000000001, 23.293411732486778 L 95.7, 23.19021225049864 L 96.80000000000001, 16.26070499333104 L 97.9, 17.29257821973706 L 99.00000000000001, 22.786920071297075 L 100.10000000000001, 21.557347774868212 L 101.2, 18.26371192891703 L 102.30000000000001, 24.638545514233073 L 103.4, 20.997350216144078 L 104.50000000000001, 20.43344497690756 L 105.60000000000001, 21.42727851900907 L 106.7, 22.532646656626056 L 107.80000000000001, 16.554095744284357 L 108.9, 24.074511528963807"></path><path d="M 0, 28.152813911007907 L 1.1, 33.03684711527006 L 2.2, 25.327162741526767 L 3.3000000000000003, 26.577305792965298 L 4.4, 32.74758100573616 L 5.5, 34.73915338626578 L 6.6000000000000005, 30.911903381559974 L 7.700000000000001, 30.391435623260083 L 8.8, 32.33886241967298 L 9.9, 32.655124664924834 L 11, 32.33388185555439 L 12.100000000000001, 25.789461134883915 L 13.200000000000001, 28.91324520085781 L 14.3, 29.859452247586905 L 15.400000000000002, 32.47602224407625 L 16.5, 25.588281153605386 L 17.6, 32.47047424373926 L 18.700000000000003, 34.339482785281604 L 19.8, 25.635712145742893 L 20.900000000000002, 34.50005054578652 L 22, 27.572131156356104 L 23.1, 30.160999298133188 L 24.200000000000003, 27.48122215212351 L 25.3, 30.83878278751829 L 26.400000000000002, 28.29205751379301 L 27.500000000000004, 29.463725089901995 L 28.6, 25.20056009180857 L 29.700000000000003, 34.19463634588631 L 30.800000000000004, 25.131628512202674 L 31.900000000000002, 28.865213393900827 L 33, 28.178293704562424 L 34.1, 25.960326193822624 L 35.2, 28.895385265093154 L 36.300000000000004, 29.147341251174765 L 37.400000000000006, 32.4953269964306 L 38.5, 32.01177597092739 L 39.6, 27.098188399592924 L 40.7, 31.26537561446088 L 41.800000000000004, 28.277213573054695 L 42.900000000000006, 28.056185245061336 L 44, 25.776317118614987 L 45.1, 28.430387973419947 L 46.2, 31.35156393082616 L 47.300000000000004, 32.158319950606284 L 48.400000000000006, 34.41663265331104 L 49.50000000000001, 25.425660609133928 L 50.6, 25.895347594259157 L 51.7, 31.62300586738228 L 52.800000000000004, 25.53647994891193 L 53.900000000000006, 30.00972747802961 L 55.00000000000001, 31.128849983478162 L 56.1, 30.736641884021612 L 57.2, 30.82170248050748 L 58.300000000000004, 27.045590876845083 L 59.400000000000006, 30.040326118478628 L 60.50000000000001, 34.63876962769748 L 61.60000000000001, 31.578476429353113 L 62.7, 26.30916118535892 L 63.800000000000004, 33.61966371620532 L 64.9, 33.444986344185885 L 66, 27.393875121463527 L 67.10000000000001, 31.326732635806952 L 68.2, 25.570189951818946 L 69.30000000000001, 33.329148293316635 L 70.4, 31.92434787795049 L 71.5, 30.939288139561956 L 72.60000000000001, 27.490880488765164 L 73.7, 27.804625033821125 L 74.80000000000001, 26.1847424498258 L 75.9, 31.72769308130436 L 77, 26.504197119852574 L 78.10000000000001, 30.46012878428682 L 79.2, 26.452875136503224 L 80.30000000000001, 29.446456432213648 L 81.4, 27.9487705225937 L 82.5, 27.82306194254734 L 83.60000000000001, 26.13271951585373 L 84.7, 25.474627016921207 L 85.80000000000001, 31.113109588882214 L 86.9, 34.884586335365796 L 88, 27.905802726258013 L 89.10000000000001, 25.01474380377092 L 90.2, 28.919253349052568 L 91.30000000000001, 28.36580753288367 L 92.4, 32.34446048791158 L 93.50000000000001, 28.940439223996467 L 94.60000000000001, 29.764919280951126 L 95.7, 28.393259048087817 L 96.80000000000001, 28.84785175296661 L 97.9, 32.51064539014144 L 99.00000000000001, 26.12483978181259 L 100.10000000000001, 30.92044353506538 L 101.2, 26.474370955600023 L 102.30000000000001, 26.07920169739034 L 103.4, 28.249652385304135 L 104.50000000000001, 30.95166206382021 L 105.60000000000001, 34.182941914578656 L 106.7, 27.43352413117735 L 107.80000000000001, 28.707778453526036 L 108.9, 31.061885357150317"></path><path d="M 0, 35.23444414027837 L 1.1, 42.23748922400118 L 2.2, 37.03233480384395 L 3.3000000000000003, 36.370227336038425 L 4.4, 44.19188976385442 L 5.5, 44.76767540089033 L 6.6000000000000005, 42.42095232066255 L 7.700000000000001, 37.272453307470414 L 8.8, 40.96610069297396 L 9.9, 44.14742946721321 L 11, 38.074605464487014 L 12.100000000000001, 43.465645314069846 L 13.200000000000001, 40.98730564140419 L 14.3, 44.10437345600323 L 15.400000000000002, 35.81988096139857 L 16.5, 38.53241682018442 L 17.6, 35.51823854342062 L 18.700000000000003, 39.36727523788979 L 19.8, 43.44723224720155 L 20.900000000000002, 42.29882955604671 L 22, 40.60889482512346 L 23.1, 39.66496229163952 L 24.200000000000003, 41.29087924987331 L 25.3, 39.59557294836165 L 26.400000000000002, 39.122724532876795 L 27.500000000000004, 36.40281200325182 L 28.6, 43.17157983853751 L 29.700000000000003, 35.88891744517929 L 30.800000000000004, 41.41378641161457 L 31.900000000000002, 44.321181775145504 L 33, 43.33026886063867 L 34.1, 38.6664080616707 L 35.2, 38.3327627178125 L 36.300000000000004, 40.487368106955515 L 37.400000000000006, 35.164849757022424 L 38.5, 43.26650142745732 L 39.6, 36.76670789643347 L 40.7, 44.740805627019334 L 41.800000000000004, 39.779746532388906 L 42.900000000000006, 39.065196513911985 L 44, 38.254568576406356 L 45.1, 44.631361962443066 L 46.2, 39.16915893535343 L 47.300000000000004, 41.69172287026693 L 48.400000000000006, 38.313329219425405 L 49.50000000000001, 36.1941337576588 L 50.6, 42.51885175763603 L 51.7, 38.55416059460355 L 52.800000000000004, 41.22553825406952 L 53.900000000000006, 35.17079830057239 L 55.00000000000001, 42.60707616866731 L 56.1, 37.34655618605822 L 57.2, 43.11061382366126 L 58.300000000000004, 43.46341371616894 L 59.400000000000006, 44.71751213183569 L 60.50000000000001, 44.61227178680996 L 61.60000000000001, 42.913479805671024 L 62.7, 43.135018349423774 L 63.800000000000004, 38.69043827026394 L 64.9, 38.12453985170567 L 66, 43.55703353964655 L 67.10000000000001, 38.813252448759336 L 68.2, 43.1496906287851 L 69.30000000000001, 35.17594098932481 L 70.4, 41.053125858552086 L 71.5, 44.148385525715625 L 72.60000000000001, 37.60486841146016 L 73.7, 39.01392698265005 L 74.80000000000001, 44.900677205273105 L 75.9, 44.827418328455515 L 77, 41.107356548567154 L 78.10000000000001, 38.0062746997006 L 79.2, 41.83158874554364 L 80.30000000000001, 36.09588622955975 L 81.4, 36.58034324566376 L 82.5, 42.67570257249188 L 83.60000000000001, 35.94020366574177 L 84.7, 40.075030326860734 L 85.80000000000001, 40.19703626637278 L 86.9, 44.65504407991074 L 88, 39.18006420116407 L 89.10000000000001, 44.15042162038163 L 90.2, 39.31363105757945 L 91.30000000000001, 35.529749392422325 L 92.4, 35.51052570238489 L 93.50000000000001, 35.10346412544685 L 94.60000000000001, 35.36073684584367 L 95.7, 40.19478559498554 L 96.80000000000001, 41.42794609103071 L 97.9, 36.659860610184225 L 99.00000000000001, 39.216678142365225 L 100.10000000000001, 40.81969976444256 L 101.2, 44.455206395232864 L 102.30000000000001, 41.65811538734895 L 103.4, 39.696459770131966 L 104.50000000000001, 44.66048479188711 L 105.60000000000001, 44.114289284710374 L 106.7, 41.21582269696887 L 107.80000000000001, 44.935774804310824 L 108.9, 39.6760845183572"></path><path d="M 0, 52.29151248985238 L 1.1, 47.35075712142297 L 2.2, 53.52932930074849 L 3.3000000000000003, 49.229030608951355 L 4.4, 49.61345911017001 L 5.5, 49.88904237744609 L 6.6000000000000005, 46.57977104107378 L 7.700000000000001, 52.08723306704481 L 8.8, 52.29311466270432 L 9.9, 52.97396659920317 L 11, 49.15256738642989 L 12.100000000000001, 47.321197985979076 L 13.200000000000001, 53.41770649035873 L 14.3, 45.963892935766815 L 15.400000000000002, 51.594617367162044 L 16.5, 45.45056104554109 L 17.6, 54.342715741214974 L 18.700000000000003, 52.56585359633105 L 19.8, 45.06022930030251 L 20.900000000000002, 51.56368255651642 L 22, 45.13457298165527 L 23.1, 54.05530452822691 L 24.200000000000003, 51.04626178765815 L 25.3, 50.73637723939875 L 26.400000000000002, 51.531109810231975 L 27.500000000000004, 45.21612167247015 L 28.6, 50.15936613086596 L 29.700000000000003, 51.38397455247677 L 30.800000000000004, 46.8856644623181 L 31.900000000000002, 53.45008373340826 L 33, 51.931462288352535 L 34.1, 46.29090309056707 L 35.2, 51.794514656484715 L 36.300000000000004, 52.1846461301168 L 37.400000000000006, 48.30096721609611 L 38.5, 51.45853281055077 L 39.6, 49.622952937992046 L 40.7, 48.13163995699297 L 41.800000000000004, 53.37664365847051 L 42.900000000000006, 51.8653154377512 L 44, 48.74658584565543 L 45.1, 51.0923242571513 L 46.2, 54.69512224306705 L 47.300000000000004, 52.36725568826479 L 48.400000000000006, 52.828435898485694 L 49.50000000000001, 49.12065505960972 L 50.6, 53.49739313207041 L 51.7, 47.016844748756114 L 52.800000000000004, 45.78669071099411 L 53.900000000000006, 50.036647319802235 L 55.00000000000001, 46.23585939319708 L 56.1, 53.74993562785674 L 57.2, 53.88709068388843 L 58.300000000000004, 49.26528453809798 L 59.400000000000006, 49.11416053751348 L 60.50000000000001, 53.227639199054714 L 61.60000000000001, 52.680249214796405 L 62.7, 52.97988176415206 L 63.800000000000004, 51.26921892195689 L 64.9, 50.64072608962672 L 66, 46.53448581614869 L 67.10000000000001, 47.49295949877541 L 68.2, 45.08175134544302 L 69.30000000000001, 51.52128458058491 L 70.4, 48.03294181777931 L 71.5, 45.549137591279376 L 72.60000000000001, 54.68011140932332 L 73.7, 45.21254777796859 L 74.80000000000001, 48.378319739917835 L 75.9, 48.656029700919994 L 77, 53.66395235146953 L 78.10000000000001, 47.56449699345149 L 79.2, 51.203875541967314 L 80.30000000000001, 53.258147240443655 L 81.4, 51.68444395104527 L 82.5, 48.737206458751395 L 83.60000000000001, 46.64443731229856 L 84.7, 48.943157195798854 L 85.80000000000001, 46.00715398695486 L 86.9, 48.5184526440032 L 88, 45.28826951870887 L 89.10000000000001, 53.28329563217314 L 90.2, 47.655677794864324 L 91.30000000000001, 51.39054775270413 L 92.4, 48.61277818647511 L 93.50000000000001, 47.72086143440587 L 94.60000000000001, 47.63087272588882 L 95.7, 52.46579408703041 L 96.80000000000001, 47.7094817156227 L 97.9, 48.03962945892467 L 99.00000000000001, 48.24428081471573 L 100.10000000000001, 54.542818070515715 L 101.2, 54.37839984995741 L 102.30000000000001, 54.456205369079534 L 103.4, 54.383223057813765 L 104.50000000000001, 48.85124683353381 L 105.60000000000001, 53.73075246897776 L 106.7, 45.512840746788505 L 107.80000000000001, 48.807716369351304 L 108.9, 49.82867479320352"></path><path d="M 0, 61.12122535731672 L 1.1, 62.20627069524635 L 2.2, 61.193275451937986 L 3.3000000000000003, 59.38314437851849 L 4.4, 61.73404216806731 L 5.5, 56.05010509399001 L 6.6000000000000005, 61.825616360135754 L 7.700000000000001, 55.8304500570126 L 8.8, 59.505681991462055 L 9.9, 56.471900939119955 L 11, 62.82086849278325 L 12.100000000000001, 62.73978471819772 L 13.200000000000001, 61.110806465407556 L 14.3, 55.06699800376477 L 15.400000000000002, 57.41724967896408 L 16.5, 58.9851760861895 L 17.6, 64.5038747797962 L 18.700000000000003, 56.865971087679725 L 19.8, 61.28212928801825 L 20.900000000000002, 56.727480887604756 L 22, 60.92938661596956 L 23.1, 55.03279924277049 L 24.200000000000003, 57.661302089146645 L 25.3, 60.93994617484043 L 26.400000000000002, 59.134175777233715 L 27.500000000000004, 63.89440298171118 L 28.6, 56.17250680834346 L 29.700000000000003, 63.091137409929914 L 30.800000000000004, 64.01774168108072 L 31.900000000000002, 58.72556209534536 L 33, 61.81108713192192 L 34.1, 63.8603997239518 L 35.2, 60.69663763062484 L 36.300000000000004, 58.64566326109824 L 37.400000000000006, 59.072144031308625 L 38.5, 60.57212591184585 L 39.6, 62.50510931073341 L 40.7, 62.084145546444724 L 41.800000000000004, 58.839278220860116 L 42.900000000000006, 61.60688638724547 L 44, 62.16005325367676 L 45.1, 60.090184211751954 L 46.2, 59.83850002285058 L 47.300000000000004, 64.77309227100878 L 48.400000000000006, 60.99941492103958 L 49.50000000000001, 57.71501064247336 L 50.6, 60.348072052083 L 51.7, 62.36462593133669 L 52.800000000000004, 55.72612285514505 L 53.900000000000006, 59.97541427611732 L 55.00000000000001, 59.686520099566906 L 56.1, 60.4764533044017 L 57.2, 63.066256047009084 L 58.300000000000004, 60.35927534111759 L 59.400000000000006, 55.25145530590123 L 60.50000000000001, 60.99406719230909 L 61.60000000000001, 64.22667980292502 L 62.7, 62.853600979515726 L 63.800000000000004, 64.73237276187454 L 64.9, 60.28979539877963 L 66, 55.33606529127249 L 67.10000000000001, 57.83483505198612 L 68.2, 55.99274396803061 L 69.30000000000001, 58.458251952766034 L 70.4, 62.722082138695306 L 71.5, 60.08041620256389 L 72.60000000000001, 61.53460264241663 L 73.7, 55.27623891720461 L 74.80000000000001, 57.956676482678546 L 75.9, 60.10097980501619 L 77, 59.11875724771962 L 78.10000000000001, 64.01660919282972 L 79.2, 62.28824853950372 L 80.30000000000001, 55.07529973869102 L 81.4, 55.36077499281633 L 82.5, 59.12440538385986 L 83.60000000000001, 55.27430772671343 L 84.7, 60.440196991069286 L 85.80000000000001, 60.13441801074297 L 86.9, 58.0598735804809 L 88, 58.976564407110345 L 89.10000000000001, 55.49544095888162 L 90.2, 60.13459205630575 L 91.30000000000001, 59.15600299815554 L 92.4, 58.55575084652653 L 93.50000000000001, 55.29723882565676 L 94.60000000000001, 61.99584245728232 L 95.7, 60.25249242788472 L 96.80000000000001, 56.62125348966132 L 97.9, 63.79356861202828 L 99.00000000000001, 61.10311031367237 L 100.10000000000001, 59.60090637197739 L 101.2, 56.5862441054979 L 102.30000000000001, 58.659677505181094 L 103.4, 62.99778938363255 L 104.50000000000001, 55.74228286644031 L 105.60000000000001, 55.5997610081918 L 106.7, 59.06043529488622 L 107.80000000000001, 64.58345651733303 L 108.9, 59.943327903734364"></path><path d="M 0, 65.3625655163458 L 1.1, 68.57187747922072 L 2.2, 67.05623626640444 L 3.3000000000000003, 70.20810842518884 L 4.4, 69.51660633075903 L 5.5, 65.54881811038331 L 6.6000000000000005, 72.82755374974282 L 7.700000000000001, 67.94553756666033 L 8.8, 69.2364001272331 L 9.9, 73.14486742092876 L 11, 72.6566338545309 L 12.100000000000001, 67.56700277271844 L 13.200000000000001, 67.55248308124777 L 14.3, 72.40581989344345 L 15.400000000000002, 67.37224817214819 L 16.5, 74.59400653946074 L 17.6, 68.46124887430604 L 18.700000000000003, 74.56193208800674 L 19.8, 68.09000492051477 L 20.900000000000002, 71.29060506850728 L 22, 65.81583261392448 L 23.1, 73.46739769062665 L 24.200000000000003, 70.52541732800319 L 25.3, 71.04119777703686 L 26.400000000000002, 68.80419731112295 L 27.500000000000004, 71.98246479080582 L 28.6, 74.33765173059368 L 29.700000000000003, 71.77152872126818 L 30.800000000000004, 72.26883649878876 L 31.900000000000002, 67.44047880113136 L 33, 72.169430256395 L 34.1, 72.58990287841063 L 35.2, 67.39166736542053 L 36.300000000000004, 73.6745667466136 L 37.400000000000006, 68.6217761036525 L 38.5, 73.05504798960291 L 39.6, 69.72456693642879 L 40.7, 69.88137960431199 L 41.800000000000004, 72.55907774031141 L 42.900000000000006, 70.77365875262154 L 44, 71.40097856554226 L 45.1, 67.23970413143739 L 46.2, 73.96935701462658 L 47.300000000000004, 73.91754388900416 L 48.400000000000006, 66.06163740066384 L 49.50000000000001, 70.83085298557553 L 50.6, 72.82131433552627 L 51.7, 68.94576311086904 L 52.800000000000004, 66.25416755589055 L 53.900000000000006, 67.61434793416744 L 55.00000000000001, 66.34897947226395 L 56.1, 69.4996452330378 L 57.2, 71.78857088130633 L 58.300000000000004, 71.33751869232802 L 59.400000000000006, 73.30598592835152 L 60.50000000000001, 71.1879539492512 L 61.60000000000001, 70.1349163055734 L 62.7, 70.18129110340524 L 63.800000000000004, 66.02727413084993 L 64.9, 72.85126686162577 L 66, 65.39083003890487 L 67.10000000000001, 72.01853752183229 L 68.2, 71.38451099427988 L 69.30000000000001, 66.63146734159241 L 70.4, 66.97304963995074 L 71.5, 74.91494417304986 L 72.60000000000001, 69.81688022609262 L 73.7, 73.2073354728537 L 74.80000000000001, 68.14656019167661 L 75.9, 74.39989328486843 L 77, 74.94508743401269 L 78.10000000000001, 66.534001826433 L 79.2, 74.30756330590405 L 80.30000000000001, 66.63900136869377 L 81.4, 74.86809015387392 L 82.5, 70.8133244516359 L 83.60000000000001, 68.92182826970746 L 84.7, 70.39667367944416 L 85.80000000000001, 67.0379209511536 L 86.9, 74.95383501168197 L 88, 72.66020298066088 L 89.10000000000001, 67.80476570078282 L 90.2, 70.54839611066235 L 91.30000000000001, 73.42373609622561 L 92.4, 74.18722629644611 L 93.50000000000001, 67.15194940500706 L 94.60000000000001, 71.97162628219733 L 95.7, 69.07617092111059 L 96.80000000000001, 74.21336889365068 L 97.9, 65.43644904984079 L 99.00000000000001, 66.13021850495838 L 100.10000000000001, 71.9667148594667 L 101.2, 72.00520277070002 L 102.30000000000001, 70.35594940193835 L 103.4, 70.02417564392653 L 104.50000000000001, 65.70941686530351 L 105.60000000000001, 68.06216478302659 L 106.7, 70.61706066145959 L 107.80000000000001, 67.74244785256275 L 108.9, 69.84691143032325"></path><path d="M 0, 81.19674682645052 L 1.1, 79.87738370892531 L 2.2, 75.1067876804403 L 3.3000000000000003, 83.54128122412163 L 4.4, 77.07918405464831 L 5.5, 82.91335582800986 L 6.6000000000000005, 83.61541748131053 L 7.700000000000001, 79.67228174201965 L 8.8, 83.91786336990023 L 9.9, 80.21641016011509 L 11, 80.15740633014529 L 12.100000000000001, 83.41045141299499 L 13.200000000000001, 78.53765010799692 L 14.3, 83.58929634177808 L 15.400000000000002, 78.85776281330217 L 16.5, 77.03259468009523 L 17.6, 81.01233005547252 L 18.700000000000003, 75.5498361577163 L 19.8, 76.01089239027604 L 20.900000000000002, 78.75639677018775 L 22, 83.74378919688607 L 23.1, 76.93334817814952 L 24.200000000000003, 81.61463260688228 L 25.3, 81.46230697665882 L 26.400000000000002, 84.62477922547254 L 27.500000000000004, 76.64393663328232 L 28.6, 75.04297971610049 L 29.700000000000003, 78.44921588861598 L 30.800000000000004, 84.81187820546606 L 31.900000000000002, 77.19610929423852 L 33, 75.18851041681798 L 34.1, 77.51223564090026 L 35.2, 80.58346986784215 L 36.300000000000004, 81.74634456675182 L 37.400000000000006, 83.21768045500332 L 38.5, 81.79578781169741 L 39.6, 82.72775888506504 L 40.7, 80.73195695894117 L 41.800000000000004, 81.61274671592115 L 42.900000000000006, 79.24124717694737 L 44, 76.59069061199918 L 45.1, 77.08049535683368 L 46.2, 80.47100782405376 L 47.300000000000004, 77.16151475840283 L 48.400000000000006, 75.27916431317087 L 49.50000000000001, 80.86558103581555 L 50.6, 80.31785964973221 L 51.7, 84.98098611947637 L 52.800000000000004, 83.07257175517096 L 53.900000000000006, 75.27523994335795 L 55.00000000000001, 83.66774320687813 L 56.1, 78.57140541043398 L 57.2, 79.76214170450395 L 58.300000000000004, 84.75307464710275 L 59.400000000000006, 76.51565790095266 L 60.50000000000001, 84.79623079411597 L 61.60000000000001, 82.78538227146151 L 62.7, 82.46536970195952 L 63.800000000000004, 79.38355445847463 L 64.9, 82.96247959205938 L 66, 76.94140911031081 L 67.10000000000001, 83.58004331672099 L 68.2, 81.9288730625829 L 69.30000000000001, 78.32687854727891 L 70.4, 81.08933448816867 L 71.5, 78.3228325839906 L 72.60000000000001, 83.78931045620453 L 73.7, 78.80435943575678 L 74.80000000000001, 79.68598127357801 L 75.9, 78.59627008405427 L 77, 82.39192962702175 L 78.10000000000001, 75.42126893890585 L 79.2, 81.30845785171456 L 80.30000000000001, 75.87693691157665 L 81.4, 77.47643947542562 L 82.5, 75.81490039727997 L 83.60000000000001, 83.08650016856531 L 84.7, 84.3500041971798 L 85.80000000000001, 81.80154562038406 L 86.9, 84.18847560980089 L 88, 82.07716941881858 L 89.10000000000001, 76.12655639558253 L 90.2, 84.06099796389718 L 91.30000000000001, 78.07157993271751 L 92.4, 75.51370143785925 L 93.50000000000001, 77.03919887473788 L 94.60000000000001, 83.90096426100958 L 95.7, 84.18118476965026 L 96.80000000000001, 78.52396249736752 L 97.9, 80.07822513582144 L 99.00000000000001, 78.91080856297883 L 100.10000000000001, 77.22766637737575 L 101.2, 83.57021331870234 L 102.30000000000001, 84.2680907259388 L 103.4, 84.93695736046344 L 104.50000000000001, 75.5869507779337 L 105.60000000000001, 76.22471332462149 L 106.7, 83.09259653163436 L 107.80000000000001, 76.66118860167013 L 108.9, 83.71699094858882"></path><path d="M 0, 90.5820131303235 L 1.1, 91.21692657499037 L 2.2, 89.75847244257072 L 3.3000000000000003, 85.3120517719798 L 4.4, 87.84649848887848 L 5.5, 91.2881970408578 L 6.6000000000000005, 86.9657659523575 L 7.700000000000001, 87.23049879009614 L 8.8, 90.67389011398747 L 9.9, 87.5775909418188 L 11, 89.01647090888966 L 12.100000000000001, 90.02446174622152 L 13.200000000000001, 86.23897552402666 L 14.3, 88.14356327013661 L 15.400000000000002, 89.3145537374808 L 16.5, 89.0884733197951 L 17.6, 87.96269655180227 L 18.700000000000003, 91.11903190638847 L 19.8, 91.00337266945358 L 20.900000000000002, 93.38459968645698 L 22, 88.4399318691436 L 23.1, 87.25931882794465 L 24.200000000000003, 91.63879632987985 L 25.3, 87.34744071898689 L 26.400000000000002, 86.43188953316582 L 27.500000000000004, 93.87055635542389 L 28.6, 89.88485574719608 L 29.700000000000003, 94.60546493637503 L 30.800000000000004, 89.08304452874769 L 31.900000000000002, 87.06271171501434 L 33, 91.35102272065147 L 34.1, 89.42105531679026 L 35.2, 93.20220470503024 L 36.300000000000004, 92.44496822414104 L 37.400000000000006, 86.23604535968882 L 38.5, 85.94240665341317 L 39.6, 86.48875713266636 L 40.7, 89.35975313171738 L 41.800000000000004, 86.66885614317583 L 42.900000000000006, 88.19156408267831 L 44, 93.16426038815739 L 45.1, 92.5905036932301 L 46.2, 91.8903183941474 L 47.300000000000004, 90.80774068851204 L 48.400000000000006, 88.8986229893981 L 49.50000000000001, 90.4897785187908 L 50.6, 91.95950985000458 L 51.7, 87.09412813118988 L 52.800000000000004, 94.80279922597175 L 53.900000000000006, 89.77215766901433 L 55.00000000000001, 92.16825485279976 L 56.1, 89.28172826750244 L 57.2, 94.39303875071766 L 58.300000000000004, 92.6636767393592 L 59.400000000000006, 88.9315462109939 L 60.50000000000001, 88.48602056468046 L 61.60000000000001, 94.71653699984694 L 62.7, 93.9293837556451 L 63.800000000000004, 85.00476837041899 L 64.9, 88.86284112903822 L 66, 94.11330461597845 L 67.10000000000001, 87.25994110043625 L 68.2, 86.6804051391502 L 69.30000000000001, 92.04991817522094 L 70.4, 86.79807186052159 L 71.5, 85.55449247256725 L 72.60000000000001, 87.05649614265573 L 73.7, 89.21813249569809 L 74.80000000000001, 90.49634218227499 L 75.9, 93.48920583806215 L 77, 92.37527132089605 L 78.10000000000001, 91.06964349771609 L 79.2, 85.00654935720529 L 80.30000000000001, 86.10968112854978 L 81.4, 86.80586814806001 L 82.5, 85.37829875838437 L 83.60000000000001, 92.87141561575034 L 84.7, 91.73846483271068 L 85.80000000000001, 94.08167600726748 L 86.9, 93.71021270838338 L 88, 90.49883842479876 L 89.10000000000001, 89.68091249458513 L 90.2, 92.36283779199302 L 91.30000000000001, 85.2206611622173 L 92.4, 85.21401882060198 L 93.50000000000001, 90.86950540562847 L 94.60000000000001, 90.82469224949011 L 95.7, 89.15811061839528 L 96.80000000000001, 85.5545902241847 L 97.9, 91.94601297423849 L 99.00000000000001, 87.16762304240083 L 100.10000000000001, 94.09054041004053 L 101.2, 91.64462804832604 L 102.30000000000001, 92.40074873026478 L 103.4, 92.71431684557216 L 104.50000000000001, 85.6821537007769 L 105.60000000000001, 92.51165628491707 L 106.7, 87.28629589017628 L 107.80000000000001, 94.93026018257491 L 108.9, 89.10203933694913"></path></g></svg>